<?xml version="1.0" encoding="UTF-8"?>
<svg width="60px" height="60px" viewBox="0 0 60 60" version="1.1" xmlns="http://www.w3.org/2000/svg" xmlns:xlink="http://www.w3.org/1999/xlink">
    <title>a-1</title>
    <g id="Página-1" stroke="none" stroke-width="1" fill="none" fill-rule="evenodd">
        <g id="a-1" fill="#FA243C" fill-rule="nonzero">
            <path d="M30,60 C25.8627451,60 21.9803921,59.2205882 18.3529412,57.6617647 C14.7254902,56.1029412 11.5392157,53.9460785 8.79411764,51.1911764 C6.0490196,48.4362745 3.89705883,45.25 2.33823529,41.632353 C0.779411765,38.0147058 0,34.1372549 0,30 C0,25.8627451 0.779411765,21.9803921 2.33823529,18.3529412 C3.89705883,14.7254902 6.0490196,11.5392157 8.79411764,8.79411764 C11.5392157,6.0490196 14.7254902,3.89705883 18.3529412,2.33823529 C21.9803921,0.779411765 25.8627451,0 30,0 C34.1372549,0 38.0196079,0.779411765 41.6470588,2.33823529 C45.2745098,3.89705883 48.4607843,6.0490196 51.2058824,8.79411764 C53.9509804,11.5392157 56.1029412,14.7254902 57.6617647,18.3529412 C59.2205882,21.9803921 60,25.8627451 60,30 C60,34.1372549 59.2205882,38.0147058 57.6617647,41.632353 C56.1029412,45.25 53.9509804,48.4362745 51.2058824,51.1911764 C48.4607843,53.9460785 45.2745098,56.1029412 41.6470588,57.6617647 C38.0196079,59.2205882 34.1372549,60 30,60 Z M26.7058824,44.3529412 C27.2156863,44.3529412 27.6764706,44.2352941 28.0882353,44 C28.5,43.7647059 28.8627451,43.4117647 29.1764706,42.9411765 L42.9999999,21.1470588 C43.1764706,20.8529412 43.3431372,20.5392157 43.5,20.2058823 C43.6568627,19.872549 43.7352941,19.5392157 43.7352941,19.2058824 C43.7352941,18.5196078 43.4803922,17.9754902 42.9705883,17.5735294 C42.4607843,17.1715686 41.8921568,16.9705883 41.2647059,16.9705883 C40.4019608,16.9705883 39.6960784,17.4215686 39.1470588,18.3235294 L26.5882353,38.5 L20.6176471,30.7941176 C20.245098,30.3039216 19.8872549,29.9705883 19.5441176,29.7941177 C19.2009804,29.617647 18.8137255,29.5294118 18.382353,29.5294118 C17.7156863,29.5294118 17.1568628,29.7696078 16.7058824,30.25 C16.2549019,30.7303922 16.0294118,31.3039215 16.0294118,31.9705883 C16.0294118,32.3039216 16.0931372,32.6323529 16.2205883,32.9558823 C16.3480392,33.2794118 16.5196078,33.5882352 16.7352941,33.8823529 L24.1176471,42.9411765 C24.5098039,43.4509804 24.9117647,43.8137255 25.3235294,44.0294118 C25.7352941,44.245098 26.1960784,44.3529412 26.7058824,44.3529412 Z" id="Forma"></path>
        </g>
    </g>
</svg>