<?xml version="1.0" encoding="UTF-8"?>
<svg width="60px" height="60px" viewBox="0 0 60 60" version="1.1" xmlns="http://www.w3.org/2000/svg" xmlns:xlink="http://www.w3.org/1999/xlink">
    <title>a-2</title>
    <g id="Página-1" stroke="none" stroke-width="1" fill="none" fill-rule="evenodd">
        <g id="a-2" fill="#FA243C" fill-rule="nonzero">
            <path d="M29.9854862,60 C25.8442187,60 21.9641994,59.2207163 18.3454282,57.662149 C14.7266569,56.1035818 11.5432994,53.9496611 8.79535559,51.2003872 C6.04741171,48.4511132 3.89453314,45.2662149 2.33671989,41.6456922 C0.778906628,38.0251694 0,34.143272 0,30 C0,25.856728 0.778906628,21.9699903 2.33671989,18.3397871 C3.89453314,14.7095837 6.04741171,11.5246854 8.79535559,8.78509196 C11.5432994,6.04549854 14.7266569,3.89641819 18.3454282,2.33785092 C21.9641994,0.779283639 25.8442187,0 29.9854862,0 C34.1267538,0 38.011611,0.779283639 41.6400581,2.33785092 C45.2685051,3.89641819 48.4567006,6.04549854 51.2046444,8.78509196 C53.9525883,11.5246854 56.1054669,14.7095837 57.6632802,18.3397871 C59.2210934,21.9699903 60,25.856728 60,30 C60,34.143272 59.2210934,38.0251694 57.6632802,41.6456922 C56.1054669,45.2662149 53.9525883,48.4511132 51.2046444,51.2003872 C48.4567006,53.9496611 45.2685051,56.1035818 41.6400581,57.662149 C38.011611,59.2207163 34.1267538,60 29.9854862,60 Z M26.7634253,44.3175217 C27.3052734,44.3175217 27.80358,44.1916747 28.2583454,43.9399806 C28.7131108,43.6882865 29.1146589,43.3107453 29.4629898,42.8073572 L43.0478955,21.60697 C43.2414127,21.2971926 43.4155782,20.9632139 43.5703919,20.6050339 C43.7252057,20.2468538 43.8026125,19.9031946 43.8026125,19.5740562 C43.8026125,18.8189738 43.5171746,18.2090997 42.946299,17.7444336 C42.3754233,17.2797676 41.7319787,17.0474346 41.0159652,17.0474346 C40.067731,17.0474346 39.2839865,17.5508228 38.6647315,18.5575992 L26.6473149,37.7831559 L21.0740203,30.696999 C20.6869859,30.2129719 20.3096275,29.874153 19.9419448,29.680542 C19.5742622,29.4869313 19.1582003,29.3901258 18.6937591,29.3901258 C17.9583938,29.3901258 17.3343009,29.6563407 16.8214805,30.1887706 C16.3086599,30.7212003 16.0522497,31.3552759 16.0522497,32.0909971 C16.0522497,32.4588576 16.1199806,32.8170378 16.2554427,33.1655372 C16.3909047,33.5140368 16.5844218,33.8528557 16.8359942,34.1819942 L23.9477504,42.8363988 C24.3734882,43.3591481 24.8089018,43.7366893 25.2539913,43.9690223 C25.6990808,44.2013553 26.2022255,44.3175217 26.7634253,44.3175217 Z" id="Forma"></path>
        </g>
    </g>
</svg>