<?xml version="1.0" encoding="UTF-8"?>
<svg width="60px" height="60px" viewBox="0 0 60 60" version="1.1" xmlns="http://www.w3.org/2000/svg" xmlns:xlink="http://www.w3.org/1999/xlink">
    <title>a-3</title>
    <g id="Página-1" stroke="none" stroke-width="1" fill="none" fill-rule="evenodd">
        <g id="a-3" fill="#FA243C" fill-rule="nonzero">
            <path d="M30,60 C25.8581016,60 21.9750719,59.2186002 18.3509108,57.6558006 C14.7267498,56.093001 11.5388303,53.9357622 8.78715245,51.1840845 C6.0354746,48.4324066 3.88302973,45.249281 2.32981784,41.6347076 C0.776605945,38.0201342 0,34.1418984 0,30 C0,25.8581016 0.776605945,21.9750719 2.32981784,18.3509108 C3.88302973,14.7267498 6.0354746,11.5388303 8.78715245,8.78715245 C11.5388303,6.0354746 14.7267498,3.88302973 18.3509108,2.32981784 C21.9750719,0.776605945 25.8581016,0 30,0 C34.1418984,0 38.0249282,0.776605945 41.6490892,2.32981784 C45.2732502,3.88302973 48.4563759,6.0354746 51.198466,8.78715245 C53.9405561,11.5388303 56.093001,14.7267498 57.6558006,18.3509108 C59.2186002,21.9750719 60,25.8581016 60,30 C60,34.1418984 59.2186002,38.0201342 57.6558006,41.6347076 C56.093001,45.249281 53.9405561,48.4324066 51.198466,51.1840845 C48.4563759,53.9357622 45.2732502,56.093001 41.6490892,57.6558006 C38.0249282,59.2186002 34.1418984,60 30,60 Z M26.8072867,44.2665388 C27.3825504,44.2665388 27.9146693,44.1275169 28.4036434,43.8494727 C28.8926174,43.5714286 29.3096836,43.1831256 29.6548418,42.6845638 L43.0872484,21.9175456 C43.2981784,21.5915628 43.4755514,21.2464046 43.6193672,20.8820709 C43.7631831,20.5177373 43.8350911,20.1534037 43.8350911,19.78907 C43.8350911,18.9837009 43.5330777,18.3317354 42.9290508,17.8331736 C42.325024,17.3346117 41.6395015,17.0853308 40.8724833,17.0853308 C39.8561841,17.0853308 39.0028764,17.6318313 38.31256,18.7248322 L26.7209972,37.2483222 L21.3998083,30.5752637 C21.0162992,30.0958773 20.63279,29.755513 20.2492809,29.5541707 C19.8657718,29.3528284 19.4343241,29.2521573 18.9549377,29.2521573 C18.1495685,29.2521573 17.4688399,29.5349952 16.9127517,30.1006712 C16.3566634,30.6663471 16.0786194,31.3518697 16.0786194,32.1572387 C16.0786194,32.5407478 16.1505273,32.9098754 16.2943433,33.2646213 C16.4381592,33.6193673 16.6442953,33.978907 16.9127517,34.3432407 L23.8446789,42.6845638 C24.2665389,43.2214765 24.717162,43.6193672 25.1965484,43.8782359 C25.6759349,44.1371046 26.2128476,44.2665388 26.8072867,44.2665388 Z" id="Forma"></path>
        </g>
    </g>
</svg>