<?xml version="1.0" encoding="UTF-8"?>
<svg width="61px" height="61px" viewBox="0 0 61 61" version="1.1" xmlns="http://www.w3.org/2000/svg" xmlns:xlink="http://www.w3.org/1999/xlink">
    <title>checkmark.circle.fill</title>
    <g id="Symbols" stroke="none" stroke-width="1" fill="none" fill-rule="evenodd">
        <g id="3-Iconos/Relleno/checkmark.circle.fill" transform="translate(-9, -10)" fill="#FA243C" fill-rule="nonzero">
            <g id="checkmark.circle.fill" transform="translate(9.8613, 10.3477)">
                <path d="M29.9858022,60 C25.8589683,60 21.9829626,59.2234848 18.3577851,57.6704545 C14.7326077,56.1174242 11.5475627,53.9630682 8.80265026,51.2073864 C6.05773781,48.4517045 3.90440133,45.2604167 2.3426408,41.6335227 C0.780880265,38.0066288 0,34.1287879 0,30 C0,25.8522727 0.780880265,21.9649621 2.3426408,18.3380682 C3.90440133,14.7111742 6.05773781,11.5246212 8.80265026,8.77840909 C11.5475627,6.03219697 14.7326077,3.88257576 18.3577851,2.32954545 C21.9829626,0.776515152 25.8589683,0 29.9858022,0 C34.1315665,0 38.0170374,0.776515152 41.6422149,2.32954545 C45.2673923,3.88257576 48.4524373,6.03219697 51.1973497,8.77840909 C53.9422622,11.5246212 56.0955987,14.7111742 57.6573592,18.3380682 C59.2191197,21.9649621 60,25.8522727 60,30 C60,34.1287879 59.2191197,38.0066288 57.6573592,41.6335227 C56.0955987,45.2604167 53.9422622,48.4517045 51.1973497,51.2073864 C48.4524373,53.9630682 45.2673923,56.1174242 41.6422149,57.6704545 C38.0170374,59.2234848 34.1315665,60 29.9858022,60 Z M26.8622811,44.2329545 C27.4869853,44.2329545 28.0596309,44.0861742 28.5802177,43.7926136 C29.1008045,43.499053 29.5504023,43.0776515 29.9290109,42.5284091 L43.1329863,22.3579545 C43.3601514,21.9981061 43.5447231,21.6287879 43.6867014,21.25 C43.8286796,20.8712121 43.8996687,20.5018939 43.8996687,20.1420455 C43.8996687,19.2708333 43.5731188,18.5511364 42.9200189,17.9829545 C42.2669191,17.4147727 41.5144345,17.1306818 40.6625651,17.1306818 C39.5456697,17.1306818 38.6086133,17.7367424 37.8513961,18.9488636 L26.8054898,36.5340909 L21.8362518,30.4545455 C21.4576432,29.9810606 21.0648367,29.6401515 20.6578325,29.4318182 C20.2508282,29.2234848 19.7823,29.1193182 19.252248,29.1193182 C18.4003786,29.1193182 17.6620918,29.4270833 17.0373876,30.0426136 C16.4126834,30.6581439 16.1003313,31.4015152 16.1003313,32.2727273 C16.1003313,32.6893939 16.176053,33.0871212 16.3274965,33.4659091 C16.4789399,33.844697 16.7155703,34.2329545 17.0373876,34.6306818 L23.6819688,42.5852273 C24.1362991,43.1344697 24.6190251,43.5464015 25.1301467,43.8210227 C25.6412683,44.0956439 26.2186465,44.2329545 26.8622811,44.2329545 Z" id="Forma"></path>
            </g>
        </g>
    </g>
</svg>