<?xml version="1.0" encoding="UTF-8"?>
<svg width="120px" height="120px" viewBox="0 0 120 120" version="1.1" xmlns="http://www.w3.org/2000/svg" xmlns:xlink="http://www.w3.org/1999/xlink">
    <title>Icon</title>
    <g id="Icon" stroke="none" stroke-width="1" fill="none" fill-rule="evenodd">
        <polygon id="Imagen" fill="#F1EFEB" points="0 0 120 0 120 120 0 120"></polygon>
        <g id="jpeg" transform="translate(48.5617, 87.6977)" fill="#1D1D1D" fill-rule="nonzero">
            <path d="M0.193359375,10.4589844 C0.162109375,10.4589844 0.129882812,10.4589844 0.0966796875,10.4589844 C0.0634765625,10.4589844 0.03125,10.4570312 0,10.453125 L0,9.55664062 C0.02734375,9.55664062 0.0537109375,9.55664062 0.0791015625,9.55664062 C0.104492188,9.55664062 0.130859375,9.55664062 0.158203125,9.55664062 C0.490234375,9.55664062 0.723632812,9.49414062 0.858398438,9.36914062 C0.993164062,9.24414062 1.06054688,9.01171875 1.06054688,8.671875 L1.06054688,2.30859375 L2.08007812,2.30859375 L2.08007812,8.66015625 C2.08007812,9.27734375 1.92871094,9.73144531 1.62597656,10.0224609 C1.32324219,10.3134766 0.845703125,10.4589844 0.193359375,10.4589844 Z M1.5703125,1.27734375 C1.39453125,1.27734375 1.24414062,1.21484375 1.11914062,1.08984375 C0.994140625,0.96484375 0.931640625,0.814453125 0.931640625,0.638671875 C0.931640625,0.458984375 0.994140625,0.307617188 1.11914062,0.184570312 C1.24414062,0.0615234375 1.39453125,0 1.5703125,0 C1.75,0 1.90136719,0.0615234375 2.02441406,0.184570312 C2.14746094,0.307617188 2.20898438,0.458984375 2.20898438,0.638671875 C2.20898438,0.814453125 2.14746094,0.96484375 2.02441406,1.08984375 C1.90136719,1.21484375 1.75,1.27734375 1.5703125,1.27734375 Z" id="Forma"></path>
            <path d="M3.56875,10.453125 L3.56875,2.30859375 L4.58828125,2.30859375 L4.58828125,3.33984375 L4.61171875,3.33984375 C4.740625,3.1015625 4.89980469,2.89746094 5.08925781,2.72753906 C5.27871094,2.55761719 5.49648437,2.42578125 5.74257812,2.33203125 C5.98867187,2.23828125 6.25625,2.19140625 6.5453125,2.19140625 C7.06484375,2.19140625 7.51894531,2.32128906 7.90761719,2.58105469 C8.29628906,2.84082031 8.59804687,3.20800781 8.81289062,3.68261719 C9.02773437,4.15722656 9.13515625,4.71484375 9.13515625,5.35546875 L9.13515625,5.36132812 C9.13515625,6.00195312 9.02675781,6.55859375 8.80996094,7.03125 C8.59316406,7.50390625 8.29238281,7.87011719 7.90761719,8.12988281 C7.52285156,8.38964844 7.07460937,8.51953125 6.56289063,8.51953125 C6.27773437,8.51953125 6.01015625,8.47363281 5.76015625,8.38183594 C5.51015625,8.29003906 5.28847656,8.15917969 5.09511719,7.98925781 C4.90175781,7.81933594 4.740625,7.6171875 4.61171875,7.3828125 L4.58828125,7.3828125 L4.58828125,10.453125 L3.56875,10.453125 Z M6.34609375,7.6171875 C6.70546875,7.6171875 7.01601562,7.52539062 7.27773437,7.34179688 C7.53945312,7.15820312 7.740625,6.89746094 7.88125,6.55957031 C8.021875,6.22167969 8.0921875,5.82226562 8.0921875,5.36132812 L8.0921875,5.35546875 C8.0921875,4.88671875 8.021875,4.48339844 7.88125,4.14550781 C7.740625,3.80761719 7.53945312,3.54785156 7.27773437,3.36621094 C7.01601562,3.18457031 6.70546875,3.09375 6.34609375,3.09375 C6.00234375,3.09375 5.69765625,3.1875 5.43203125,3.375 C5.16640625,3.5625 4.95839844,3.82519531 4.80800781,4.16308594 C4.65761719,4.50097656 4.58242187,4.8984375 4.58242187,5.35546875 L4.58242187,5.36132812 C4.58242187,5.81445312 4.65859375,6.20996094 4.8109375,6.54785156 C4.96328125,6.88574219 5.17128906,7.1484375 5.43496094,7.3359375 C5.69863281,7.5234375 6.00234375,7.6171875 6.34609375,7.6171875 Z" id="Forma"></path>
            <path d="M12.7683594,8.51953125 C12.1863281,8.51953125 11.6853516,8.390625 11.2654297,8.1328125 C10.8455078,7.875 10.5232422,7.51074219 10.2986328,7.04003906 C10.0740234,6.56933594 9.96171875,6.015625 9.96171875,5.37890625 L9.96171875,5.37304688 C9.96171875,4.74414062 10.075,4.19042969 10.3015625,3.71191406 C10.528125,3.23339844 10.8464844,2.86035156 11.2566406,2.59277344 C11.6667969,2.32519531 12.1492188,2.19140625 12.7039063,2.19140625 C13.2585938,2.19140625 13.7361328,2.31933594 14.1365234,2.57519531 C14.5369141,2.83105469 14.8445313,3.18945312 15.059375,3.65039062 C15.2742188,4.11132812 15.3816406,4.64648438 15.3816406,5.25585938 L15.3816406,5.63085938 L10.4714844,5.63085938 L10.4714844,4.83398438 L14.8777344,4.83398438 L14.3621094,5.57226562 L14.3621094,5.1796875 C14.3621094,4.70703125 14.2908203,4.31640625 14.1482422,4.0078125 C14.0056641,3.69921875 13.809375,3.46972656 13.559375,3.31933594 C13.309375,3.16894531 13.0222656,3.09375 12.6980469,3.09375 C12.3738281,3.09375 12.0828125,3.17285156 11.825,3.33105469 C11.5671875,3.48925781 11.3640625,3.72363281 11.215625,4.03417969 C11.0671875,4.34472656 10.9929688,4.7265625 10.9929688,5.1796875 L10.9929688,5.57226562 C10.9929688,6.00195312 11.0662109,6.36914062 11.2126953,6.67382812 C11.3591797,6.97851562 11.5671875,7.21191406 11.8367188,7.37402344 C12.10625,7.53613281 12.4246094,7.6171875 12.7917969,7.6171875 C13.0496094,7.6171875 13.2800781,7.578125 13.4832031,7.5 C13.6863281,7.421875 13.85625,7.31445312 13.9929688,7.17773438 C14.1296875,7.04101562 14.2273438,6.88476562 14.2859375,6.70898438 L14.3035156,6.65625 L15.3054688,6.65625 L15.29375,6.71484375 C15.2429688,6.96484375 15.1462891,7.19921875 15.0037109,7.41796875 C14.8611328,7.63671875 14.6785156,7.82910156 14.4558594,7.99511719 C14.2332031,8.16113281 13.9792969,8.29003906 13.6941406,8.38183594 C13.4089844,8.47363281 13.1003906,8.51953125 12.7683594,8.51953125 Z" id="Trazado"></path>
            <path d="M19.0851563,10.5703125 C18.5851563,10.5703125 18.1486328,10.4990234 17.7755859,10.3564453 C17.4025391,10.2138672 17.1017578,10.0205078 16.8732422,9.77636719 C16.6447266,9.53222656 16.4972656,9.25976562 16.4308594,8.95898438 L16.4191406,8.90625 L17.4445313,8.90625 L17.4679688,8.95898438 C17.565625,9.17773438 17.7541016,9.35058594 18.0333984,9.47753906 C18.3126953,9.60449219 18.659375,9.66796875 19.0734375,9.66796875 C19.6085938,9.66796875 20.0226563,9.53027344 20.315625,9.25488281 C20.6085938,8.97949219 20.7550781,8.60546875 20.7550781,8.1328125 L20.7550781,7.35351562 L20.7316406,7.35351562 C20.6105469,7.58007812 20.4542969,7.77539062 20.2628906,7.93945312 C20.0714844,8.10351562 19.8517578,8.23144531 19.6037109,8.32324219 C19.3556641,8.41503906 19.0851563,8.4609375 18.7921875,8.4609375 C18.2804688,8.4609375 17.8302734,8.33105469 17.4416016,8.07128906 C17.0529297,7.81152344 16.7501953,7.44628906 16.5333984,6.97558594 C16.3166016,6.50488281 16.2082031,5.953125 16.2082031,5.3203125 L16.2082031,5.31445312 C16.2082031,4.68164062 16.3185547,4.13183594 16.5392578,3.66503906 C16.7599609,3.19824219 17.065625,2.8359375 17.45625,2.578125 C17.846875,2.3203125 18.3,2.19140625 18.815625,2.19140625 C19.1046875,2.19140625 19.3703125,2.24023438 19.6125,2.33789062 C19.8546875,2.43554688 20.0705078,2.5703125 20.2599609,2.7421875 C20.4494141,2.9140625 20.6066406,3.11328125 20.7316406,3.33984375 L20.7550781,3.33984375 L20.7550781,2.30859375 L21.7746094,2.30859375 L21.7746094,8.23242188 C21.7746094,8.70507812 21.6652344,9.11621094 21.4464844,9.46582031 C21.2277344,9.81542969 20.9171875,10.0869141 20.5148438,10.2802734 C20.1125,10.4736328 19.6359375,10.5703125 19.0851563,10.5703125 Z M19.0148438,7.55859375 C19.3625,7.55859375 19.6662109,7.46582031 19.9259766,7.28027344 C20.1857422,7.09472656 20.3888672,6.83398438 20.5353516,6.49804688 C20.6818359,6.16210938 20.7550781,5.76953125 20.7550781,5.3203125 L20.7550781,5.31445312 C20.7550781,4.86523438 20.6818359,4.47460938 20.5353516,4.14257812 C20.3888672,3.81054688 20.1847656,3.55273438 19.9230469,3.36914062 C19.6613281,3.18554688 19.3585938,3.09375 19.0148438,3.09375 C18.6554688,3.09375 18.3429688,3.18457031 18.0773438,3.36621094 C17.8117188,3.54785156 17.6076172,3.8046875 17.4650391,4.13671875 C17.3224609,4.46875 17.2511719,4.86132812 17.2511719,5.31445312 L17.2511719,5.3203125 C17.2511719,5.78125 17.3224609,6.17871094 17.4650391,6.51269531 C17.6076172,6.84667969 17.8117188,7.10449219 18.0773438,7.28613281 C18.3429688,7.46777344 18.6554688,7.55859375 19.0148438,7.55859375 Z" id="Forma"></path>
        </g>
        <path d="M43.5241725,68.0189651 L76.4949189,68.0189651 C77.3985757,68.0189651 78.114501,67.7580501 78.6426948,67.2362201 C79.1708886,66.7143901 79.4349854,65.9952829 79.4349854,65.0788985 L79.4349854,62.1388319 L70.6529684,54.0059205 C70.2075038,53.585911 69.7206746,53.2740858 69.1924808,53.0704448 C68.6642871,52.8668038 68.1392752,52.7649834 67.6174452,52.7649834 C66.4974198,52.7649834 65.4728512,53.1722653 64.5437392,53.9868292 L55.4180781,62.0815579 L51.7716319,58.7978472 C50.9316129,58.021466 50.0152285,57.6332754 49.0224787,57.6332754 C48.6024692,57.6332754 48.1697322,57.7287321 47.7242675,57.9196455 C47.2788029,58.1105589 46.8460658,58.3905653 46.4260563,58.7596645 L40.5650146,63.876144 L40.5650146,65.0407158 C40.5650146,65.9698278 40.8291114,66.6984806 41.3573052,67.2266744 C41.885499,67.7548682 42.6077881,68.0189651 43.5241725,68.0189651 Z M51.8098146,53.9868292 C52.6625612,53.9868292 53.4453062,53.7736426 54.1580496,53.3472693 C54.870793,52.920896 55.4403513,52.3513376 55.8667246,51.6385942 C56.2930979,50.9258508 56.5062845,50.136742 56.5062845,49.2712679 C56.5062845,48.4057938 56.2930979,47.616685 55.8667246,46.9039416 C55.4403513,46.1911982 54.870793,45.6216398 54.1580496,45.1952665 C53.4453062,44.7688932 52.6625612,44.5557066 51.8098146,44.5557066 C50.9443404,44.5557066 50.1552317,44.7688932 49.4424883,45.1952665 C48.7297448,45.6216398 48.1601865,46.1911982 47.7338132,46.9039416 C47.3074399,47.616685 47.0942533,48.4057938 47.0942533,49.2712679 C47.0942533,50.136742 47.3074399,50.9258508 47.7338132,51.6385942 C48.1601865,52.3513376 48.7297448,52.920896 49.4424883,53.3472693 C50.1552317,53.7736426 50.9443404,53.9868292 51.8098146,53.9868292 Z M43.4859898,71.0735797 C41.4877627,71.0735797 39.9890924,70.5803867 38.9899789,69.5940007 C37.9908654,68.6076148 37.4913086,67.1343996 37.4913086,65.1743552 L37.4913086,41.8447361 C37.4913086,39.8719642 37.9908654,38.3923852 38.9899789,37.4059993 C39.9890924,36.4196133 41.4877627,35.9264203 43.4859898,35.9264203 L76.5140102,35.9264203 C78.5249648,35.9264203 80.026817,36.4227952 81.0195668,37.4155449 C82.0123165,38.4082947 82.5086914,39.8846918 82.5086914,41.8447361 L82.5086914,65.1743552 C82.5086914,67.1343996 82.0123165,68.6076148 81.0195668,69.5940007 C80.026817,70.5803867 78.5249648,71.0735797 76.5140102,71.0735797 L43.4859898,71.0735797 Z" id="photo-fill" fill="#E4CC03"></path>
    </g>
</svg>