<?xml version="1.0" encoding="UTF-8"?>
<svg width="60px" height="60px" viewBox="0 0 60 60" version="1.1" xmlns="http://www.w3.org/2000/svg" xmlns:xlink="http://www.w3.org/1999/xlink">
    <title>3 Iconos/Relleno/document-pdf-fill</title>
    <g id="3-Iconos/Relleno/document-pdf-fill" stroke="none" stroke-width="1" fill="none" fill-rule="evenodd">
        <path d="M18.33225,6.445125 C16.062,6.445125 14.35875,7.024125 13.224,8.181375 L13.224,8.181375 C12.0885,9.338625 11.52075,11.059875 11.52075,13.345125 L11.52075,13.345125 L11.52075,46.677375 C11.52075,48.976875 12.0885,50.698125 13.224,51.841125 L13.224,51.841125 C14.35875,52.984125 16.062,53.554875 18.33225,53.554875 L18.33225,53.554875 L41.66775,53.554875 C43.93725,53.554875 45.6405,52.979625 46.776,51.830625 L46.776,51.830625 C47.9115,50.680125 48.47925,48.962625 48.47925,46.677375 L48.47925,46.677375 L48.47925,26.726625 L32.57025,26.726625 C29.802,26.726625 28.41825,25.342125 28.41825,22.573125 L28.41825,22.573125 L28.41825,6.445125 L18.33225,6.445125 Z M31.428,22.528875 C31.428,23.320125 31.83075,23.716125 32.637,23.716125 L32.637,23.716125 L48.21525,23.716125 C48.1425,23.261625 47.95125,22.807875 47.64375,22.353375 L47.64375,22.353375 C47.33625,21.899625 46.91925,21.401625 46.39125,20.859375 L46.39125,20.859375 L34.28475,8.533125 C33.77175,8.005125 33.28125,7.584375 32.8125,7.269375 L32.8125,7.269375 C32.34375,6.954375 31.88175,6.760875 31.428,6.686625 L31.428,6.686625 L31.428,22.528875 Z M35.4722812,37.0094063 L41.3250937,37.0094063 L41.3250937,38.6190938 L37.5882187,38.6190938 L37.5882187,40.6328438 L40.9885312,40.6328438 L40.9885312,42.1937813 L37.5882187,42.1937813 L37.5882187,45.3390938 L35.4722812,45.3390938 L35.4722812,37.0094063 Z M26.6747812,37.0094063 L30.1219687,37.0094063 C31.0369687,37.0094063 31.7869687,37.1744063 32.3710312,37.5062813 L32.3710312,37.5062813 C32.9588437,37.8381563 33.3891562,38.3144063 33.6704062,38.9303438 L33.6704062,38.9303438 C33.9525937,39.5462813 34.0950937,40.2850313 34.0950937,41.1390938 L34.0950937,41.1390938 C34.0950937,42.0053438 33.9488437,42.7515938 33.6647812,43.3797188 L33.6647812,43.3797188 C33.3957187,43.9919063 32.9372812,44.5009688 32.3569687,44.8337813 L32.3569687,44.8337813 C31.7729062,45.1703438 31.0257187,45.3390938 30.1219687,45.3390938 L30.1219687,45.3390938 L26.6747812,45.3390938 L26.6747812,37.0094063 Z M18.6741562,37.0094063 L22.3857187,37.0094063 C23.0625937,37.0094063 23.6288437,37.1397188 24.0825937,37.4050313 L24.0825937,37.4050313 C24.5391562,37.6665938 24.8822812,38.0153438 25.1138437,38.4512813 L25.1138437,38.4512813 C25.3472812,38.8900313 25.4635312,39.3728438 25.4635312,39.8987813 L25.4635312,39.8987813 C25.4635312,40.4275313 25.3435312,40.9103438 25.1082187,41.3397188 L25.1082187,41.3397188 C24.8691562,41.7775313 24.5082187,42.1356563 24.0675937,42.3709688 L24.0675937,42.3709688 C23.6072812,42.6081563 23.1000937,42.7394063 22.5835312,42.7553438 L22.5835312,42.7553438 L20.7900937,42.7553438 L20.7900937,45.3390938 L18.6741562,45.3390938 L18.6741562,37.0094063 Z M21.9000937,38.5469062 L21.9000937,38.5497187 L20.7844687,38.5497187 L20.7844687,41.2469062 L21.9000937,41.2469062 C22.1607187,41.2534687 22.4204062,41.1990937 22.6557187,41.0875312 L22.6557187,41.0875312 C22.8629062,40.9872187 23.0354062,40.8269062 23.1497812,40.6281562 L23.1497812,40.6281562 C23.2679062,40.4031562 23.3260312,40.1519062 23.3185312,39.8987812 L23.3185312,39.8987812 C23.3185312,39.4619062 23.1938437,39.1253437 22.9407187,38.8956562 L22.9407187,38.8956562 C22.6707187,38.6687812 22.3304062,38.5440937 21.9797812,38.5440937 L21.9797812,38.5440937 C21.9535312,38.5440937 21.9263437,38.5450312 21.9000937,38.5469062 L21.9000937,38.5469062 Z M29.7872812,38.5965937 L29.7854062,38.5984687 L28.7916562,38.5984687 L28.7916562,43.7462812 L29.7854062,43.7462812 C30.1622812,43.7462812 30.4819687,43.6937812 30.7529062,43.5887812 L30.7529062,43.5887812 C31.0116562,43.4912812 31.2404062,43.3253437 31.4147812,43.1097187 L31.4147812,43.1097187 C31.5985312,42.8734687 31.7288437,42.6006562 31.7991562,42.3109687 L31.7991562,42.3109687 C31.8797812,41.9903437 31.9210312,41.6162812 31.9210312,41.1887812 L31.9210312,41.1887812 C31.9210312,40.6187812 31.8479062,40.1425312 31.6997812,39.7553437 L31.6997812,39.7553437 C31.5741562,39.3972187 31.3304062,39.0906562 31.0088437,38.8862812 L31.0088437,38.8862812 C30.6657187,38.6950312 30.2794687,38.5937812 29.8866562,38.5937812 L29.8866562,38.5937812 C29.8538437,38.5937812 29.8210312,38.5947187 29.7872812,38.5965937 L29.7872812,38.5965937 Z" id="document-pdf-fill" fill="#E60000"></path>
    </g>
</svg>