<?xml version="1.0" encoding="UTF-8"?>
<svg width="120px" height="120px" viewBox="0 0 120 120" version="1.1" xmlns="http://www.w3.org/2000/svg" xmlns:xlink="http://www.w3.org/1999/xlink">
    <title>3 Iconos/Sin categoría/photo-fill</title>
    <g id="3-Iconos/Sin-categoría/photo-fill" stroke="none" stroke-width="1" fill="none" fill-rule="evenodd">
        <polygon id="Recuadro" fill="#F1EFEB" points="0 0 120 0 120 120 0 120"></polygon>
        <path d="M36.3152344,100.877344 L36.3152344,90.73125 L37.5808594,90.73125 L37.5808594,100.877344 L36.3152344,100.877344 Z M40.0136719,100.877344 L40.0136719,93.2976563 L41.2371094,93.2976563 L41.2371094,94.4507813 L41.3496094,94.4507813 C41.5183594,94.0429688 41.7773438,93.7265625 42.1265625,93.5015625 C42.4757813,93.2765625 42.8988281,93.1640625 43.3957031,93.1640625 C43.7378906,93.1640625 44.0449219,93.2203125 44.3167969,93.3328125 C44.5886719,93.4453125 44.8230469,93.6011719 45.0199219,93.8003906 C45.2167969,93.9996094 45.3738281,94.2304688 45.4910156,94.4929688 L45.6035156,94.4929688 C45.7394531,94.2257813 45.9222656,93.9925781 46.1519531,93.7933594 C46.3816406,93.5941406 46.6476563,93.4394531 46.95,93.3292969 C47.2523438,93.2191406 47.5769531,93.1640625 47.9238281,93.1640625 C48.4394531,93.1640625 48.8765625,93.2601563 49.2351563,93.4523438 C49.59375,93.6445313 49.8667969,93.9246094 50.0542969,94.2925781 C50.2417969,94.6605469 50.3355469,95.109375 50.3355469,95.6390625 L50.3355469,100.877344 L49.1121094,100.877344 L49.1121094,95.9203125 C49.1121094,95.5453125 49.0546875,95.2347656 48.9398438,94.9886719 C48.825,94.7425781 48.6503906,94.5574219 48.4160156,94.4332031 C48.1816406,94.3089844 47.8863281,94.246875 47.5300781,94.246875 C47.1785156,94.246875 46.8714844,94.3265625 46.6089844,94.4859375 C46.3464844,94.6453125 46.1425781,94.8574219 45.9972656,95.1222656 C45.8519531,95.3871094 45.7792969,95.68125 45.7792969,96.0046875 L45.7792969,100.877344 L44.5558594,100.877344 L44.5558594,95.7304688 C44.5558594,95.4304688 44.4914063,95.1691406 44.3625,94.9464844 C44.2335938,94.7238281 44.0507813,94.5515625 43.8140625,94.4296875 C43.5773438,94.3078125 43.2996094,94.246875 42.9808594,94.246875 C42.6527344,94.246875 42.35625,94.3335938 42.0914063,94.5070313 C41.8265625,94.6804688 41.6179688,94.9136719 41.465625,95.2066406 C41.3132813,95.4996094 41.2371094,95.8242188 41.2371094,96.1804688 L41.2371094,100.877344 L40.0136719,100.877344 Z M54.6246094,101.010938 C54.1464844,101.010938 53.7164062,100.919531 53.334375,100.736719 C52.9523437,100.553906 52.65,100.29375 52.4273437,99.95625 C52.2046875,99.61875 52.0933594,99.2203125 52.0933594,98.7609375 L52.0933594,98.746875 C52.0933594,98.296875 52.2011719,97.9113281 52.4167969,97.5902344 C52.6324219,97.2691406 52.9464844,97.0171875 53.3589844,96.834375 C53.7714844,96.6515625 54.2707031,96.54375 54.8566406,96.5109375 L57.6410156,96.3421875 L57.6410156,97.3195313 L55.0042969,97.4882813 C54.4277344,97.5210938 54.0070312,97.640625 53.7421875,97.846875 C53.4773437,98.053125 53.3449219,98.34375 53.3449219,98.71875 L53.3449219,98.7328125 C53.3449219,99.1171875 53.4902344,99.4160156 53.7808594,99.6292969 C54.0714844,99.8425781 54.4371094,99.9492188 54.8777344,99.9492188 C55.2949219,99.9492188 55.6652344,99.8660156 55.9886719,99.6996094 C56.3121094,99.5332031 56.5664062,99.3070313 56.7515625,99.0210938 C56.9367187,98.7351563 57.0292969,98.4117188 57.0292969,98.0507813 L57.0292969,95.6882813 C57.0292969,95.2195313 56.8875,94.8621094 56.6039062,94.6160156 C56.3203125,94.3699219 55.8949219,94.246875 55.3277344,94.246875 C54.8730469,94.246875 54.5003906,94.3277344 54.2097656,94.4894531 C53.9191406,94.6511719 53.7246094,94.8796875 53.6261719,95.175 L53.6191406,95.1960938 L52.3957031,95.1960938 L52.4027344,95.1539063 C52.4683594,94.7554688 52.6335937,94.4074219 52.8984375,94.1097656 C53.1632812,93.8121094 53.5066406,93.5800781 53.9285156,93.4136719 C54.3503906,93.2472656 54.8308594,93.1640625 55.3699219,93.1640625 C55.9886719,93.1640625 56.5125,93.2648438 56.9414062,93.4664063 C57.3703125,93.6679688 57.6960937,93.9574219 57.91875,94.3347656 C58.1414062,94.7121094 58.2527344,95.1632813 58.2527344,95.6882813 L58.2527344,100.877344 L57.0292969,100.877344 L57.0292969,99.759375 L56.9167969,99.759375 C56.7574219,100.026563 56.5640625,100.253906 56.3367187,100.441406 C56.109375,100.628906 55.8527344,100.770703 55.5667969,100.866797 C55.2808594,100.962891 54.9667969,101.010938 54.6246094,101.010938 Z M63.6105469,103.549219 C63.0011719,103.549219 62.4691406,103.463672 62.0144531,103.292578 C61.5597656,103.121484 61.1976562,102.880078 60.928125,102.568359 C60.6585937,102.256641 60.4910156,101.894531 60.4253906,101.482031 L60.4394531,101.475 L61.7050781,101.475 L61.7121094,101.482031 C61.7777344,101.767969 61.9746094,102.003516 62.3027344,102.188672 C62.6308594,102.373828 63.0667969,102.466406 63.6105469,102.466406 C64.2902344,102.466406 64.8210937,102.312891 65.203125,102.005859 C65.5851562,101.698828 65.7761719,101.266406 65.7761719,100.708594 L65.7761719,99.1757813 L65.6636719,99.1757813 C65.5042969,99.4523438 65.3050781,99.6890625 65.0660156,99.8859375 C64.8269531,100.082813 64.5574219,100.231641 64.2574219,100.332422 C63.9574219,100.433203 63.6339844,100.483594 63.2871094,100.483594 C62.6355469,100.483594 62.071875,100.327734 61.5960937,100.016016 C61.1203125,99.7042969 60.7535156,99.2742188 60.4957031,98.7257813 C60.2378906,98.1773438 60.1089844,97.5492188 60.1089844,96.8414063 L60.1089844,96.8273438 C60.1089844,96.1195313 60.2390625,95.4902344 60.4992187,94.9394531 C60.759375,94.3886719 61.1285156,93.9550781 61.6066406,93.6386719 C62.0847656,93.3222656 62.6542969,93.1640625 63.3152344,93.1640625 C63.6714844,93.1640625 63.9996094,93.2203125 64.2996094,93.3328125 C64.5996094,93.4453125 64.865625,93.6046875 65.0976562,93.8109375 C65.3296875,94.0171875 65.5230469,94.2632813 65.6777344,94.5492188 L65.7621094,94.5492188 L65.7621094,93.2976563 L66.9855469,93.2976563 L66.9855469,100.771875 C66.9855469,101.334375 66.8484375,101.824219 66.5742187,102.241406 C66.3,102.658594 65.9097656,102.980859 65.4035156,103.208203 C64.8972656,103.435547 64.2996094,103.549219 63.6105469,103.549219 Z M63.5542969,99.4007813 C64.0230469,99.4007813 64.425,99.2917969 64.7601562,99.0738281 C65.0953125,98.8558594 65.353125,98.5546875 65.5335937,98.1703125 C65.7140625,97.7859375 65.8042969,97.3429688 65.8042969,96.8414063 L65.8042969,96.8273438 C65.8042969,96.3257813 65.7140625,95.8804688 65.5335937,95.4914063 C65.353125,95.1023438 65.0953125,94.7976563 64.7601562,94.5773438 C64.425,94.3570313 64.0230469,94.246875 63.5542969,94.246875 C63.0855469,94.246875 62.6882812,94.3570313 62.3625,94.5773438 C62.0367187,94.7976563 61.7882812,95.1023438 61.6171875,95.4914063 C61.4460937,95.8804688 61.3605469,96.3257813 61.3605469,96.8273438 L61.3605469,96.8414063 C61.3605469,97.3429688 61.4460937,97.7859375 61.6171875,98.1703125 C61.7882812,98.5546875 62.0367187,98.8558594 62.3625,99.0738281 C62.6882812,99.2917969 63.0855469,99.4007813 63.5542969,99.4007813 Z M72.3574219,101.010938 C71.6355469,101.010938 71.015625,100.851563 70.4976562,100.532813 C69.9796875,100.214063 69.58125,99.7628906 69.3023437,99.1792969 C69.0234375,98.5957031 68.8839844,97.9078125 68.8839844,97.115625 L68.8839844,97.1085938 C68.8839844,96.3257813 69.0234375,95.6390625 69.3023437,95.0484375 C69.58125,94.4578125 69.9761719,93.9960938 70.4871094,93.6632813 C70.9980469,93.3304688 71.5957031,93.1640625 72.2800781,93.1640625 C72.9691406,93.1640625 73.5609375,93.3234375 74.0554687,93.6421875 C74.55,93.9609375 74.9296875,94.4050781 75.1945312,94.9746094 C75.459375,95.5441406 75.5917969,96.20625 75.5917969,96.9609375 L75.5917969,97.4390625 L69.5167969,97.4390625 L69.5167969,96.4617188 L74.9660156,96.4617188 L74.3613281,97.3546875 L74.3613281,96.8695313 C74.3613281,96.2742188 74.2722656,95.784375 74.0941406,95.4 C73.9160156,95.015625 73.6699219,94.7285156 73.3558594,94.5386719 C73.0417969,94.3488281 72.6808594,94.2539063 72.2730469,94.2539063 C71.8652344,94.2539063 71.5007812,94.3535156 71.1796875,94.5527344 C70.8585937,94.7519531 70.6042969,95.0460938 70.4167969,95.4351563 C70.2292969,95.8242188 70.1355469,96.3023438 70.1355469,96.8695313 L70.1355469,97.3546875 C70.1355469,97.89375 70.2269531,98.3542969 70.4097656,98.7363281 C70.5925781,99.1183594 70.8527344,99.4113281 71.1902344,99.6152344 C71.5277344,99.8191406 71.9261719,99.9210938 72.3855469,99.9210938 C72.7277344,99.9210938 73.0253906,99.8742188 73.2785156,99.7804688 C73.5316406,99.6867188 73.7402344,99.5671875 73.9042969,99.421875 C74.0683594,99.2765625 74.1832031,99.1289063 74.2488281,98.9789063 L74.2769531,98.915625 L75.5003906,98.915625 L75.4863281,98.971875 C75.4207031,99.2296875 75.3046875,99.4792969 75.1382812,99.7207031 C74.971875,99.9621094 74.7574219,100.180078 74.4949219,100.374609 C74.2324219,100.569141 73.921875,100.723828 73.5632812,100.838672 C73.2046875,100.953516 72.8027344,101.010938 72.3574219,101.010938 Z M77.4902344,100.877344 L77.4902344,93.2976563 L78.7136719,93.2976563 L78.7136719,94.4367188 L78.8261719,94.4367188 C79.0183594,94.0335938 79.2949219,93.7207031 79.6558594,93.4980469 C80.0167969,93.2753906 80.4761719,93.1640625 81.0339844,93.1640625 C81.8871094,93.1640625 82.5421875,93.4066406 82.9992188,93.8917969 C83.45625,94.3769531 83.6847656,95.0695313 83.6847656,95.9695313 L83.6847656,100.877344 L82.4613281,100.877344 L82.4613281,96.2648438 C82.4613281,95.5804688 82.3171875,95.0730469 82.0289063,94.7425781 C81.740625,94.4121094 81.2941406,94.246875 80.6894531,94.246875 C80.2863281,94.246875 79.9371094,94.3335938 79.6417969,94.5070313 C79.3464844,94.6804688 79.1179688,94.9265625 78.95625,95.2453125 C78.7945313,95.5640625 78.7136719,95.9460938 78.7136719,96.3914063 L78.7136719,100.877344 L77.4902344,100.877344 Z" id="Texto" fill="#1D1D1F" fill-rule="nonzero"></path>
        <path d="M40.2366412,71.173527 L79.7862595,71.173527 C80.870229,71.173527 81.7290076,70.8605499 82.3625954,70.2345957 C82.9961832,69.6086415 83.3129771,68.746046 83.3129771,67.6468094 L83.3129771,64.1200918 L72.778626,54.3643667 C72.2442748,53.8605499 71.6603053,53.4865041 71.0267176,53.2422292 C70.3931298,52.9979544 69.7633588,52.875817 69.1374046,52.875817 C67.7938931,52.875817 66.5648855,53.3643667 65.4503817,54.3414659 L54.5038168,64.0513896 L50.129771,60.1124583 C49.1221374,59.1811605 48.0229008,58.7155117 46.8320611,58.7155117 C46.3282443,58.7155117 45.8091603,58.8300155 45.2748092,59.0590231 C44.740458,59.2880308 44.221374,59.6239086 43.7175573,60.0666567 L36.6870229,66.2040613 L36.6870229,67.6010079 C36.6870229,68.7155117 37.0038168,69.5895575 37.6374046,70.2231453 C38.2709924,70.8567331 39.1374046,71.173527 40.2366412,71.173527 Z M50.1755725,54.3414659 C51.1984733,54.3414659 52.1374046,54.0857407 52.9923664,53.5742903 C53.8473282,53.0628399 54.5305344,52.3796338 55.0419847,51.524672 C55.5534351,50.6697102 55.8091603,49.7231453 55.8091603,48.6849773 C55.8091603,47.6468094 55.5534351,46.7002445 55.0419847,45.8452827 C54.5305344,44.9903208 53.8473282,44.3071147 52.9923664,43.7956644 C52.1374046,43.284214 51.1984733,43.0284888 50.1755725,43.0284888 C49.1374046,43.0284888 48.1908397,43.284214 47.3358779,43.7956644 C46.480916,44.3071147 45.7977099,44.9903208 45.2862595,45.8452827 C44.7748092,46.7002445 44.519084,47.6468094 44.519084,48.6849773 C44.519084,49.7231453 44.7748092,50.6697102 45.2862595,51.524672 C45.7977099,52.3796338 46.480916,53.0628399 47.3358779,53.5742903 C48.1908397,54.0857407 49.1374046,54.3414659 50.1755725,54.3414659 Z M40.1908397,74.8376491 C37.7938931,74.8376491 35.9961832,74.246046 34.7977099,73.0628399 C33.5992366,71.8796338 33,70.1124583 33,67.7613132 L33,39.7765804 C33,37.4101682 33.5992366,35.635359 34.7977099,34.4521529 C35.9961832,33.2689468 37.7938931,32.6773437 40.1908397,32.6773437 L79.8091603,32.6773437 C82.221374,32.6773437 84.0229008,33.2727636 85.2137405,34.4636033 C86.4045802,35.654443 87,37.4254354 87,39.7765804 L87,67.7613132 C87,70.1124583 86.4045802,71.8796338 85.2137405,73.0628399 C84.0229008,74.246046 82.221374,74.8376491 79.8091603,74.8376491 L40.1908397,74.8376491 Z" id="photo-fill" fill="#E5CC00"></path>
    </g>
</svg>