<?xml version="1.0" encoding="UTF-8"?>
<svg width="60px" height="60px" viewBox="0 0 60 60" version="1.1" xmlns="http://www.w3.org/2000/svg" xmlns:xlink="http://www.w3.org/1999/xlink">
    <title>3 Iconos/Relleno/folder-fill</title>
    <g id="3-Iconos/Relleno/folder-fill" stroke="none" stroke-width="1" fill="none" fill-rule="evenodd">
        <path d="M5.05004883,43.293457 L5.05004883,25.2758789 L54.9499512,25.2758789 L54.9499512,43.293457 C54.9499512,45.5639648 54.4006348,47.2668457 53.302002,48.4020996 C52.2033691,49.5373535 50.6726074,50.1049805 48.7097168,50.1049805 L11.9494629,50.1049805 C9.6496582,50.1049805 7.92480469,49.5373535 6.77490234,48.4020996 C5.625,47.2668457 5.05004883,45.5639648 5.05004883,43.293457 Z M5.05004883,22.3974609 L5.05004883,16.5087891 C5.05004883,14.296875 5.57739258,12.6416016 6.63208008,11.5429688 C7.68676758,10.4443359 9.1809082,9.89501953 11.114502,9.89501953 L17.376709,9.89501953 C18.0944824,9.89501953 18.7207031,9.94628906 19.2553711,10.0488281 C19.7900391,10.1513672 20.2807617,10.3198242 20.7275391,10.5541992 C21.1743164,10.7885742 21.6394043,11.1108398 22.1228027,11.5209961 L23.4631348,12.6196289 C24.0197754,13.0883789 24.5544434,13.4216309 25.0671387,13.6193848 C25.579834,13.8171387 26.2097168,13.9160156 26.9567871,13.9160156 L48.0505371,13.9160156 C50.3356934,13.9160156 52.0568848,14.4873047 53.2141113,15.6298828 C54.3713379,16.7724609 54.9499512,18.4716797 54.9499512,20.7275391 L54.9499512,22.3974609 L5.05004883,22.3974609 Z" id="folder-fill" fill="#32ADE6"></path>
    </g>
</svg>