<?xml version="1.0" encoding="UTF-8"?>
<svg width="120px" height="120px" viewBox="0 0 120 120" version="1.1" xmlns="http://www.w3.org/2000/svg" xmlns:xlink="http://www.w3.org/1999/xlink">
    <title>3 Iconos/Sin categoría/film</title>
    <g id="3-Iconos/Sin-categoría/film" stroke="none" stroke-width="1" fill="none" fill-rule="evenodd">
        <polygon id="Recuadro" fill="#EBEBF1" points="0 0 120 0 120 120 0 120"></polygon>
        <path d="M44.9425781,101.088867 L41.2019531,90.9427734 L42.5308594,90.9427734 L45.5121094,99.4505859 L45.6246094,99.4505859 L48.6058594,90.9427734 L49.9347656,90.9427734 L46.1941406,101.088867 L44.9425781,101.088867 Z M51.5871094,101.088867 L51.5871094,93.5091797 L52.8105469,93.5091797 L52.8105469,101.088867 L51.5871094,101.088867 Z M52.2058594,92.0466797 C51.9761719,92.0466797 51.778125,91.9634766 51.6117188,91.7970703 C51.4453125,91.6306641 51.3621094,91.4326172 51.3621094,91.2029297 C51.3621094,90.9685547 51.4453125,90.7693359 51.6117188,90.6052734 C51.778125,90.4412109 51.9761719,90.3591797 52.2058594,90.3591797 C52.4402344,90.3591797 52.6394531,90.4412109 52.8035156,90.6052734 C52.9675781,90.7693359 53.0496094,90.9685547 53.0496094,91.2029297 C53.0496094,91.4326172 52.9675781,91.6306641 52.8035156,91.7970703 C52.6394531,91.9634766 52.4402344,92.0466797 52.2058594,92.0466797 Z M57.9152344,101.222461 C57.2777344,101.222461 56.7199219,101.060742 56.2417969,100.737305 C55.7636719,100.413867 55.3933594,99.9580078 55.1308594,99.3697266 C54.8683594,98.7814453 54.7371094,98.0935547 54.7371094,97.3060547 L54.7371094,97.2919922 C54.7371094,96.4998047 54.8683594,95.8107422 55.1308594,95.2248047 C55.3933594,94.6388672 55.7625,94.1841797 56.2382813,93.8607422 C56.7140625,93.5373047 57.2730469,93.3755859 57.9152344,93.3755859 C58.2621094,93.3755859 58.5890625,93.4306641 58.8960938,93.5408203 C59.203125,93.6509766 59.4761719,93.8044922 59.7152344,94.0013672 C59.9542969,94.1982422 60.1417969,94.4326172 60.2777344,94.7044922 L60.3902344,94.7044922 L60.3902344,90.4998047 L61.6136719,90.4998047 L61.6136719,101.088867 L60.3902344,101.088867 L60.3902344,99.8794922 L60.2777344,99.8794922 C60.1230469,100.160742 59.9285156,100.400977 59.6941406,100.600195 C59.4597656,100.799414 59.1925781,100.95293 58.8925781,101.060742 C58.5925781,101.168555 58.2667969,101.222461 57.9152344,101.222461 Z M58.1964844,100.139648 C58.6558594,100.139648 59.0519531,100.024805 59.3847656,99.7951172 C59.7175781,99.5654297 59.9730469,99.2384766 60.1511719,98.8142578 C60.3292969,98.3900391 60.4183594,97.8873047 60.4183594,97.3060547 L60.4183594,97.2919922 C60.4183594,96.7060547 60.3292969,96.2021484 60.1511719,95.7802734 C59.9730469,95.3583984 59.7175781,95.0326172 59.3847656,94.8029297 C59.0519531,94.5732422 58.6558594,94.4583984 58.1964844,94.4583984 C57.7371094,94.4583984 57.3421875,94.5720703 57.0117188,94.7994141 C56.68125,95.0267578 56.428125,95.3513672 56.2523438,95.7732422 C56.0765625,96.1951172 55.9886719,96.7013672 55.9886719,97.2919922 L55.9886719,97.3060547 C55.9886719,97.8919922 56.0765625,98.3970703 56.2523438,98.8212891 C56.428125,99.2455078 56.68125,99.5712891 57.0117188,99.7986328 C57.3421875,100.025977 57.7371094,100.139648 58.1964844,100.139648 Z M67.0558594,101.222461 C66.3339844,101.222461 65.7140625,101.063086 65.1960938,100.744336 C64.678125,100.425586 64.2796875,99.9744141 64.0007813,99.3908203 C63.721875,98.8072266 63.5824219,98.1193359 63.5824219,97.3271484 L63.5824219,97.3201172 C63.5824219,96.5373047 63.721875,95.8505859 64.0007813,95.2599609 C64.2796875,94.6693359 64.6746094,94.2076172 65.1855469,93.8748047 C65.6964844,93.5419922 66.2941406,93.3755859 66.9785156,93.3755859 C67.6675781,93.3755859 68.259375,93.5349609 68.7539062,93.8537109 C69.2484375,94.1724609 69.628125,94.6166016 69.8929687,95.1861328 C70.1578125,95.7556641 70.2902344,96.4177734 70.2902344,97.1724609 L70.2902344,97.6505859 L64.2152344,97.6505859 L64.2152344,96.6732422 L69.6644531,96.6732422 L69.0597656,97.5662109 L69.0597656,97.0810547 C69.0597656,96.4857422 68.9707031,95.9958984 68.7925781,95.6115234 C68.6144531,95.2271484 68.3683594,94.9400391 68.0542969,94.7501953 C67.7402344,94.5603516 67.3792969,94.4654297 66.9714844,94.4654297 C66.5636719,94.4654297 66.1992188,94.5650391 65.878125,94.7642578 C65.5570312,94.9634766 65.3027344,95.2576172 65.1152344,95.6466797 C64.9277344,96.0357422 64.8339844,96.5138672 64.8339844,97.0810547 L64.8339844,97.5662109 C64.8339844,98.1052734 64.9253906,98.5658203 65.1082031,98.9478516 C65.2910156,99.3298828 65.5511719,99.6228516 65.8886719,99.8267578 C66.2261719,100.030664 66.6246094,100.132617 67.0839844,100.132617 C67.4261719,100.132617 67.7238281,100.085742 67.9769531,99.9919922 C68.2300781,99.8982422 68.4386719,99.7787109 68.6027344,99.6333984 C68.7667969,99.4880859 68.8816406,99.3404297 68.9472656,99.1904297 L68.9753906,99.1271484 L70.1988281,99.1271484 L70.1847656,99.1833984 C70.1191406,99.4412109 70.003125,99.6908203 69.8367188,99.9322266 C69.6703125,100.173633 69.4558594,100.391602 69.1933594,100.586133 C68.9308594,100.780664 68.6203125,100.935352 68.2617188,101.050195 C67.903125,101.165039 67.5011719,101.222461 67.0558594,101.222461 Z M75.3035156,101.222461 C74.5863281,101.222461 73.9664063,101.064258 73.44375,100.747852 C72.9210937,100.431445 72.5179687,99.9802734 72.234375,99.3943359 C71.9507813,98.8083984 71.8089844,98.1123047 71.8089844,97.3060547 L71.8089844,97.2919922 C71.8089844,96.4810547 71.9507813,95.7826172 72.234375,95.1966797 C72.5179687,94.6107422 72.9210937,94.1607422 73.44375,93.8466797 C73.9664063,93.5326172 74.5863281,93.3755859 75.3035156,93.3755859 C76.0253906,93.3755859 76.6464844,93.5326172 77.1667969,93.8466797 C77.6871094,94.1607422 78.0890625,94.6107422 78.3726563,95.1966797 C78.65625,95.7826172 78.7980469,96.4810547 78.7980469,97.2919922 L78.7980469,97.3060547 C78.7980469,98.1123047 78.65625,98.8083984 78.3726563,99.3943359 C78.0890625,99.9802734 77.6871094,100.431445 77.1667969,100.747852 C76.6464844,101.064258 76.0253906,101.222461 75.3035156,101.222461 Z M75.3035156,100.139648 C75.7816406,100.139648 76.1871094,100.027148 76.5199219,99.8021484 C76.8527344,99.5771484 77.1070313,99.2537109 77.2828125,98.8318359 C77.4585938,98.4099609 77.5464844,97.9013672 77.5464844,97.3060547 L77.5464844,97.2919922 C77.5464844,96.6919922 77.4585938,96.1810547 77.2828125,95.7591797 C77.1070313,95.3373047 76.8527344,95.0150391 76.5199219,94.7923828 C76.1871094,94.5697266 75.7816406,94.4583984 75.3035156,94.4583984 C74.8253906,94.4583984 74.4199219,94.5697266 74.0871094,94.7923828 C73.7542969,95.0150391 73.5,95.3373047 73.3242188,95.7591797 C73.1484375,96.1810547 73.0605469,96.6919922 73.0605469,97.2919922 L73.0605469,97.3060547 C73.0605469,97.9013672 73.1484375,98.4099609 73.3242188,98.8318359 C73.5,99.2537109 73.7542969,99.5771484 74.0871094,99.8021484 C74.4199219,100.027148 74.8253906,100.139648 75.3035156,100.139648 Z" id="Texto" fill="#1D1D1F" fill-rule="nonzero"></path>
        <path d="M38.296429,75.7609338 C36.7059972,75.7609338 35.4256511,75.280952 34.4553907,74.3209883 C33.4851302,73.3610246 33,72.0910344 33,70.5110177 L33,38.130617 C33,36.5513104 33.4851302,35.2828588 34.4553907,34.3252621 C35.4256511,33.3676655 36.7059972,32.8888672 38.296429,32.8888672 L81.6964698,32.8888672 C83.3020508,32.8888672 84.5873678,33.3676655 85.5524207,34.3252621 C86.5174736,35.2828588 87,36.5513104 87,38.130617 L87,70.5110177 C87,72.0910344 86.5174736,73.3610246 85.5524207,74.3209883 C84.5873678,75.280952 83.3020508,75.7609338 81.6964698,75.7609338 L38.296429,75.7609338 Z M38.3479127,71.1813708 L40.8432739,71.1813708 C41.1571469,71.1813708 41.4090027,71.0813031 41.5988415,70.8811676 C41.7886802,70.6810322 41.8835995,70.4291172 41.8835995,70.1254226 L41.8835995,67.8778932 C41.8835995,67.5741986 41.7886802,67.3260709 41.5988415,67.1335101 C41.4090027,66.9409492 41.1571469,66.8446688 40.8432739,66.8446688 L38.2857772,66.8446688 C37.9766384,66.8446688 37.7233623,66.9409492 37.525949,67.1335101 C37.3285356,67.3260709 37.229829,67.5741986 37.229829,67.8778932 L37.229829,70.0789097 C37.229829,70.8138838 37.6025236,71.1813708 38.3479127,71.1813708 Z M38.2857772,63.8106817 L40.8432739,63.8106817 C41.1571469,63.8106817 41.4090027,63.7068266 41.5988415,63.4991166 C41.7886802,63.2914065 41.8835995,63.0461193 41.8835995,62.7632549 L41.8835995,60.554072 C41.8835995,60.2399623 41.7886802,59.98426 41.5988415,59.786965 C41.4090027,59.58967 41.1571469,59.4910225 40.8432739,59.4910225 L38.2857772,59.4910225 C37.9766384,59.4910225 37.7233623,59.58967 37.525949,59.786965 C37.3285356,59.98426 37.229829,60.2399623 37.229829,60.554072 L37.229829,62.7632549 C37.229829,63.0461193 37.3285356,63.2914065 37.525949,63.4991166 C37.7233623,63.7068266 37.9766384,63.8106817 38.2857772,63.8106817 Z M38.2857772,56.4627164 L40.8432739,56.4627164 C41.1571469,56.4627164 41.4090027,56.3614651 41.5988415,56.1589626 C41.7886802,55.9564601 41.8835995,55.7160253 41.8835995,55.4376583 L41.8835995,53.2213742 C41.8835995,52.9119987 41.7886802,52.6586634 41.5988415,52.4613685 C41.4090027,52.2640735 41.1571469,52.165426 40.8432739,52.165426 L38.2857772,52.165426 C37.9766384,52.165426 37.7233623,52.2640735 37.525949,52.4613685 C37.3285356,52.6586634 37.229829,52.9119987 37.229829,53.2213742 L37.229829,55.4376583 C37.229829,55.7160253 37.3285356,55.9564601 37.525949,56.1589626 C37.7233623,56.3614651 37.9766384,56.4627164 38.2857772,56.4627164 Z M38.2857772,49.1683651 L40.8432739,49.1683651 C41.1571469,49.1683651 41.4090027,49.0671138 41.5988415,48.8646113 C41.7886802,48.6621088 41.8835995,48.4216741 41.8835995,48.1433071 L41.8835995,45.9114003 C41.8835995,45.5972907 41.7886802,45.3415883 41.5988415,45.1442934 C41.4090027,44.9469984 41.1571469,44.8483509 40.8432739,44.8483509 L38.2857772,44.8483509 C37.9766384,44.8483509 37.7233623,44.9469984 37.525949,45.1442934 C37.3285356,45.3415883 37.229829,45.5972907 37.229829,45.9114003 L37.229829,48.1433071 C37.229829,48.4216741 37.3285356,48.6621088 37.525949,48.8646113 C37.7233623,49.0671138 37.9766384,49.1683651 38.2857772,49.1683651 Z M38.2857772,41.7834736 L40.8432739,41.7834736 C41.1571469,41.7834736 41.4090027,41.6845894 41.5988415,41.486821 C41.7886802,41.2890526 41.8835995,41.0487362 41.8835995,40.7658718 L41.8835995,38.5027198 C41.8835995,38.1886101 41.7886802,37.9340913 41.5988415,37.7391634 C41.4090027,37.5442355 41.1571469,37.4467715 40.8432739,37.4467715 L38.3479127,37.4467715 C37.6025236,37.4467715 37.229829,37.8194661 37.229829,38.5648553 L37.229829,40.7658718 C37.229829,41.0487362 37.3285356,41.2890526 37.525949,41.486821 C37.7233623,41.6845894 37.9766384,41.7834736 38.2857772,41.7834736 Z M46.8114763,71.1813708 L73.1249679,71.1813708 C73.4871291,71.1813708 73.7796393,71.069882 74.0024986,70.8469044 C74.2253579,70.6239267 74.3367875,70.3262681 74.3367875,69.9539286 L74.3367875,57.8353781 C74.3367875,57.4734536 74.2253579,57.1810026 74.0024986,56.958025 C73.7796393,56.7350473 73.4871291,56.6235585 73.1249679,56.6235585 L46.8114763,56.6235585 C46.434166,56.6235585 46.1352647,56.7350473 45.9147725,56.958025 C45.6942802,57.1810026 45.5840341,57.4734536 45.5840341,57.8353781 L45.5840341,69.9539286 C45.5840341,70.3262681 45.6942802,70.6239267 45.9147725,70.8469044 C46.1352647,71.069882 46.434166,71.1813708 46.8114763,71.1813708 Z M46.8114763,52.0354741 L73.1249679,52.0354741 C73.4871291,52.0354741 73.7796393,51.9240444 74.0024986,51.7011851 C74.2253579,51.4783259 74.3367875,51.1858156 74.3367875,50.8236545 L74.3367875,38.6433235 C74.3367875,38.2811624 74.2253579,37.9911968 74.0024986,37.7734267 C73.7796393,37.5556566 73.4871291,37.4467715 73.1249679,37.4467715 L46.8114763,37.4467715 C46.434166,37.4467715 46.1352647,37.5556566 45.9147725,37.7734267 C45.6942802,37.9911968 45.5840341,38.2811624 45.5840341,38.6433235 L45.5840341,50.8236545 C45.5840341,51.1858156 45.6942802,51.4783259 45.9147725,51.7011851 C46.1352647,51.9240444 46.434166,52.0354741 46.8114763,52.0354741 Z M79.0708016,71.1813708 L81.5658077,71.1813708 C82.315931,71.1813708 82.6909927,70.8138838 82.6909927,70.0789097 L82.6909927,67.8778932 C82.6909927,67.5741986 82.5923452,67.3260709 82.3950502,67.1335101 C82.1977552,66.9409492 81.9420529,66.8446688 81.6279432,66.8446688 L79.0708016,66.8446688 C78.7718411,66.8446688 78.5237134,66.9409492 78.3264184,67.1335101 C78.1291235,67.3260709 78.030476,67.5741986 78.030476,67.8778932 L78.030476,70.1254226 C78.030476,70.4291172 78.1291235,70.6810322 78.3264184,70.8811676 C78.5237134,71.0813031 78.7718411,71.1813708 79.0708016,71.1813708 Z M79.0708016,63.8106817 L81.6279432,63.8106817 C81.9420529,63.8106817 82.1977552,63.7068266 82.3950502,63.4991166 C82.5923452,63.2914065 82.6909927,63.0461193 82.6909927,62.7632549 L82.6909927,60.554072 C82.6909927,60.2399623 82.5949489,59.98426 82.4028615,59.786965 C82.2107741,59.58967 81.952468,59.4910225 81.6279432,59.4910225 L79.0708016,59.4910225 C78.7718411,59.4910225 78.5237134,59.58967 78.3264184,59.786965 C78.1291235,59.98426 78.030476,60.2399623 78.030476,60.554072 L78.030476,62.7632549 C78.030476,63.0461193 78.1291235,63.2914065 78.3264184,63.4991166 C78.5237134,63.7068266 78.7718411,63.8106817 79.0708016,63.8106817 Z M79.0708016,56.4627164 L81.6279432,56.4627164 C81.9420529,56.4627164 82.1977552,56.3614651 82.3950502,56.1589626 C82.5923452,55.9564601 82.6909927,55.7160253 82.6909927,55.4376583 L82.6909927,53.2213742 C82.6909927,52.9119987 82.5949489,52.6586634 82.4028615,52.4613685 C82.2107741,52.2640735 81.952468,52.165426 81.6279432,52.165426 L79.0708016,52.165426 C78.7718411,52.165426 78.5237134,52.2640735 78.3264184,52.4613685 C78.1291235,52.6586634 78.030476,52.9119987 78.030476,53.2213742 L78.030476,55.4376583 C78.030476,55.7160253 78.1291235,55.9564601 78.3264184,56.1589626 C78.5237134,56.3614651 78.7718411,56.4627164 79.0708016,56.4627164 Z M79.0708016,49.1683651 L81.6279432,49.1683651 C81.9420529,49.1683651 82.1977552,49.0671138 82.3950502,48.8646113 C82.5923452,48.6621088 82.6909927,48.4216741 82.6909927,48.1433071 L82.6909927,45.9114003 C82.6909927,45.5972907 82.5949489,45.3415883 82.4028615,45.1442934 C82.2107741,44.9469984 81.952468,44.8483509 81.6279432,44.8483509 L79.0708016,44.8483509 C78.7718411,44.8483509 78.5237134,44.9469984 78.3264184,45.1442934 C78.1291235,45.3415883 78.030476,45.5972907 78.030476,45.9114003 L78.030476,48.1433071 C78.030476,48.4216741 78.1291235,48.6621088 78.3264184,48.8646113 C78.5237134,49.0671138 78.7718411,49.1683651 79.0708016,49.1683651 Z M79.0708016,41.7834736 L81.6279432,41.7834736 C81.9420529,41.7834736 82.1977552,41.6845894 82.3950502,41.486821 C82.5923452,41.2890526 82.6909927,41.0487362 82.6909927,40.7658718 L82.6909927,38.5648553 C82.6909927,37.8194661 82.315931,37.4467715 81.5658077,37.4467715 L79.0708016,37.4467715 C78.7718411,37.4467715 78.5237134,37.5442355 78.3264184,37.7391634 C78.1291235,37.9340913 78.030476,38.1886101 78.030476,38.5027198 L78.030476,40.7658718 C78.030476,41.0487362 78.1291235,41.2890526 78.3264184,41.486821 C78.5237134,41.6845894 78.7718411,41.7834736 79.0708016,41.7834736 Z" id="film" fill="#8F8F94" fill-rule="nonzero"></path>
    </g>
</svg>