<?xml version="1.0" encoding="UTF-8"?>
<svg width="120px" height="120px" viewBox="0 0 120 120" version="1.1" xmlns="http://www.w3.org/2000/svg" xmlns:xlink="http://www.w3.org/1999/xlink">
    <title>3 Iconos/Sin categoría/document-pdf-fill</title>
    <g id="3-Iconos/Sin-categoría/document-pdf-fill" stroke="none" stroke-width="1" fill="none" fill-rule="evenodd">
        <polygon id="Recuadro" fill="#F3E3E8" points="0 0 120 0 120 120 0 120"></polygon>
        <path d="M21.9152344,101.888867 L21.9152344,91.7427734 L25.3957031,91.7427734 C26.3988281,91.7427734 27.2578125,91.9431641 27.9726562,92.3439453 C28.6875,92.7447266 29.2347656,93.3224609 29.6144531,94.0771484 C29.9941406,94.8318359 30.1839844,95.7412109 30.1839844,96.8052734 L30.1839844,96.8193359 C30.1839844,97.8833984 29.9941406,98.7939453 29.6144531,99.5509766 C29.2347656,100.308008 28.6886719,100.886914 27.9761719,101.287695 C27.2636719,101.688477 26.4035156,101.888867 25.3957031,101.888867 L21.9152344,101.888867 Z M23.1808594,100.749805 L25.3113281,100.749805 C26.0660156,100.749805 26.7105469,100.595117 27.2449219,100.285742 C27.7792969,99.9763672 28.1871094,99.5287109 28.4683594,98.9427734 C28.7496094,98.3568359 28.8902344,97.6537109 28.8902344,96.8333984 L28.8902344,96.8193359 C28.8902344,95.9943359 28.7484375,95.2876953 28.4648438,94.6994141 C28.18125,94.1111328 27.7722656,93.6611328 27.2378906,93.3494141 C26.7035156,93.0376953 26.0613281,92.8818359 25.3113281,92.8818359 L23.1808594,92.8818359 L23.1808594,100.749805 Z M35.3378906,102.022461 C34.6207031,102.022461 34.0007812,101.864258 33.478125,101.547852 C32.9554687,101.231445 32.5523437,100.780273 32.26875,100.194336 C31.9851562,99.6083984 31.8433594,98.9123047 31.8433594,98.1060547 L31.8433594,98.0919922 C31.8433594,97.2810547 31.9851562,96.5826172 32.26875,95.9966797 C32.5523437,95.4107422 32.9554687,94.9607422 33.478125,94.6466797 C34.0007812,94.3326172 34.6207031,94.1755859 35.3378906,94.1755859 C36.0597656,94.1755859 36.6808594,94.3326172 37.2011719,94.6466797 C37.7214844,94.9607422 38.1234375,95.4107422 38.4070312,95.9966797 C38.690625,96.5826172 38.8324219,97.2810547 38.8324219,98.0919922 L38.8324219,98.1060547 C38.8324219,98.9123047 38.690625,99.6083984 38.4070312,100.194336 C38.1234375,100.780273 37.7214844,101.231445 37.2011719,101.547852 C36.6808594,101.864258 36.0597656,102.022461 35.3378906,102.022461 Z M35.3378906,100.939648 C35.8160156,100.939648 36.2214844,100.827148 36.5542969,100.602148 C36.8871094,100.377148 37.1414062,100.053711 37.3171875,99.6318359 C37.4929687,99.2099609 37.5808594,98.7013672 37.5808594,98.1060547 L37.5808594,98.0919922 C37.5808594,97.4919922 37.4929687,96.9810547 37.3171875,96.5591797 C37.1414062,96.1373047 36.8871094,95.8150391 36.5542969,95.5923828 C36.2214844,95.3697266 35.8160156,95.2583984 35.3378906,95.2583984 C34.8597656,95.2583984 34.4542969,95.3697266 34.1214844,95.5923828 C33.7886719,95.8150391 33.534375,96.1373047 33.3585937,96.5591797 C33.1828125,96.9810547 33.0949219,97.4919922 33.0949219,98.0919922 L33.0949219,98.1060547 C33.0949219,98.7013672 33.1828125,99.2099609 33.3585937,99.6318359 C33.534375,100.053711 33.7886719,100.377148 34.1214844,100.602148 C34.4542969,100.827148 34.8597656,100.939648 35.3378906,100.939648 Z M43.8316406,102.022461 C43.1238281,102.022461 42.5097656,101.860742 41.9894531,101.537305 C41.4691406,101.213867 41.0660156,100.756836 40.7800781,100.166211 C40.4941406,99.5755859 40.3511719,98.8794922 40.3511719,98.0779297 L40.3511719,98.0638672 C40.3511719,97.2763672 40.4929687,96.5919922 40.7765625,96.0107422 C41.0601562,95.4294922 41.4621094,94.9783203 41.9824219,94.6572266 C42.5027344,94.3361328 43.1167969,94.1755859 43.8246094,94.1755859 C44.4386719,94.1755859 44.9683594,94.2833984 45.4136719,94.4990234 C45.8589844,94.7146484 46.2152344,95.0041016 46.4824219,95.3673828 C46.7496094,95.7306641 46.9207031,96.1373047 46.9957031,96.5873047 L47.0027344,96.6294922 L45.7863281,96.6294922 L45.7792969,96.6083984 C45.6855469,96.2333984 45.4722656,95.9146484 45.1394531,95.6521484 C44.8066406,95.3896484 44.3683594,95.2583984 43.8246094,95.2583984 C43.3699219,95.2583984 42.9761719,95.3732422 42.6433594,95.6029297 C42.3105469,95.8326172 42.0539062,96.1572266 41.8734375,96.5767578 C41.6929687,96.9962891 41.6027344,97.4919922 41.6027344,98.0638672 L41.6027344,98.0779297 C41.6027344,98.6591797 41.6941406,99.1642578 41.8769531,99.5931641 C42.0597656,100.02207 42.3175781,100.353711 42.6503906,100.588086 C42.9832031,100.822461 43.3746094,100.939648 43.8246094,100.939648 C44.3355469,100.939648 44.7527344,100.829492 45.0761719,100.60918 C45.3996094,100.388867 45.6316406,100.067773 45.7722656,99.6458984 L45.7863281,99.6037109 L46.9957031,99.5966797 L46.9816406,99.6740234 C46.8785156,100.128711 46.6957031,100.533008 46.4332031,100.886914 C46.1707031,101.24082 45.8238281,101.518555 45.3925781,101.720117 C44.9613281,101.92168 44.4410156,102.022461 43.8316406,102.022461 Z M51.3269531,102.022461 C50.7550781,102.022461 50.2746094,101.913477 49.8855469,101.695508 C49.4964844,101.477539 49.2046875,101.158789 49.0101562,100.739258 C48.815625,100.319727 48.7183594,99.8123047 48.7183594,99.2169922 L48.7183594,94.3091797 L49.9417969,94.3091797 L49.9417969,98.9216797 C49.9417969,99.6013672 50.0742187,100.107617 50.3390625,100.44043 C50.6039062,100.773242 51.0386719,100.939648 51.6433594,100.939648 C51.9761719,100.939648 52.2703125,100.89043 52.5257812,100.791992 C52.78125,100.693555 52.9957031,100.551758 53.1691406,100.366602 C53.3425781,100.181445 53.4726562,99.9564453 53.559375,99.6916016 C53.6460937,99.4267578 53.6894531,99.1279297 53.6894531,98.7951172 L53.6894531,94.3091797 L54.9128906,94.3091797 L54.9128906,101.888867 L53.6894531,101.888867 L53.6894531,100.756836 L53.5769531,100.756836 C53.4550781,101.024023 53.2886719,101.252539 53.0777344,101.442383 C52.8667969,101.632227 52.6148437,101.776367 52.321875,101.874805 C52.0289062,101.973242 51.6972656,102.022461 51.3269531,102.022461 Z M57.1910156,101.888867 L57.1910156,94.3091797 L58.4144531,94.3091797 L58.4144531,95.4623047 L58.5269531,95.4623047 C58.6957031,95.0544922 58.9546875,94.7380859 59.3039062,94.5130859 C59.653125,94.2880859 60.0761719,94.1755859 60.5730469,94.1755859 C60.9152344,94.1755859 61.2222656,94.2318359 61.4941406,94.3443359 C61.7660156,94.4568359 62.0003906,94.6126953 62.1972656,94.8119141 C62.3941406,95.0111328 62.5511719,95.2419922 62.6683594,95.5044922 L62.7808594,95.5044922 C62.9167969,95.2373047 63.0996094,95.0041016 63.3292969,94.8048828 C63.5589844,94.6056641 63.825,94.4509766 64.1273437,94.3408203 C64.4296875,94.2306641 64.7542969,94.1755859 65.1011719,94.1755859 C65.6167969,94.1755859 66.0539062,94.2716797 66.4125,94.4638672 C66.7710937,94.6560547 67.0441406,94.9361328 67.2316406,95.3041016 C67.4191406,95.6720703 67.5128906,96.1208984 67.5128906,96.6505859 L67.5128906,101.888867 L66.2894531,101.888867 L66.2894531,96.9318359 C66.2894531,96.5568359 66.2320312,96.2462891 66.1171875,96.0001953 C66.0023437,95.7541016 65.8277344,95.5689453 65.5933594,95.4447266 C65.3589844,95.3205078 65.0636719,95.2583984 64.7074219,95.2583984 C64.3558594,95.2583984 64.0488281,95.3380859 63.7863281,95.4974609 C63.5238281,95.6568359 63.3199219,95.8689453 63.1746094,96.1337891 C63.0292969,96.3986328 62.9566406,96.6927734 62.9566406,97.0162109 L62.9566406,101.888867 L61.7332031,101.888867 L61.7332031,96.7419922 C61.7332031,96.4419922 61.66875,96.1806641 61.5398437,95.9580078 C61.4109375,95.7353516 61.228125,95.5630859 60.9914062,95.4412109 C60.7546875,95.3193359 60.4769531,95.2583984 60.1582031,95.2583984 C59.8300781,95.2583984 59.5335937,95.3451172 59.26875,95.5185547 C59.0039062,95.6919922 58.7953125,95.9251953 58.6429687,96.2181641 C58.490625,96.5111328 58.4144531,96.8357422 58.4144531,97.1919922 L58.4144531,101.888867 L57.1910156,101.888867 Z M72.8144531,102.022461 C72.0925781,102.022461 71.4726562,101.863086 70.9546875,101.544336 C70.4367187,101.225586 70.0382812,100.774414 69.759375,100.19082 C69.4804688,99.6072266 69.3410156,98.9193359 69.3410156,98.1271484 L69.3410156,98.1201172 C69.3410156,97.3373047 69.4804688,96.6505859 69.759375,96.0599609 C70.0382812,95.4693359 70.4332031,95.0076172 70.9441406,94.6748047 C71.4550781,94.3419922 72.0527344,94.1755859 72.7371094,94.1755859 C73.4261719,94.1755859 74.0179687,94.3349609 74.5125,94.6537109 C75.0070312,94.9724609 75.3867188,95.4166016 75.6515625,95.9861328 C75.9164062,96.5556641 76.0488281,97.2177734 76.0488281,97.9724609 L76.0488281,98.4505859 L69.9738281,98.4505859 L69.9738281,97.4732422 L75.4230469,97.4732422 L74.8183594,98.3662109 L74.8183594,97.8810547 C74.8183594,97.2857422 74.7292969,96.7958984 74.5511719,96.4115234 C74.3730469,96.0271484 74.1269531,95.7400391 73.8128906,95.5501953 C73.4988281,95.3603516 73.1378906,95.2654297 72.7300781,95.2654297 C72.3222656,95.2654297 71.9578125,95.3650391 71.6367188,95.5642578 C71.315625,95.7634766 71.0613281,96.0576172 70.8738281,96.4466797 C70.6863281,96.8357422 70.5925781,97.3138672 70.5925781,97.8810547 L70.5925781,98.3662109 C70.5925781,98.9052734 70.6839844,99.3658203 70.8667969,99.7478516 C71.0496094,100.129883 71.3097656,100.422852 71.6472656,100.626758 C71.9847656,100.830664 72.3832031,100.932617 72.8425781,100.932617 C73.1847656,100.932617 73.4824219,100.885742 73.7355469,100.791992 C73.9886719,100.698242 74.1972656,100.578711 74.3613281,100.433398 C74.5253906,100.288086 74.6402344,100.14043 74.7058594,99.9904297 L74.7339844,99.9271484 L75.9574219,99.9271484 L75.9433594,99.9833984 C75.8777344,100.241211 75.7617188,100.49082 75.5953125,100.732227 C75.4289062,100.973633 75.2144531,101.191602 74.9519531,101.386133 C74.6894531,101.580664 74.3789062,101.735352 74.0203125,101.850195 C73.6617188,101.965039 73.2597656,102.022461 72.8144531,102.022461 Z M77.9472656,101.888867 L77.9472656,94.3091797 L79.1707031,94.3091797 L79.1707031,95.4482422 L79.2832031,95.4482422 C79.4753906,95.0451172 79.7519531,94.7322266 80.1128906,94.5095703 C80.4738281,94.2869141 80.9332031,94.1755859 81.4910156,94.1755859 C82.3441406,94.1755859 82.9992187,94.4181641 83.45625,94.9033203 C83.9132812,95.3884766 84.1417969,96.0810547 84.1417969,96.9810547 L84.1417969,101.888867 L82.9183594,101.888867 L82.9183594,97.2763672 C82.9183594,96.5919922 82.7742187,96.0845703 82.4859375,95.7541016 C82.1976562,95.4236328 81.7511719,95.2583984 81.1464844,95.2583984 C80.7433594,95.2583984 80.3941406,95.3451172 80.0988281,95.5185547 C79.8035156,95.6919922 79.575,95.9380859 79.4132812,96.2568359 C79.2515625,96.5755859 79.1707031,96.9576172 79.1707031,97.4029297 L79.1707031,101.888867 L77.9472656,101.888867 Z M89.0425781,101.945117 C88.2644531,101.945117 87.7007812,101.788086 87.3515625,101.474023 C87.0023437,101.159961 86.8277344,100.641992 86.8277344,99.9201172 L86.8277344,95.3216797 L85.6324219,95.3216797 L85.6324219,94.3091797 L86.8277344,94.3091797 L86.8277344,92.3474609 L88.0933594,92.3474609 L88.0933594,94.3091797 L89.7527344,94.3091797 L89.7527344,95.3216797 L88.0933594,95.3216797 L88.0933594,99.6107422 C88.0933594,100.056055 88.1777344,100.375977 88.3464844,100.570508 C88.5152344,100.765039 88.7964844,100.862305 89.1902344,100.862305 C89.2980469,100.862305 89.390625,100.859961 89.4679687,100.855273 C89.5453125,100.850586 89.6402344,100.843555 89.7527344,100.83418 L89.7527344,101.874805 C89.6355469,101.893555 89.5183594,101.909961 89.4011719,101.924023 C89.2839844,101.938086 89.1644531,101.945117 89.0425781,101.945117 Z M94.5902344,102.022461 C93.8730469,102.022461 93.253125,101.864258 92.7304687,101.547852 C92.2078125,101.231445 91.8046875,100.780273 91.5210937,100.194336 C91.2375,99.6083984 91.0957031,98.9123047 91.0957031,98.1060547 L91.0957031,98.0919922 C91.0957031,97.2810547 91.2375,96.5826172 91.5210937,95.9966797 C91.8046875,95.4107422 92.2078125,94.9607422 92.7304687,94.6466797 C93.253125,94.3326172 93.8730469,94.1755859 94.5902344,94.1755859 C95.3121094,94.1755859 95.9332031,94.3326172 96.4535156,94.6466797 C96.9738281,94.9607422 97.3757812,95.4107422 97.659375,95.9966797 C97.9429687,96.5826172 98.0847656,97.2810547 98.0847656,98.0919922 L98.0847656,98.1060547 C98.0847656,98.9123047 97.9429687,99.6083984 97.659375,100.194336 C97.3757812,100.780273 96.9738281,101.231445 96.4535156,101.547852 C95.9332031,101.864258 95.3121094,102.022461 94.5902344,102.022461 Z M94.5902344,100.939648 C95.0683594,100.939648 95.4738281,100.827148 95.8066406,100.602148 C96.1394531,100.377148 96.39375,100.053711 96.5695312,99.6318359 C96.7453125,99.2099609 96.8332031,98.7013672 96.8332031,98.1060547 L96.8332031,98.0919922 C96.8332031,97.4919922 96.7453125,96.9810547 96.5695312,96.5591797 C96.39375,96.1373047 96.1394531,95.8150391 95.8066406,95.5923828 C95.4738281,95.3697266 95.0683594,95.2583984 94.5902344,95.2583984 C94.1121094,95.2583984 93.7066406,95.3697266 93.3738281,95.5923828 C93.0410156,95.8150391 92.7867187,96.1373047 92.6109375,96.5591797 C92.4351562,96.9810547 92.3472656,97.4919922 92.3472656,98.0919922 L92.3472656,98.1060547 C92.3472656,98.7013672 92.4351562,99.2099609 92.6109375,99.6318359 C92.7867187,100.053711 93.0410156,100.377148 93.3738281,100.602148 C93.7066406,100.827148 94.1121094,100.939648 94.5902344,100.939648 Z" id="Texto" fill="#1D1D1F" fill-rule="nonzero"></path>
        <path d="M46.6257303,24.0888672 C44.0234346,24.0888672 42.0710681,24.7525515 40.7703501,26.0790603 L40.7703501,26.0790603 C39.4687724,27.4055691 38.8179835,29.3785684 38.8179835,31.998058 L38.8179835,31.998058 L38.8179835,70.2054673 C38.8179835,72.841291 39.4687724,74.8142903 40.7703501,76.1244649 L40.7703501,76.1244649 C42.0710681,77.4346396 44.0234346,78.0888672 46.6257303,78.0888672 L46.6257303,78.0888672 L73.3742697,78.0888672 C75.9757057,78.0888672 77.9280722,77.4294814 79.2296499,76.1124292 L79.2296499,76.1124292 C80.5312276,74.7936576 81.1820165,72.8249569 81.1820165,70.2054673 L81.1820165,70.2054673 L81.1820165,47.3367299 L62.9461736,47.3367299 C59.7730406,47.3367299 58.186904,45.7497336 58.186904,42.5757409 L58.186904,42.5757409 L58.186904,24.0888672 L46.6257303,24.0888672 Z M61.6368586,42.5250189 C61.6368586,43.4319968 62.0985146,43.8859156 63.0226864,43.8859156 L63.0226864,43.8859156 L80.8794039,43.8859156 C80.7960136,43.3649406 80.5767914,42.8448253 80.2243166,42.3238504 L80.2243166,42.3238504 C79.8718418,41.8037351 79.3938516,41.2328979 78.7886266,40.6113387 L78.7886266,40.6113387 L64.9114355,26.4822571 C64.3234044,25.8770321 63.7611641,25.3947434 63.2238549,25.0336716 L63.2238549,25.0336716 C62.6865458,24.6725999 62.1569739,24.4507986 61.6368586,24.3656889 L61.6368586,24.3656889 L61.6368586,42.5250189 Z M66.2726545,59.1234659 L72.9814967,59.1234659 L72.9814967,60.9685856 L68.6980681,60.9685856 L68.6980681,63.2768657 L72.5957087,63.2768657 L72.5957087,65.0661052 L68.6980681,65.0661052 L68.6980681,68.6714496 L66.2726545,68.6714496 L66.2726545,59.1234659 Z M56.1884363,59.1234659 L60.1398078,59.1234659 C61.1886353,59.1234659 62.04833,59.3125987 62.7178172,59.6930136 L62.7178172,59.6930136 C63.3916029,60.0734285 63.8848527,60.6193346 64.2072382,61.3253588 L64.2072382,61.3253588 C64.5306983,62.0313831 64.6940402,62.8781823 64.6940402,63.8571596 L64.6940402,63.8571596 C64.6940402,64.8501069 64.5263998,65.7055031 64.2007904,66.4254973 L64.2007904,66.4254973 C63.892375,67.1272231 63.3668866,67.7107408 62.7016979,68.0922303 L62.7016979,68.0922303 C62.0322107,68.4780183 61.1757399,68.6714496 60.1398078,68.6714496 L60.1398078,68.6714496 L56.1884363,68.6714496 L56.1884363,59.1234659 Z M47.0176436,59.1234659 L51.2720575,59.1234659 C52.047932,59.1234659 52.6970014,59.2728379 53.2171167,59.5769548 L53.2171167,59.5769548 C53.7404558,59.8767734 54.1337661,60.2765314 54.3991968,60.7762289 L54.3991968,60.7762289 C54.6667768,61.2791502 54.8000295,61.8325787 54.8000295,62.4354396 L54.8000295,62.4354396 C54.8000295,63.0415243 54.6624783,63.5949527 54.3927491,64.0871279 L54.3927491,64.0871279 C54.1187214,64.5889746 53.7049934,64.9994788 53.1999228,65.269208 L53.1999228,65.269208 C52.6722852,65.5410865 52.0909167,65.691533 51.498802,65.7098015 L51.498802,65.7098015 L49.4430572,65.7098015 L49.4430572,68.6714496 L47.0176436,68.6714496 L47.0176436,59.1234659 Z M50.7154053,60.8858399 L50.7154053,60.8890638 L49.4366095,60.8890638 L49.4366095,63.9807407 L50.7154053,63.9807407 C51.0141491,63.988263 51.3118184,63.9259352 51.5815476,63.7980556 L51.5815476,63.7980556 C51.8190383,63.6830714 52.016768,63.4993117 52.1478715,63.2714926 L52.1478715,63.2714926 C52.2832734,63.0135842 52.3498997,62.7255865 52.3413028,62.4354396 L52.3413028,62.4354396 C52.3413028,61.9346674 52.1983785,61.5488794 51.9082316,61.285598 L51.9082316,61.285598 C51.5987415,61.0255403 51.2086551,60.8826161 50.8067478,60.8826161 L50.8067478,60.8826161 C50.7766585,60.8826161 50.7454946,60.8836907 50.7154053,60.8858399 L50.7154053,60.8858399 Z M59.7561691,60.9427947 L59.7540199,60.944944 L58.6149245,60.944944 L58.6149245,66.8456731 L59.7540199,66.8456731 C60.1860164,66.8456731 60.5524613,66.7854945 60.863026,66.6651372 L60.863026,66.6651372 C61.1596206,66.5533769 61.4218275,66.3631695 61.6217065,66.1160073 L61.6217065,66.1160073 C61.8323317,65.8452035 61.9817036,65.5324895 62.0623,65.2004325 L62.0623,65.2004325 C62.1547172,64.832913 62.2020004,64.4041403 62.2020004,63.9141143 L62.2020004,63.9141143 C62.2020004,63.2607464 62.1181802,62.7148403 61.9483905,62.271023 L61.9483905,62.271023 C61.8043916,61.8605188 61.5249908,61.5091186 61.1563968,61.2748518 L61.1563968,61.2748518 C60.7630865,61.0556296 60.3203437,60.9395709 59.8700786,60.9395709 L59.8700786,60.9395709 C59.832467,60.9395709 59.7948554,60.9406455 59.7561691,60.9427947 L59.7561691,60.9427947 Z" id="document-pdf-fill" fill="#E60000"></path>
    </g>
</svg>