<?xml version="1.0" encoding="UTF-8"?>
<svg width="60px" height="60px" viewBox="0 0 60 60" version="1.1" xmlns="http://www.w3.org/2000/svg" xmlns:xlink="http://www.w3.org/1999/xlink">
    <title>3 Iconos/Relleno/photo-fill</title>
    <g id="3-Iconos/Relleno/photo-fill" stroke="none" stroke-width="1" fill="none" fill-rule="evenodd">
        <path d="M11.0375977,46.7102051 L48.984375,46.7102051 C50.0244141,46.7102051 50.8483887,46.4099121 51.4562988,45.8093262 C52.064209,45.2087402 52.3681641,44.3811035 52.3681641,43.326416 L52.3681641,39.942627 L42.2607422,30.5822754 C41.7480469,30.098877 41.1877441,29.7399902 40.579834,29.5056152 C39.9719238,29.2712402 39.3676758,29.1540527 38.7670898,29.1540527 C37.4780273,29.1540527 36.2988281,29.6228027 35.2294922,30.5603027 L24.7265625,39.876709 L20.5297852,36.0974121 C19.5629883,35.2038574 18.5083008,34.7570801 17.3657227,34.7570801 C16.8823242,34.7570801 16.3842773,34.8669434 15.871582,35.0866699 C15.3588867,35.3063965 14.8608398,35.6286621 14.3774414,36.0534668 L7.63183594,41.9421387 L7.63183594,43.2824707 C7.63183594,44.3518066 7.93579102,45.1904297 8.54370117,45.7983398 C9.15161133,46.40625 9.98291016,46.7102051 11.0375977,46.7102051 Z M20.5737305,30.5603027 C21.5551758,30.5603027 22.4560547,30.3149414 23.2763672,29.8242188 C24.0966797,29.3334961 24.7521973,28.6779785 25.2429199,27.857666 C25.7336426,27.0373535 25.9790039,26.1291504 25.9790039,25.1330566 C25.9790039,24.1369629 25.7336426,23.2287598 25.2429199,22.4084473 C24.7521973,21.5881348 24.0966797,20.9326172 23.2763672,20.4418945 C22.4560547,19.9511719 21.5551758,19.7058105 20.5737305,19.7058105 C19.5776367,19.7058105 18.6694336,19.9511719 17.8491211,20.4418945 C17.0288086,20.9326172 16.373291,21.5881348 15.8825684,22.4084473 C15.3918457,23.2287598 15.1464844,24.1369629 15.1464844,25.1330566 C15.1464844,26.1291504 15.3918457,27.0373535 15.8825684,27.857666 C16.373291,28.6779785 17.0288086,29.3334961 17.8491211,29.8242188 C18.6694336,30.3149414 19.5776367,30.5603027 20.5737305,30.5603027 Z M10.9936523,50.2258301 C8.69384766,50.2258301 6.96899414,49.6582031 5.8190918,48.5229492 C4.66918945,47.3876953 4.09423828,45.6921387 4.09423828,43.4362793 L4.09423828,16.5856934 C4.09423828,14.3151855 4.66918945,12.6123047 5.8190918,11.4770508 C6.96899414,10.3417969 8.69384766,9.77416992 10.9936523,9.77416992 L49.0063477,9.77416992 C51.3208008,9.77416992 53.0493164,10.345459 54.1918945,11.4880371 C55.3344727,12.6306152 55.9057617,14.329834 55.9057617,16.5856934 L55.9057617,43.4362793 C55.9057617,45.6921387 55.3344727,47.3876953 54.1918945,48.5229492 C53.0493164,49.6582031 51.3208008,50.2258301 49.0063477,50.2258301 L10.9936523,50.2258301 Z" id="photo-fill" fill="#E5CC00"></path>
    </g>
</svg>