<?xml version="1.0" encoding="UTF-8"?>
<svg width="120px" height="120px" viewBox="0 0 120 120" version="1.1" xmlns="http://www.w3.org/2000/svg" xmlns:xlink="http://www.w3.org/1999/xlink">
    <title>3 Iconos/Sin categoría/folder-fill</title>
    <g id="3-Iconos/Sin-categoría/folder-fill" stroke="none" stroke-width="1" fill="none" fill-rule="evenodd">
        <polygon id="Recuadro" fill="#E6EDF7" points="0 0 120 0 120 120 0 120"></polygon>
        <path d="M38.4421875,101.128125 C37.5234375,101.128125 36.7289063,100.9125 36.0585938,100.48125 C35.3882812,100.05 34.8714844,99.4382812 34.5082031,98.6460937 C34.1449219,97.8539062 33.9632813,96.9140625 33.9632813,95.8265625 L33.9632813,95.8125 C33.9632813,94.7203125 34.1449219,93.778125 34.5082031,92.9859375 C34.8714844,92.19375 35.3871094,91.5820312 36.0550781,91.1507812 C36.7230469,90.7195312 37.5164063,90.5039062 38.4351562,90.5039062 C39.1476563,90.5039062 39.7957031,90.6433594 40.3792969,90.9222656 C40.9628906,91.2011719 41.4445313,91.5878906 41.8242188,92.0824219 C42.2039063,92.5769531 42.4429688,93.1476562 42.5414063,93.7945312 L42.534375,93.8085937 L41.2617188,93.8085937 L41.2546875,93.7945312 C41.1421875,93.3585937 40.9523438,92.9824219 40.6851562,92.6660156 C40.4179688,92.3496094 40.0933594,92.1046875 39.7113281,91.93125 C39.3292969,91.7578125 38.9039063,91.6710937 38.4351562,91.6710937 C37.7882812,91.6710937 37.2269531,91.8398437 36.7511719,92.1773437 C36.2753906,92.5148437 35.9085938,92.9929687 35.6507813,93.6117187 C35.3929688,94.2304687 35.2640625,94.9640625 35.2640625,95.8125 L35.2640625,95.8265625 C35.2640625,96.6703125 35.3929688,97.4015625 35.6507813,98.0203125 C35.9085938,98.6390625 36.2753906,99.1171875 36.7511719,99.4546875 C37.2269531,99.7921875 37.790625,99.9609375 38.4421875,99.9609375 C38.915625,99.9609375 39.3445313,99.8847656 39.7289063,99.7324219 C40.1132813,99.5800781 40.4367188,99.3621094 40.6992188,99.0785156 C40.9617188,98.7949219 41.1445312,98.4585937 41.2476563,98.0695312 L41.2617188,98.0554687 L42.5414063,98.0554687 L42.5414063,98.0695312 C42.4289063,98.6882812 42.1851562,99.2261719 41.8101563,99.6832031 C41.4351562,100.140234 40.9605469,100.495312 40.3863281,100.748437 C39.8121094,101.001562 39.1640625,101.128125 38.4421875,101.128125 Z M46.5914062,101.022656 C46.1132812,101.022656 45.6832031,100.93125 45.3011719,100.748437 C44.9191406,100.565625 44.6167969,100.305469 44.3941406,99.9679687 C44.1714844,99.6304687 44.0601562,99.2320312 44.0601562,98.7726562 L44.0601562,98.7585937 C44.0601562,98.3085937 44.1679688,97.9230469 44.3835938,97.6019531 C44.5992187,97.2808594 44.9132813,97.0289062 45.3257813,96.8460937 C45.7382812,96.6632812 46.2375,96.5554687 46.8234375,96.5226562 L49.6078125,96.3539062 L49.6078125,97.33125 L46.9710937,97.5 C46.3945312,97.5328125 45.9738281,97.6523437 45.7089844,97.8585937 C45.4441406,98.0648437 45.3117187,98.3554687 45.3117187,98.7304687 L45.3117187,98.7445312 C45.3117187,99.1289062 45.4570312,99.4277344 45.7476562,99.6410156 C46.0382813,99.8542969 46.4039062,99.9609375 46.8445313,99.9609375 C47.2617188,99.9609375 47.6320312,99.8777344 47.9554688,99.7113281 C48.2789062,99.5449219 48.5332031,99.31875 48.7183594,99.0328125 C48.9035156,98.746875 48.9960938,98.4234375 48.9960938,98.0625 L48.9960938,95.7 C48.9960938,95.23125 48.8542969,94.8738281 48.5707031,94.6277344 C48.2871094,94.3816406 47.8617188,94.2585937 47.2945313,94.2585937 C46.8398438,94.2585937 46.4671875,94.3394531 46.1765625,94.5011719 C45.8859375,94.6628906 45.6914062,94.8914062 45.5929687,95.1867187 L45.5859375,95.2078125 L44.3625,95.2078125 L44.3695313,95.165625 C44.4351562,94.7671875 44.6003906,94.4191406 44.8652344,94.1214844 C45.1300781,93.8238281 45.4734375,93.5917969 45.8953125,93.4253906 C46.3171875,93.2589844 46.7976562,93.1757812 47.3367188,93.1757812 C47.9554688,93.1757812 48.4792969,93.2765625 48.9082031,93.478125 C49.3371094,93.6796875 49.6628906,93.9691406 49.8855469,94.3464844 C50.1082031,94.7238281 50.2195313,95.175 50.2195313,95.7 L50.2195313,100.889062 L48.9960938,100.889062 L48.9960938,99.7710937 L48.8835938,99.7710937 C48.7242187,100.038281 48.5308594,100.265625 48.3035156,100.453125 C48.0761719,100.640625 47.8195312,100.782422 47.5335938,100.878516 C47.2476562,100.974609 46.9335938,101.022656 46.5914062,101.022656 Z M52.4554688,100.889062 L52.4554688,93.309375 L53.6789063,93.309375 L53.6789063,94.434375 L53.7914063,94.434375 C53.9367187,94.0359375 54.1828125,93.7265625 54.5296875,93.50625 C54.8765625,93.2859375 55.3054688,93.1757812 55.8164062,93.1757812 C55.9335938,93.1757812 56.0496094,93.1816406 56.1644531,93.1933594 C56.2792969,93.2050781 56.3671875,93.215625 56.428125,93.225 L56.428125,94.4132812 C56.3015625,94.3898437 56.1785156,94.3722656 56.0589844,94.3605469 C55.9394531,94.3488281 55.8117188,94.3429687 55.6757812,94.3429687 C55.2867188,94.3429687 54.9421875,94.4203125 54.6421875,94.575 C54.3421875,94.7296875 54.1066406,94.9453125 53.9355469,95.221875 C53.7644531,95.4984375 53.6789063,95.821875 53.6789063,96.1921875 L53.6789063,100.889062 L52.4554688,100.889062 Z M58.0804688,103.420312 L58.0804688,93.309375 L59.3039062,93.309375 L59.3039062,94.51875 L59.4164063,94.51875 C59.5710938,94.2375 59.765625,93.9972656 60,93.7980469 C60.234375,93.5988281 60.5015625,93.4453125 60.8015625,93.3375 C61.1015625,93.2296875 61.4273438,93.1757812 61.7789063,93.1757812 C62.4210937,93.1757812 62.9800781,93.3386719 63.4558594,93.6644531 C63.9316406,93.9902344 64.3007812,94.4460937 64.5632813,95.0320312 C64.8257813,95.6179687 64.9570312,96.3046875 64.9570312,97.0921875 L64.9570312,97.10625 C64.9570312,97.8984375 64.8257813,98.5875 64.5632813,99.1734375 C64.3007812,99.759375 63.9316406,100.214062 63.4558594,100.5375 C62.9800781,100.860937 62.4210937,101.022656 61.7789063,101.022656 C61.4320313,101.022656 61.1050781,100.967578 60.7980469,100.857422 C60.4910156,100.747266 60.2191406,100.59375 59.9824219,100.396875 C59.7457031,100.2 59.5570313,99.965625 59.4164063,99.69375 L59.3039062,99.69375 L59.3039062,103.420312 L58.0804688,103.420312 Z M61.4976563,99.9398437 C61.9617188,99.9398437 62.3578125,99.8261719 62.6859375,99.5988281 C63.0140625,99.3714844 63.2660156,99.0457031 63.4417969,98.6214844 C63.6175781,98.1972656 63.7054688,97.6921875 63.7054688,97.10625 L63.7054688,97.0921875 C63.7054688,96.5015625 63.6175781,95.9953125 63.4417969,95.5734375 C63.2660156,95.1515625 63.0140625,94.8269531 62.6859375,94.5996094 C62.3578125,94.3722656 61.9617188,94.2585937 61.4976563,94.2585937 C61.0382812,94.2585937 60.6421875,94.3734375 60.309375,94.603125 C59.9765625,94.8328125 59.7210938,95.1585937 59.5429688,95.5804687 C59.3648438,96.0023437 59.2757813,96.50625 59.2757813,97.0921875 L59.2757813,97.10625 C59.2757813,97.6875 59.3648438,98.1902344 59.5429688,98.6144531 C59.7210938,99.0386719 59.9765625,99.365625 60.309375,99.5953125 C60.6421875,99.825 61.0382812,99.9398437 61.4976563,99.9398437 Z M69.9632812,101.022656 C69.2414062,101.022656 68.6214844,100.863281 68.1035156,100.544531 C67.5855469,100.225781 67.1871094,99.7746094 66.9082031,99.1910156 C66.6292969,98.6074219 66.4898438,97.9195312 66.4898438,97.1273437 L66.4898438,97.1203125 C66.4898438,96.3375 66.6292969,95.6507812 66.9082031,95.0601562 C67.1871094,94.4695312 67.5820312,94.0078125 68.0929687,93.675 C68.6039062,93.3421875 69.2015625,93.1757812 69.8859375,93.1757812 C70.575,93.1757812 71.1667969,93.3351562 71.6613281,93.6539062 C72.1558594,93.9726562 72.5355469,94.4167969 72.8003906,94.9863281 C73.0652344,95.5558594 73.1976562,96.2179687 73.1976562,96.9726562 L73.1976562,97.4507812 L67.1226563,97.4507812 L67.1226563,96.4734375 L72.571875,96.4734375 L71.9671875,97.3664062 L71.9671875,96.88125 C71.9671875,96.2859375 71.878125,95.7960937 71.7,95.4117187 C71.521875,95.0273437 71.2757812,94.7402344 70.9617188,94.5503906 C70.6476562,94.3605469 70.2867188,94.265625 69.8789062,94.265625 C69.4710937,94.265625 69.1066406,94.3652344 68.7855469,94.5644531 C68.4644531,94.7636719 68.2101562,95.0578125 68.0226562,95.446875 C67.8351562,95.8359375 67.7414063,96.3140625 67.7414063,96.88125 L67.7414063,97.3664062 C67.7414063,97.9054687 67.8328125,98.3660156 68.015625,98.7480469 C68.1984375,99.1300781 68.4585938,99.4230469 68.7960937,99.6269531 C69.1335937,99.8308594 69.5320312,99.9328125 69.9914062,99.9328125 C70.3335938,99.9328125 70.63125,99.8859375 70.884375,99.7921875 C71.1375,99.6984375 71.3460937,99.5789062 71.5101562,99.4335937 C71.6742187,99.2882812 71.7890625,99.140625 71.8546875,98.990625 L71.8828125,98.9273437 L73.10625,98.9273437 L73.0921875,98.9835937 C73.0265625,99.2414062 72.9105469,99.4910156 72.7441406,99.7324219 C72.5777344,99.9738281 72.3632812,100.191797 72.1007813,100.386328 C71.8382812,100.580859 71.5277344,100.735547 71.1691406,100.850391 C70.8105469,100.965234 70.4085937,101.022656 69.9632812,101.022656 Z M77.7890625,100.945312 C77.0109375,100.945312 76.4472656,100.788281 76.0980469,100.474219 C75.7488281,100.160156 75.5742188,99.6421875 75.5742188,98.9203125 L75.5742188,94.321875 L74.3789062,94.321875 L74.3789062,93.309375 L75.5742188,93.309375 L75.5742188,91.3476562 L76.8398438,91.3476562 L76.8398438,93.309375 L78.4992187,93.309375 L78.4992187,94.321875 L76.8398438,94.321875 L76.8398438,98.6109375 C76.8398438,99.05625 76.9242187,99.3761719 77.0929687,99.5707031 C77.2617188,99.7652344 77.5429688,99.8625 77.9367187,99.8625 C78.0445313,99.8625 78.1371094,99.8601562 78.2144531,99.8554687 C78.2917969,99.8507812 78.3867188,99.84375 78.4992187,99.834375 L78.4992187,100.875 C78.3820313,100.89375 78.2648437,100.910156 78.1476563,100.924219 C78.0304687,100.938281 77.9109375,100.945312 77.7890625,100.945312 Z M82.4085937,101.022656 C81.9304687,101.022656 81.5003906,100.93125 81.1183594,100.748437 C80.7363281,100.565625 80.4339844,100.305469 80.2113281,99.9679687 C79.9886719,99.6304687 79.8773437,99.2320312 79.8773437,98.7726562 L79.8773437,98.7585937 C79.8773437,98.3085937 79.9851563,97.9230469 80.2007813,97.6019531 C80.4164062,97.2808594 80.7304688,97.0289062 81.1429687,96.8460937 C81.5554687,96.6632812 82.0546875,96.5554687 82.640625,96.5226562 L85.425,96.3539062 L85.425,97.33125 L82.7882812,97.5 C82.2117187,97.5328125 81.7910156,97.6523437 81.5261719,97.8585937 C81.2613281,98.0648437 81.1289062,98.3554687 81.1289062,98.7304687 L81.1289062,98.7445312 C81.1289062,99.1289062 81.2742188,99.4277344 81.5648437,99.6410156 C81.8554688,99.8542969 82.2210937,99.9609375 82.6617188,99.9609375 C83.0789063,99.9609375 83.4492188,99.8777344 83.7726563,99.7113281 C84.0960937,99.5449219 84.3503906,99.31875 84.5355469,99.0328125 C84.7207031,98.746875 84.8132813,98.4234375 84.8132813,98.0625 L84.8132813,95.7 C84.8132813,95.23125 84.6714844,94.8738281 84.3878906,94.6277344 C84.1042969,94.3816406 83.6789063,94.2585937 83.1117187,94.2585937 C82.6570313,94.2585937 82.284375,94.3394531 81.99375,94.5011719 C81.703125,94.6628906 81.5085938,94.8914062 81.4101562,95.1867187 L81.403125,95.2078125 L80.1796875,95.2078125 L80.1867188,95.165625 C80.2523437,94.7671875 80.4175781,94.4191406 80.6824219,94.1214844 C80.9472656,93.8238281 81.290625,93.5917969 81.7125,93.4253906 C82.134375,93.2589844 82.6148438,93.1757812 83.1539063,93.1757812 C83.7726563,93.1757812 84.2964844,93.2765625 84.7253906,93.478125 C85.1542969,93.6796875 85.4800781,93.9691406 85.7027344,94.3464844 C85.9253906,94.7238281 86.0367188,95.175 86.0367188,95.7 L86.0367188,100.889062 L84.8132813,100.889062 L84.8132813,99.7710937 L84.7007813,99.7710937 C84.5414062,100.038281 84.3480469,100.265625 84.1207031,100.453125 C83.8933594,100.640625 83.6367188,100.782422 83.3507813,100.878516 C83.0648437,100.974609 82.7507813,101.022656 82.4085937,101.022656 Z" id="Texto" fill="#1D1D1F" fill-rule="nonzero"></path>
        <path d="M33,68.8317309 L33,49.3337124 L87,49.3337124 L87,68.8317309 C87,71.2887983 86.4055482,73.1315988 85.2166446,74.3601325 C84.0277411,75.5886662 82.3712021,76.202933 80.2470277,76.202933 L40.4663144,76.202933 C37.9775429,76.202933 36.1109643,75.5886662 34.8665786,74.3601325 C33.6221929,73.1315988 33,71.2887983 33,68.8317309 Z M33,46.2187851 L33,39.846262 C33,37.4526028 33.5706737,35.6613214 34.7120211,34.4724179 C35.8533686,33.2835143 37.4702774,32.6890625 39.5627477,32.6890625 L46.339498,32.6890625 C47.1162483,32.6890625 47.7939234,32.7445447 48.3725231,32.855509 C48.9511229,32.9664733 49.4821664,33.1487719 49.9656539,33.4024046 C50.4491413,33.6560374 50.9524439,34.0047824 51.4755614,34.4486398 L52.9260238,35.6375433 C53.5284016,36.1448089 54.1070013,36.5054429 54.661823,36.7194456 C55.2166446,36.9334482 55.8982827,37.0404496 56.7067371,37.0404496 L79.5336856,37.0404496 C82.006605,37.0404496 83.8692206,37.6586794 85.1215324,38.8951391 C86.3738441,40.1315988 87,41.9704363 87,44.4116517 L87,46.2187851 L33,46.2187851 Z" id="folder-fill" fill="#32ADE6"></path>
    </g>
</svg>