<?xml version="1.0" encoding="UTF-8"?>
<svg width="60px" height="60px" viewBox="0 0 60 60" version="1.1" xmlns="http://www.w3.org/2000/svg" xmlns:xlink="http://www.w3.org/1999/xlink">
    <title>3 Iconos/Relleno/folder-fill</title>
    <g id="3-Iconos/Relleno/folder-fill" stroke="none" stroke-width="1" fill="none" fill-rule="evenodd">
        <path d="M6.71337891,42.4072266 L6.71337891,25.5908203 L53.2866211,25.5908203 L53.2866211,42.4072266 C53.2866211,44.5263672 52.7739258,46.1157227 51.7485352,47.175293 C50.7231445,48.2348633 49.2944336,48.7646484 47.4624023,48.7646484 L13.152832,48.7646484 C11.0063477,48.7646484 9.39648438,48.2348633 8.32324219,47.175293 C7.25,46.1157227 6.71337891,44.5263672 6.71337891,42.4072266 Z M6.71337891,22.9042969 L6.71337891,17.4082031 C6.71337891,15.34375 7.20556641,13.7988281 8.18994141,12.7734375 C9.17431641,11.7480469 10.5688477,11.2353516 12.3735352,11.2353516 L18.2182617,11.2353516 C18.8881836,11.2353516 19.4726562,11.2832031 19.9716797,11.3789062 C20.4707031,11.4746094 20.9287109,11.6318359 21.3457031,11.8505859 C21.7626953,12.0693359 22.1967773,12.3701172 22.6479492,12.7529297 L23.8989258,13.7783203 C24.418457,14.2158203 24.9174805,14.5268555 25.3959961,14.7114258 C25.8745117,14.8959961 26.4624023,14.9882812 27.159668,14.9882812 L46.847168,14.9882812 C48.9799805,14.9882812 50.5864258,15.5214844 51.6665039,16.5878906 C52.746582,17.6542969 53.2866211,19.2402344 53.2866211,21.3457031 L53.2866211,22.9042969 L6.71337891,22.9042969 Z" id="folder-fill" fill="#32ADE6"></path>
    </g>
</svg>