<?xml version="1.0" encoding="UTF-8"?>
<svg width="60px" height="60px" viewBox="0 0 60 60" version="1.1" xmlns="http://www.w3.org/2000/svg" xmlns:xlink="http://www.w3.org/1999/xlink">
    <title>3 Iconos/Relleno/photo-fill</title>
    <g id="3-Iconos/Relleno/photo-fill" stroke="none" stroke-width="1" fill="none" fill-rule="evenodd">
        <path d="M12.9338379,45.0391846 L47.0859375,45.0391846 C48.0219727,45.0391846 48.7635498,44.7689209 49.3106689,44.2283936 C49.8577881,43.6878662 50.1313477,42.9429932 50.1313477,41.9937744 L50.1313477,38.9483643 L41.034668,30.5240479 C40.5732422,30.0889893 40.0689697,29.7659912 39.5218506,29.5550537 C38.9747314,29.3441162 38.4309082,29.2386475 37.8903809,29.2386475 C36.7302246,29.2386475 35.6689453,29.6605225 34.706543,30.5042725 L25.2539062,38.8890381 L21.4768066,35.4876709 C20.6066895,34.6834717 19.6574707,34.2813721 18.6291504,34.2813721 C18.1940918,34.2813721 17.7458496,34.380249 17.2844238,34.5780029 C16.822998,34.7757568 16.3747559,35.0657959 15.9396973,35.4481201 L9.86865234,40.7479248 L9.86865234,41.9542236 C9.86865234,42.916626 10.1422119,43.6713867 10.6893311,44.2185059 C11.2364502,44.765625 11.9846191,45.0391846 12.9338379,45.0391846 Z M21.5163574,30.5042725 C22.3996582,30.5042725 23.2104492,30.2834473 23.9487305,29.8417969 C24.6870117,29.4001465 25.2769775,28.8101807 25.7186279,28.0718994 C26.1602783,27.3336182 26.3811035,26.5162354 26.3811035,25.619751 C26.3811035,24.7232666 26.1602783,23.9058838 25.7186279,23.1676025 C25.2769775,22.4293213 24.6870117,21.8393555 23.9487305,21.3977051 C23.2104492,20.9560547 22.3996582,20.7352295 21.5163574,20.7352295 C20.619873,20.7352295 19.8024902,20.9560547 19.064209,21.3977051 C18.3259277,21.8393555 17.7359619,22.4293213 17.2943115,23.1676025 C16.8526611,23.9058838 16.6318359,24.7232666 16.6318359,25.619751 C16.6318359,26.5162354 16.8526611,27.3336182 17.2943115,28.0718994 C17.7359619,28.8101807 18.3259277,29.4001465 19.064209,29.8417969 C19.8024902,30.2834473 20.619873,30.5042725 21.5163574,30.5042725 Z M12.8942871,48.2032471 C10.8244629,48.2032471 9.27209473,47.6923828 8.23718262,46.6706543 C7.20227051,45.6489258 6.68481445,44.1229248 6.68481445,42.0926514 L6.68481445,17.927124 C6.68481445,15.883667 7.20227051,14.3510742 8.23718262,13.3293457 C9.27209473,12.3076172 10.8244629,11.7967529 12.8942871,11.7967529 L47.1057129,11.7967529 C49.1887207,11.7967529 50.7443848,12.3109131 51.7727051,13.3392334 C52.8010254,14.3675537 53.3151855,15.8968506 53.3151855,17.927124 L53.3151855,42.0926514 C53.3151855,44.1229248 52.8010254,45.6489258 51.7727051,46.6706543 C50.7443848,47.6923828 49.1887207,48.2032471 47.1057129,48.2032471 L12.8942871,48.2032471 Z" id="photo-fill" fill="#E5CC00"></path>
    </g>
</svg>