<?xml version="1.0" encoding="UTF-8"?>
<svg width="60px" height="60px" viewBox="0 0 60 60" version="1.1" xmlns="http://www.w3.org/2000/svg" xmlns:xlink="http://www.w3.org/1999/xlink">
    <title>3 Iconos/Relleno/play-rectangle-fill</title>
    <g id="3-Iconos/Relleno/play-rectangle-fill" stroke="none" stroke-width="1" fill="none" fill-rule="evenodd">
        <path d="M12.8942871,48.2032471 C10.8244629,48.2032471 9.27209473,47.6923828 8.23718262,46.6706543 C7.20227051,45.6489258 6.68481445,44.1229248 6.68481445,42.0926514 L6.68481445,17.927124 C6.68481445,15.883667 7.20227051,14.3510742 8.23718262,13.3293457 C9.27209473,12.3076172 10.8244629,11.7967529 12.8942871,11.7967529 L47.1057129,11.7967529 C49.1887207,11.7967529 50.7443848,12.3109131 51.7727051,13.3392334 C52.8010254,14.3675537 53.3151855,15.8968506 53.3151855,17.927124 L53.3151855,42.0926514 C53.3151855,44.1229248 52.8010254,45.6489258 51.7727051,46.6706543 C50.7443848,47.6923828 49.1887207,48.2032471 47.1057129,48.2032471 L12.8942871,48.2032471 Z M26.2426758,37.9793701 L37.8706055,31.137085 C38.1474609,30.9656982 38.3320312,30.7382812 38.4243164,30.454834 C38.5166016,30.1713867 38.5166016,29.8879395 38.4243164,29.6044922 C38.3320312,29.3210449 38.1474609,29.1002197 37.8706055,28.9420166 L26.2426758,22.0601807 C25.9526367,21.8887939 25.6494141,21.8162842 25.3330078,21.8426514 C25.0166016,21.8690186 24.7496338,21.9744873 24.5321045,22.1590576 C24.3145752,22.3436279 24.2058105,22.600708 24.2058105,22.9302979 L24.2058105,37.1092529 C24.2058105,37.4388428 24.3112793,37.7025146 24.5222168,37.9002686 C24.7331543,38.0980225 24.9935303,38.210083 25.3033447,38.2364502 C25.6131592,38.2628174 25.9262695,38.177124 26.2426758,37.9793701 Z" id="play-rectangle-fill" fill="#8F8F94"></path>
    </g>
</svg>