<?xml version="1.0" encoding="UTF-8"?>
<svg width="61px" height="61px" viewBox="0 0 61 61" version="1.1" xmlns="http://www.w3.org/2000/svg" xmlns:xlink="http://www.w3.org/1999/xlink">
    <title>arrow.down.to.line.circle.fill</title>
    <g id="Symbols" stroke="none" stroke-width="1" fill="none" fill-rule="evenodd">
        <g id="arrow.down.to.line.circle.fill" transform="translate(-9, -10)" fill="#FF0000" fill-rule="nonzero">
            <path d="M39.8730752,70.3769531 C35.7255179,70.3769531 31.8421679,69.5992861 28.2230253,68.0439521 C24.6038828,66.4886181 21.4184391,64.3300937 18.6666943,61.5683788 C15.9149496,58.806664 13.7614102,55.6162353 12.2060762,51.9970927 C10.6507422,48.3779501 9.87307519,44.5045703 9.87307519,40.3769531 C9.87307519,36.249336 10.6507422,32.3709711 12.2060762,28.7418584 C13.7614102,25.1127457 15.9149496,21.922317 18.6666943,19.1705723 C21.4184391,16.4188275 24.6038828,14.2652881 28.2230253,12.7099541 C31.8421679,11.1546201 35.7255179,10.3769531 39.8730752,10.3769531 C44.0006923,10.3769531 47.8790572,11.1546201 51.5081699,12.7099541 C55.1372826,14.2652881 58.3227262,16.4188275 61.0645009,19.1705723 C63.8062756,21.922317 65.959815,25.1127457 67.5251191,28.7418584 C69.0904231,32.3709711 69.8730752,36.249336 69.8730752,40.3769531 C69.8730752,44.5045703 69.0904231,48.3779501 67.5251191,51.9970927 C65.959815,55.6162353 63.8062756,58.806664 61.0645009,61.5683788 C58.3227262,64.3300937 55.1372826,66.4886181 51.5081699,68.0439521 C47.8790572,69.5992861 44.0006923,70.3769531 39.8730752,70.3769531 Z M39.8431649,50.5763549 C40.0425667,50.5763549 40.2469536,50.5215194 40.4563254,50.4118484 C40.6656973,50.3021775 40.8601141,50.1675812 41.0395757,50.0080598 L51.5679904,39.3899142 C51.7673922,39.1905124 51.9169436,38.9861256 52.0166445,38.7767537 C52.1163454,38.5673818 52.1661958,38.3330847 52.1661958,38.0738624 C52.1661958,37.6351784 52.0216295,37.2613001 51.7324969,36.9522273 C51.4433643,36.6431545 51.069486,36.4886181 50.6108618,36.4886181 C50.3715797,36.4886181 50.1472527,36.5284985 49.9378808,36.6082592 C49.7285089,36.6880199 49.5340921,36.8176311 49.3546305,36.9970927 L46.6926166,39.7189272 L41.189127,45.700981 L41.4284092,40.0778504 L41.4284092,24.913344 C41.4284092,24.4347796 41.2788578,24.0459461 40.9797551,23.7468435 C40.6806525,23.4477408 40.301789,23.2981894 39.8431649,23.2981894 C39.3247203,23.2981894 38.9159466,23.4477408 38.6168439,23.7468435 C38.3177412,24.0459461 38.1681898,24.4347796 38.1681898,24.913344 L38.1681898,40.0778504 L38.4373823,45.7308913 L32.8142517,39.6591067 L30.301789,36.9970927 C30.1622078,36.8176311 29.9877312,36.6880199 29.7783593,36.6082592 C29.5689875,36.5284985 29.3346903,36.4886181 29.075468,36.4886181 C28.5969037,36.4886181 28.2130552,36.6381695 27.9239226,36.9372722 C27.63479,37.2363749 27.4902237,37.6152383 27.4902237,38.0738624 C27.4902237,38.2932044 27.5400742,38.5175314 27.6397751,38.7468435 C27.739476,38.9761555 27.8790572,39.1705723 28.0585189,39.3300937 L38.6168439,50.0080598 C38.7963055,50.2074616 38.9857372,50.3520279 39.185139,50.4417587 C39.3845408,50.5314895 39.6038828,50.5763549 39.8431649,50.5763549 Z M28.4174421,56.4088574 L51.2688877,56.4088574 C51.7275119,56.4088574 52.1063753,56.254321 52.405478,55.9452482 C52.7045807,55.6361755 52.854132,55.2423569 52.854132,54.7637926 C52.854132,54.3051685 52.7045807,53.9263051 52.405478,53.6272024 C52.1063753,53.3280997 51.7275119,53.1785483 51.2688877,53.1785483 L28.4174421,53.1785483 C27.9388778,53.1785483 27.5550293,53.3280997 27.2658967,53.6272024 C26.9767641,53.9263051 26.8321978,54.3051685 26.8321978,54.7637926 C26.8321978,55.2423569 26.9767641,55.6361755 27.2658967,55.9452482 C27.5550293,56.254321 27.9388778,56.4088574 28.4174421,56.4088574 Z"></path>
        </g>
    </g>
</svg>
