<?xml version="1.0" encoding="UTF-8"?>
<svg width="61px" height="61px" viewBox="0 0 61 61" version="1.1" xmlns="http://www.w3.org/2000/svg" xmlns:xlink="http://www.w3.org/1999/xlink">
    <title>arrow.down.to.line.circle.fill</title>
    <g id="Symbols" stroke="none" stroke-width="1" fill="none" fill-rule="evenodd">
        <g id="arrow.down.to.line.circle.fill" transform="translate(-9, -10)" fill="#FFFFFF" fill-rule="nonzero">
            <path d="M39.8597192,70.3624393 C35.7184517,70.3624393 31.8384323,69.5835327 28.2196612,68.0257195 C24.60089,66.4679062 21.4175325,64.3150276 18.6695886,61.5670837 C15.9216447,58.8191399 13.7687661,55.6357823 12.2109529,52.0170112 C10.6531396,48.39824 9.87423301,44.5182207 9.87423301,40.3769531 C9.87423301,36.2356856 10.6531396,32.3508283 12.2109529,28.7223813 C13.7687661,25.0939343 15.9216447,21.9105767 18.6695886,19.1723087 C21.4175325,16.4340407 24.60089,14.2860001 28.2196612,12.7281868 C31.8384323,11.1703735 35.7184517,10.3914669 39.8597192,10.3914669 C44.0009868,10.3914669 47.885844,11.1703735 51.5142911,12.7281868 C55.1427381,14.2860001 58.3309335,16.4340407 61.0788774,19.1723087 C63.8268213,21.9105767 65.9796999,25.0939343 67.5375131,28.7223813 C69.0953264,32.3508283 69.874233,36.2356856 69.874233,40.3769531 C69.874233,44.5182207 69.0953264,48.39824 67.5375131,52.0170112 C65.9796999,55.6357823 63.8268213,58.8191399 61.0788774,61.5670837 C58.3309335,64.3150276 55.1427381,66.4679062 51.5142911,68.0257195 C47.885844,69.5835327 44.0009868,70.3624393 39.8597192,70.3624393 Z M39.8306916,49.6367499 C40.1596708,49.6367499 40.4644604,49.564181 40.7450603,49.4190431 C41.0256602,49.2739052 41.2917463,49.0949018 41.5433186,48.882033 L51.4997773,38.8675192 C51.7707013,38.6352986 51.9593806,38.3740504 52.065815,38.0837746 C52.1722495,37.7934988 52.2254667,37.4935472 52.2254667,37.1839197 C52.2254667,36.5453131 52.0222736,36.0083029 51.6158876,35.5728893 C51.2095015,35.1374756 50.696681,34.9197688 50.077426,34.9197688 C49.7484468,34.9197688 49.4388194,34.9826619 49.1485436,35.108448 C48.8582678,35.2342342 48.6066955,35.4132376 48.3938266,35.6454582 L46.5070342,37.5322507 L41.7755392,42.9313798 L42.0948426,37.7934988 L42.0948426,25.3116411 C42.0948426,24.634331 41.8819737,24.0779691 41.4562359,23.6425554 C41.0304981,23.2071418 40.48865,22.989435 39.8306916,22.989435 C39.1340298,22.989435 38.57283,23.2071418 38.1470922,23.6425554 C37.7213544,24.0779691 37.5084855,24.634331 37.5084855,25.3116411 L37.5084855,37.7934988 L37.885844,42.9313798 L33.0672664,37.5032231 L31.2965842,35.6454582 C31.1030671,35.4132376 30.8708465,35.2342342 30.5999224,35.108448 C30.3289984,34.9826619 30.0193709,34.9197688 29.67104,34.9197688 C29.0130816,34.9197688 28.4809093,35.1326377 28.0745233,35.5583755 C27.6681372,35.9841133 27.4649442,36.5259613 27.4649442,37.1839197 C27.4649442,37.4548438 27.5278373,37.7451195 27.6536234,38.054747 C27.7794096,38.3643745 27.958413,38.6352986 28.1906336,38.8675192 L38.1180646,48.882033 C38.3502853,49.1142536 38.6115334,49.2980949 38.9018092,49.4335569 C39.192085,49.5690189 39.5017124,49.6367499 39.8306916,49.6367499 Z M28.8292403,56.2260097 L50.8901982,56.2260097 C51.5288049,56.2260097 52.0561392,56.0083029 52.4722011,55.5728893 C52.888263,55.1374756 53.096294,54.5907896 53.096294,53.9328312 C53.096294,53.3135763 52.888263,52.7910799 52.4722011,52.3653421 C52.0561392,51.9396043 51.5288049,51.7267354 50.8901982,51.7267354 L28.8292403,51.7267354 C28.1906336,51.7267354 27.6584614,51.9396043 27.2327236,52.3653421 C26.8069858,52.7910799 26.5941169,53.3135763 26.5941169,53.9328312 C26.5941169,54.5907896 26.8069858,55.1374756 27.2327236,55.5728893 C27.6584614,56.0083029 28.1906336,56.2260097 28.8292403,56.2260097 Z"></path>
        </g>
    </g>
</svg>