<?xml version="1.0" encoding="UTF-8"?>
<svg width="120px" height="120px" viewBox="0 0 120 120" version="1.1" xmlns="http://www.w3.org/2000/svg" xmlns:xlink="http://www.w3.org/1999/xlink">
    <title>3 Iconos/Sin categoría/photo-fill</title>
    <g id="3-Iconos/Sin-categoría/photo-fill" stroke="none" stroke-width="1" fill="none" fill-rule="evenodd">
        <polygon id="Recuadro" fill="#F1EFEB" points="0 0 120 0 120 120 0 120"></polygon>
        <path d="M34.3808312,82.5763359 L85.648855,82.5763359 C87.0540006,82.5763359 88.1672321,82.1706248 88.9885496,81.3592027 C89.8098671,80.5477806 90.2205259,79.4296014 90.2205259,78.004665 L90.2205259,73.4329941 L76.5648855,60.7866836 C75.8722081,60.1335878 75.1152106,59.6487136 74.2938931,59.3320611 C73.4725756,59.0154085 72.6562058,58.8570823 71.8447837,58.8570823 C70.1031948,58.8570823 68.5100368,59.4903873 67.0653096,60.7569975 L52.8753181,73.3439355 L47.2052587,68.2379135 C45.899067,67.0306757 44.4741306,66.4270568 42.9304495,66.4270568 C42.2773537,66.4270568 41.6044671,66.5754877 40.9117897,66.8723494 C40.2191122,67.1692112 39.5462256,67.6046084 38.8931298,68.1785411 L29.7794741,76.134436 L29.7794741,77.9452926 C29.7794741,79.3900198 30.1901329,80.5230421 31.0114504,81.3443596 C31.8327679,82.1656771 32.9558948,82.5763359 34.3808312,82.5763359 Z M47.264631,60.7569975 C48.5906135,60.7569975 49.8077467,60.4255018 50.9160305,59.7625106 C52.0243144,59.0995194 52.9099519,58.2138818 53.5729432,57.105598 C54.2359344,55.9973141 54.56743,54.7702856 54.56743,53.4245123 C54.56743,52.078739 54.2359344,50.8517105 53.5729432,49.7434266 C52.9099519,48.6351428 52.0243144,47.7495052 50.9160305,47.086514 C49.8077467,46.4235228 48.5906135,46.0920271 47.264631,46.0920271 C45.9188578,46.0920271 44.6918292,46.4235228 43.5835454,47.086514 C42.4752615,47.7495052 41.589624,48.6351428 40.9266327,49.7434266 C40.2636415,50.8517105 39.9321459,52.078739 39.9321459,53.4245123 C39.9321459,54.7702856 40.2636415,55.9973141 40.9266327,57.105598 C41.589624,58.2138818 42.4752615,59.0995194 43.5835454,59.7625106 C44.6918292,60.4255018 45.9188578,60.7569975 47.264631,60.7569975 Z M34.3214589,87.3261238 C31.2143059,87.3261238 28.8839412,86.559231 27.3303647,85.0254453 C25.7767882,83.4916596 25,81.2008764 25,78.1530958 L25,41.8765903 C25,38.8090189 25.7767882,36.5083404 27.3303647,34.9745547 C28.8839412,33.440769 31.2143059,32.6738762 34.3214589,32.6738762 L85.6785411,32.6738762 C88.8054849,32.6738762 91.1407973,33.4457167 92.6844784,34.9893978 C94.2281595,36.5330789 95,38.8288097 95,41.8765903 L95,78.1530958 C95,81.2008764 94.2281595,83.4916596 92.6844784,85.0254453 C91.1407973,86.559231 88.8054849,87.3261238 85.6785411,87.3261238 L34.3214589,87.3261238 Z" id="photo-fill" fill="#E5CC00"></path>
    </g>
</svg>