<?xml version="1.0" encoding="UTF-8"?>
<svg width="120px" height="120px" viewBox="0 0 120 120" version="1.1" xmlns="http://www.w3.org/2000/svg" xmlns:xlink="http://www.w3.org/1999/xlink">
    <title>3 Iconos/Sin categoría/film</title>
    <g id="3-Iconos/Sin-categoría/film" stroke="none" stroke-width="1" fill="none" fill-rule="evenodd">
        <polygon id="Recuadro" fill="#EBEBF1" points="0 0 120 0 120 120 0 120"></polygon>
        <path d="M31.8657413,87.7874506 C29.8040705,87.7874506 28.1443625,87.1652519 26.8866175,85.9208545 C25.6288725,84.6764571 25,83.0301735 25,80.9820037 L25,39.0074102 C25,36.960161 25.6288725,35.3158718 26.8866175,34.0745429 C28.1443625,32.8332139 29.8040705,32.2125494 31.8657413,32.2125494 L88.1250534,32.2125494 C90.2063621,32.2125494 91.8725138,32.8332139 93.1235083,34.0745429 C94.3745028,35.3158718 95,36.960161 95,39.0074102 L95,80.9820037 C95,83.0301735 94.3745028,84.6764571 93.1235083,85.9208545 C91.8725138,87.1652519 90.2063621,87.7874506 88.1250534,87.7874506 L31.8657413,87.7874506 Z M31.9324794,81.85098 L35.1672069,81.85098 C35.5740793,81.85098 35.9005591,81.7212626 36.1466463,81.4618278 C36.3927335,81.2023929 36.5157772,80.8758364 36.5157772,80.4821582 L36.5157772,77.5686942 C36.5157772,77.1750161 36.3927335,76.853369 36.1466463,76.6037531 C35.9005591,76.3541372 35.5740793,76.2293293 35.1672069,76.2293293 L31.8519334,76.2293293 C31.4511979,76.2293293 31.122877,76.3541372 30.8669709,76.6037531 C30.6110647,76.853369 30.4831116,77.1750161 30.4831116,77.5686942 L30.4831116,80.4218638 C30.4831116,81.374608 30.9662342,81.85098 31.9324794,81.85098 Z M31.8519334,72.296383 L35.1672069,72.296383 C35.5740793,72.296383 35.9005591,72.1617561 36.1466463,71.8925023 C36.3927335,71.6232485 36.5157772,71.3052836 36.5157772,70.9386075 L36.5157772,68.0748519 C36.5157772,67.6676727 36.3927335,67.3362067 36.1466463,67.080454 C35.9005591,66.8247012 35.5740793,66.6968248 35.1672069,66.6968248 L31.8519334,66.6968248 C31.4511979,66.6968248 31.122877,66.8247012 30.8669709,67.080454 C30.6110647,67.3362067 30.4831116,67.6676727 30.4831116,68.0748519 L30.4831116,70.9386075 C30.4831116,71.3052836 30.6110647,71.6232485 30.8669709,71.8925023 C31.122877,72.1617561 31.4511979,72.296383 31.8519334,72.296383 Z M31.8519334,62.7712428 L35.1672069,62.7712428 C35.5740793,62.7712428 35.9005591,62.6399911 36.1466463,62.3774879 C36.3927335,62.1149846 36.5157772,61.8033099 36.5157772,61.4424639 L36.5157772,58.569503 C36.5157772,58.1684606 36.3927335,57.840063 36.1466463,57.5843103 C35.9005591,57.3285576 35.5740793,57.2006812 35.1672069,57.2006812 L31.8519334,57.2006812 C31.4511979,57.2006812 31.122877,57.3285576 30.8669709,57.5843103 C30.6110647,57.840063 30.4831116,58.1684606 30.4831116,58.569503 L30.4831116,61.4424639 C30.4831116,61.8033099 30.6110647,62.1149846 30.8669709,62.3774879 C31.122877,62.6399911 31.4511979,62.7712428 31.8519334,62.7712428 Z M31.8519334,53.3156023 L35.1672069,53.3156023 C35.5740793,53.3156023 35.9005591,53.1843506 36.1466463,52.9218474 C36.3927335,52.6593441 36.5157772,52.3476694 36.5157772,51.9868233 L36.5157772,49.0936109 C36.5157772,48.6864317 36.3927335,48.3549657 36.1466463,48.099213 C35.9005591,47.8434602 35.5740793,47.7155838 35.1672069,47.7155838 L31.8519334,47.7155838 C31.4511979,47.7155838 31.122877,47.8434602 30.8669709,48.099213 C30.6110647,48.3549657 30.4831116,48.6864317 30.4831116,49.0936109 L30.4831116,51.9868233 C30.4831116,52.3476694 30.6110647,52.6593441 30.8669709,52.9218474 C31.122877,53.1843506 31.4511979,53.3156023 31.8519334,53.3156023 Z M31.8519334,43.7425947 L35.1672069,43.7425947 C35.5740793,43.7425947 35.9005591,43.6144115 36.1466463,43.3580451 C36.3927335,43.1016786 36.5157772,42.7901574 36.5157772,42.4234813 L36.5157772,39.4897657 C36.5157772,39.0825865 36.3927335,38.7526547 36.1466463,38.4999704 C35.9005591,38.2472861 35.5740793,38.1209439 35.1672069,38.1209439 L31.9324794,38.1209439 C30.9662342,38.1209439 30.4831116,38.6040665 30.4831116,39.5703117 L30.4831116,42.4234813 C30.4831116,42.7901574 30.6110647,43.1016786 30.8669709,43.3580451 C31.122877,43.6144115 31.4511979,43.7425947 31.8519334,43.7425947 Z M42.9037656,81.85098 L77.0138473,81.85098 C77.4833155,81.85098 77.8624954,81.7064575 78.151387,81.4174124 C78.4402787,81.1283673 78.5847245,80.7425136 78.5847245,80.2598513 L78.5847245,64.5506191 C78.5847245,64.0814578 78.4402787,63.7023546 78.151387,63.4133095 C77.8624954,63.1242644 77.4833155,62.9797419 77.0138473,62.9797419 L42.9037656,62.9797419 C42.4146596,62.9797419 42.027195,63.1242644 41.7413717,63.4133095 C41.4555485,63.7023546 41.3126368,64.0814578 41.3126368,64.5506191 L41.3126368,80.2598513 C41.3126368,80.7425136 41.4555485,81.1283673 41.7413717,81.4174124 C42.027195,81.7064575 42.4146596,81.85098 42.9037656,81.85098 Z M42.9037656,57.032225 L77.0138473,57.032225 C77.4833155,57.032225 77.8624954,56.8877791 78.151387,56.5988875 C78.4402787,56.3099958 78.5847245,55.9308159 78.5847245,55.4613478 L78.5847245,39.6720298 C78.5847245,39.2025617 78.4402787,38.8266803 78.151387,38.5443858 C77.8624954,38.2620912 77.4833155,38.1209439 77.0138473,38.1209439 L42.9037656,38.1209439 C42.4146596,38.1209439 42.027195,38.2620912 41.7413717,38.5443858 C41.4555485,38.8266803 41.3126368,39.2025617 41.3126368,39.6720298 L41.3126368,55.4613478 C41.3126368,55.9308159 41.4555485,56.3099958 41.7413717,56.5988875 C42.027195,56.8877791 42.4146596,57.032225 42.9037656,57.032225 Z M84.7214095,81.85098 L87.9556767,81.85098 C88.9280587,81.85098 89.4142497,81.374608 89.4142497,80.4218638 L89.4142497,77.5686942 C89.4142497,77.1750161 89.2863734,76.853369 89.0306206,76.6037531 C88.7748679,76.3541372 88.4434019,76.2293293 88.0362227,76.2293293 L84.7214095,76.2293293 C84.3338681,76.2293293 84.0122211,76.3541372 83.7564683,76.6037531 C83.5007156,76.853369 83.3728392,77.1750161 83.3728392,77.5686942 L83.3728392,80.4821582 C83.3728392,80.8758364 83.5007156,81.2023929 83.7564683,81.4618278 C84.0122211,81.7212626 84.3338681,81.85098 84.7214095,81.85098 Z M84.7214095,72.296383 L88.0362227,72.296383 C88.4434019,72.296383 88.7748679,72.1617561 89.0306206,71.8925023 C89.2863734,71.6232485 89.4142497,71.3052836 89.4142497,70.9386075 L89.4142497,68.0748519 C89.4142497,67.6676727 89.2897486,67.3362067 89.0407464,67.080454 C88.7917442,66.8247012 88.456903,66.6968248 88.0362227,66.6968248 L84.7214095,66.6968248 C84.3338681,66.6968248 84.0122211,66.8247012 83.7564683,67.080454 C83.5007156,67.3362067 83.3728392,67.6676727 83.3728392,68.0748519 L83.3728392,70.9386075 C83.3728392,71.3052836 83.5007156,71.6232485 83.7564683,71.8925023 C84.0122211,72.1617561 84.3338681,72.296383 84.7214095,72.296383 Z M84.7214095,62.7712428 L88.0362227,62.7712428 C88.4434019,62.7712428 88.7748679,62.6399911 89.0306206,62.3774879 C89.2863734,62.1149846 89.4142497,61.8033099 89.4142497,61.4424639 L89.4142497,58.569503 C89.4142497,58.1684606 89.2897486,57.840063 89.0407464,57.5843103 C88.7917442,57.3285576 88.456903,57.2006812 88.0362227,57.2006812 L84.7214095,57.2006812 C84.3338681,57.2006812 84.0122211,57.3285576 83.7564683,57.5843103 C83.5007156,57.840063 83.3728392,58.1684606 83.3728392,58.569503 L83.3728392,61.4424639 C83.3728392,61.8033099 83.5007156,62.1149846 83.7564683,62.3774879 C84.0122211,62.6399911 84.3338681,62.7712428 84.7214095,62.7712428 Z M84.7214095,53.3156023 L88.0362227,53.3156023 C88.4434019,53.3156023 88.7748679,53.1843506 89.0306206,52.9218474 C89.2863734,52.6593441 89.4142497,52.3476694 89.4142497,51.9868233 L89.4142497,49.0936109 C89.4142497,48.6864317 89.2897486,48.3549657 89.0407464,48.099213 C88.7917442,47.8434602 88.456903,47.7155838 88.0362227,47.7155838 L84.7214095,47.7155838 C84.3338681,47.7155838 84.0122211,47.8434602 83.7564683,48.099213 C83.5007156,48.3549657 83.3728392,48.6864317 83.3728392,49.0936109 L83.3728392,51.9868233 C83.3728392,52.3476694 83.5007156,52.6593441 83.7564683,52.9218474 C84.0122211,53.1843506 84.3338681,53.3156023 84.7214095,53.3156023 Z M84.7214095,43.7425947 L88.0362227,43.7425947 C88.4434019,43.7425947 88.7748679,43.6144115 89.0306206,43.3580451 C89.2863734,43.1016786 89.4142497,42.7901574 89.4142497,42.4234813 L89.4142497,39.5703117 C89.4142497,38.6040665 88.9280587,38.1209439 87.9556767,38.1209439 L84.7214095,38.1209439 C84.3338681,38.1209439 84.0122211,38.2472861 83.7564683,38.4999704 C83.5007156,38.7526547 83.3728392,39.0825865 83.3728392,39.4897657 L83.3728392,42.4234813 C83.3728392,42.7901574 83.5007156,43.1016786 83.7564683,43.3580451 C84.0122211,43.6144115 84.3338681,43.7425947 84.7214095,43.7425947 Z" id="film" fill="#8F8F94" fill-rule="nonzero"></path>
    </g>
</svg>