<?xml version="1.0" encoding="UTF-8"?>
<svg width="120px" height="120px" viewBox="0 0 120 120" version="1.1" xmlns="http://www.w3.org/2000/svg" xmlns:xlink="http://www.w3.org/1999/xlink">
    <title>3 Iconos/Sin categoría/document-pdf-fill</title>
    <g id="3-Iconos/Sin-categoría/document-pdf-fill" stroke="none" stroke-width="1" fill="none" fill-rule="evenodd">
        <polygon id="Recuadro" fill="#F3E3E8" points="0 0 120 0 120 120 0 120"></polygon>
        <path d="M42.6629838,25 C39.2896375,25 36.758792,25.8603315 35.072676,27.57988 L35.072676,27.57988 C33.3854457,29.2994285 32.5418305,31.85702 32.5418305,35.2526547 L32.5418305,35.2526547 L32.5418305,84.7807779 C32.5418305,88.1975865 33.3854457,90.7551781 35.072676,92.4535526 L35.072676,92.4535526 C36.758792,94.1519271 39.2896375,95 42.6629838,95 L42.6629838,95 L77.3370162,95 C80.7092481,95 83.2400936,94.1452406 84.927324,92.4379507 L84.927324,92.4379507 C86.6145543,90.728432 87.4581695,88.1764125 87.4581695,84.7807779 L87.4581695,84.7807779 L87.4581695,55.1361183 L63.8191139,55.1361183 C59.7057934,55.1361183 57.6496904,53.0789009 57.6496904,48.964466 L57.6496904,48.964466 L57.6496904,25 L42.6629838,25 Z M62.1218538,48.8987152 C62.1218538,50.0744273 62.7202968,50.6628405 63.9182972,50.6628405 L63.9182972,50.6628405 L87.065894,50.6628405 C86.9577954,49.9875026 86.6736185,49.3132791 86.2167067,48.6379412 L86.2167067,48.6379412 C85.7597949,47.9637177 85.140178,47.2237435 84.355627,46.4180186 L84.355627,46.4180186 L66.3666757,28.1025425 C65.6044131,27.3179915 64.8755831,26.6928024 64.1790712,26.2247465 L64.1790712,26.2247465 C63.4825593,25.7566905 62.7960772,25.4691704 62.1218538,25.3588429 L62.1218538,25.3588429 L62.1218538,48.8987152 Z M68.1312189,70.4152206 L76.827866,70.4152206 L76.827866,72.8070423 L71.2752734,72.8070423 L71.2752734,75.7992573 L76.3277705,75.7992573 L76.3277705,78.1186418 L71.2752734,78.1186418 L71.2752734,82.7922365 L68.1312189,82.7922365 L68.1312189,70.4152206 Z M55.0590841,70.4152206 L60.1812324,70.4152206 C61.5408236,70.4152206 62.6552425,70.6603928 63.5230963,71.1535232 L63.5230963,71.1535232 C64.3965222,71.6466536 65.0359201,72.3543096 65.4538272,73.2695262 L65.4538272,73.2695262 C65.8731274,74.1847428 66.084867,75.2824455 66.084867,76.5514901 L66.084867,76.5514901 C66.084867,77.8386441 65.8675553,78.947491 65.4454691,79.8808169 L65.4454691,79.8808169 C65.0456713,80.7904614 64.3644827,81.5468733 63.502201,82.0413967 L63.502201,82.0413967 C62.6343472,82.5414922 61.5241073,82.7922365 60.1812324,82.7922365 L60.1812324,82.7922365 L55.0590841,82.7922365 L55.0590841,70.4152206 Z M43.1710195,70.4152206 L48.6860005,70.4152206 C49.6917636,70.4152206 50.53315,70.6088509 51.2073735,71.0030766 L51.2073735,71.0030766 C51.885776,71.3917302 52.3956227,71.909935 52.7396996,72.5576911 L52.7396996,72.5576911 C53.0865625,73.2096262 53.2592974,73.9270334 53.2592974,74.7085197 L53.2592974,74.7085197 C53.2592974,75.4941851 53.0809904,76.2115923 52.7313414,76.8495972 L52.7313414,76.8495972 C52.3761204,77.5001393 51.8398063,78.0322744 51.1850851,78.3819233 L51.1850851,78.3819233 C50.5011104,78.7343583 49.7474846,78.9293817 48.9799285,78.9530631 L48.9799285,78.9530631 L46.3150741,78.9530631 L46.3150741,82.7922365 L43.1710195,82.7922365 L43.1710195,70.4152206 Z M47.9644142,72.6997795 L47.9644142,72.7039586 L46.306716,72.7039586 L46.306716,76.7116879 L47.9644142,76.7116879 C48.3516748,76.721439 48.7375424,76.6406437 49.0871913,76.4748738 L49.0871913,76.4748738 C49.3950496,76.3258203 49.651366,76.0876132 49.8213149,75.7922922 L49.8213149,75.7922922 C49.9968358,75.4579665 50.0832033,75.0846361 50.0720591,74.7085197 L50.0720591,74.7085197 C50.0720591,74.0593707 49.886787,73.5592752 49.5106706,73.2179843 L49.5106706,73.2179843 C49.1094797,72.8808726 48.6038121,72.6956004 48.0828212,72.6956004 L48.0828212,72.6956004 C48.0438166,72.6956004 48.0034189,72.6969935 47.9644142,72.6997795 L47.9644142,72.6997795 Z M59.6839229,72.7736098 L59.6811369,72.7763958 L58.2045317,72.7763958 L58.2045317,80.4254892 L59.6811369,80.4254892 C60.2411324,80.4254892 60.7161535,80.3474798 61.1187374,80.1914612 L61.1187374,80.1914612 C61.5032119,80.0465867 61.8431097,79.8000215 62.1022121,79.479626 L62.1022121,79.479626 C62.3752448,79.1285841 62.5688751,78.7232141 62.6733519,78.2927698 L62.6733519,78.2927698 C62.7931519,77.8163557 62.8544449,77.2605392 62.8544449,76.6253204 L62.8544449,76.6253204 C62.8544449,75.778362 62.7457891,75.0707059 62.5256913,74.4953871 L62.5256913,74.4953871 C62.3390262,73.963252 61.97684,73.5077333 61.4990328,73.2040541 L61.4990328,73.2040541 C60.9891862,72.9198773 60.4152604,72.7694307 59.8315834,72.7694307 L59.8315834,72.7694307 C59.7828276,72.7694307 59.7340718,72.7708237 59.6839229,72.7736098 L59.6839229,72.7736098 Z" id="document-pdf-fill" fill="#E60000"></path>
    </g>
</svg>