<?xml version="1.0" encoding="UTF-8"?>
<svg width="120px" height="120px" viewBox="0 0 120 120" version="1.1" xmlns="http://www.w3.org/2000/svg" xmlns:xlink="http://www.w3.org/1999/xlink">
    <title>3 Iconos/Sin categoría/folder-fill</title>
    <g id="3-Iconos/Sin-categoría/folder-fill" stroke="none" stroke-width="1" fill="none" fill-rule="evenodd">
        <polygon id="Recuadro" fill="#E6EDF7" points="0 0 120 0 120 120 0 120"></polygon>
        <path d="M25,78.6481726 L25,53.3729635 L95,53.3729635 L95,78.6481726 C95,81.8332599 94.2294144,84.2220754 92.6882431,85.8146191 C91.1470718,87.4071628 88.9997064,88.2034346 86.2461471,88.2034346 L34.6785557,88.2034346 C31.4523705,88.2034346 29.0327315,87.4071628 27.4196389,85.8146191 C25.8065463,84.2220754 25,81.8332599 25,78.6481726 Z M25,49.3350947 L25,41.0744166 C25,37.971525 25.7397622,35.6494936 27.2192867,34.1083223 C28.6988111,32.567151 30.7948041,31.7965654 33.5072655,31.7965654 L42.2919419,31.7965654 C43.2988405,31.7965654 44.1773081,31.8684867 44.9273448,32.0123294 C45.6773815,32.156172 46.3657713,32.392485 46.9925143,32.7212682 C47.6192573,33.0500514 48.2716865,33.5021283 48.9498018,34.0774989 L50.8300308,35.6186702 C51.6108909,36.2762366 52.3609276,36.7437252 53.0801409,37.0211361 C53.7993542,37.2985469 54.682959,37.4372523 55.7309555,37.4372523 L85.3214443,37.4372523 C88.5270806,37.4372523 90.9415823,38.2386614 92.5649494,39.8414795 C94.1883165,41.4442977 95,43.8279759 95,46.9925143 L95,49.3350947 L25,49.3350947 Z" id="folder-fill" fill="#32ADE6"></path>
    </g>
</svg>