<svg width="80" height="80" xmlns="http://www.w3.org/2000/svg">
    <path d="M19.046 71.255c-3.327 0-5.834-.838-7.52-2.512-1.686-1.675-2.53-4.153-2.53-7.434V19.37c0-3.304.844-5.793 2.53-7.468 1.686-1.675 4.193-2.512 7.52-2.512h41.733c3.35 0 5.868.848 7.554 2.546s2.529 4.176 2.529 7.434V61.31c0 3.28-.843 5.759-2.53 7.434-1.685 1.674-4.203 2.512-7.553 2.512H19.046Zm-.287-3.704H61.1c1.927 0 3.418-.51 4.475-1.532 1.056-1.022 1.584-2.542 1.584-4.562V19.222c0-2.02-.528-3.546-1.584-4.579-1.057-1.033-2.548-1.55-4.475-1.55H18.76c-1.973 0-3.476.517-4.509 1.55-1.033 1.033-1.55 2.56-1.55 4.579v42.235c0 2.02.517 3.54 1.55 4.562 1.033 1.021 2.536 1.532 4.51 1.532Zm3.636-19.778a1.65 1.65 0 0 1-1.213-.495 1.65 1.65 0 0 1-.496-1.214c0-.455.165-.843.496-1.162a1.68 1.68 0 0 1 1.213-.478h34.248c.479 0 .878.16 1.197.478.319.32.478.707.478 1.162 0 .479-.16.883-.478 1.214-.32.33-.718.495-1.197.495H22.395Zm0 11.416a1.68 1.68 0 0 1-1.213-.478 1.594 1.594 0 0 1-.496-1.196c0-.456.165-.85.496-1.18a1.65 1.65 0 0 1 1.213-.495h24.78c.502 0 .918.165 1.248.495.33.33.496.724.496 1.18 0 .478-.166.877-.496 1.196-.33.319-.746.478-1.247.478h-24.78ZM20.891 23.2c0-.98.285-1.75.855-2.308.57-.558 1.344-.837 2.324-.837h9.16c.98 0 1.75.279 2.307.837.559.558.838 1.327.838 2.307v9.16c0 .98-.28 1.75-.838 2.307-.558.559-1.327.838-2.307.838h-9.16c-.98 0-1.755-.28-2.324-.838-.57-.558-.855-1.327-.855-2.307v-9.16Z" fill="#1D1D1F" fill-rule="nonzero"/>
</svg>
