<svg width="80" height="80" xmlns="http://www.w3.org/2000/svg">
    <path d="M8.623 65.558V15.234c0-.471.173-.89.518-1.258.345-.367.782-.55 1.311-.55.503 0 .925.183 1.268.55.342.368.513.787.513 1.258v48.044c0 .46.23.691.69.691h56.38c.485 0 .907.17 1.268.509.361.339.542.763.542 1.272 0 .516-.18.94-.542 1.273a1.813 1.813 0 0 1-1.268.498H10.607c-.599 0-1.079-.176-1.44-.528-.363-.352-.544-.83-.544-1.435Zm2.209-18.49v-3.239l19.463-11.23L43.94 44.597l22.078-13.67 1.56 2.38-23.844 14.706L30.03 35.957l-19.198 11.11ZM29.769 39.7a4.522 4.522 0 0 1-2.36-.639 4.865 4.865 0 0 1-1.709-1.705 4.514 4.514 0 0 1-.639-2.364c0-.864.213-1.654.64-2.368a4.736 4.736 0 0 1 1.709-1.695 4.602 4.602 0 0 1 2.359-.624 4.62 4.62 0 0 1 2.368.624 4.698 4.698 0 0 1 1.705 1.695c.423.714.634 1.504.634 2.368a4.54 4.54 0 0 1-.634 2.364 4.825 4.825 0 0 1-1.705 1.705 4.54 4.54 0 0 1-2.368.639ZM43.68 50.895a4.563 4.563 0 0 1-2.368-.634 4.778 4.778 0 0 1-1.705-1.706 4.564 4.564 0 0 1-.634-2.368c0-.864.211-1.654.634-2.368.422-.714.99-1.28 1.705-1.695a4.62 4.62 0 0 1 2.368-.624 4.62 4.62 0 0 1 2.368.624c.714.416 1.28.98 1.695 1.695a4.62 4.62 0 0 1 .624 2.368 4.62 4.62 0 0 1-.624 2.368 4.7 4.7 0 0 1-1.695 1.706 4.563 4.563 0 0 1-2.368.634Zm21.988-13.737a4.513 4.513 0 0 1-2.363-.638 4.88 4.88 0 0 1-1.705-1.705 4.514 4.514 0 0 1-.639-2.364c0-.865.213-1.654.639-2.368a4.828 4.828 0 0 1 1.705-1.705 4.54 4.54 0 0 1 2.363-.634c.865 0 1.655.211 2.369.634.714.422 1.282.99 1.705 1.705.422.714.634 1.503.634 2.368a4.54 4.54 0 0 1-.634 2.364 4.827 4.827 0 0 1-1.705 1.705 4.538 4.538 0 0 1-2.369.638Z" fill="#1D1D1F" fill-rule="nonzero"/>
</svg>
