<svg width="80" height="80" xmlns="http://www.w3.org/2000/svg">
    <path d="M9.868 56.747V29.694c0-.746.228-1.338.686-1.776.457-.437 1.081-.656 1.872-.656h7.247c.786 0 1.412.219 1.879.656.467.438.7 1.03.7 1.776v27.053c0 .759-.233 1.354-.7 1.785-.467.432-1.093.647-1.879.647h-7.247c-.79 0-1.415-.215-1.872-.647-.458-.43-.686-1.026-.686-1.785Zm15.87 0V16.071c0-.753.231-1.346.695-1.78.464-.435 1.078-.652 1.843-.652h7.267c.785 0 1.407.217 1.868.651.46.435.69 1.028.69 1.781v40.676c0 .759-.23 1.354-.69 1.785-.46.432-1.083.647-1.868.647h-7.267c-.765 0-1.38-.215-1.843-.647-.464-.43-.696-1.026-.696-1.785Zm15.867 0V22.862c0-.76.23-1.355.691-1.786.46-.43 1.077-.647 1.85-.647h7.265c.779 0 1.403.216 1.873.647.47.431.706 1.027.706 1.786v33.885c0 .759-.235 1.354-.706 1.785-.47.432-1.094.647-1.873.647h-7.266c-.772 0-1.388-.215-1.849-.647-.46-.43-.69-1.026-.69-1.785Zm15.88 0V36.312c0-.753.23-1.35.69-1.791.46-.441 1.083-.662 1.868-.662h7.247c.779 0 1.4.22 1.863.662.464.44.696 1.038.696 1.79v20.436c0 .759-.232 1.354-.696 1.785-.463.432-1.084.647-1.863.647h-7.247c-.785 0-1.407-.215-1.868-.647-.46-.43-.69-1.026-.69-1.785Zm-49.91 8.54c0-.504.18-.926.542-1.268a1.762 1.762 0 0 1 1.248-.514h60.986c.485 0 .907.172 1.269.514.36.342.541.764.541 1.268 0 .522-.18.95-.541 1.282a1.814 1.814 0 0 1-1.269.498H9.365c-.471 0-.887-.166-1.248-.498-.361-.332-.542-.76-.542-1.282Z" fill="#000" fill-rule="nonzero"/>
</svg>
