<svg width="80" height="80" xmlns="http://www.w3.org/2000/svg">
    <path d="M8.878 57.089V29.133c0-.77.237-1.381.71-1.834.472-.452 1.117-.679 1.934-.679h7.489c.812 0 1.459.227 1.941.68.482.452.723 1.063.723 1.833V57.09c0 .784-.24 1.399-.723 1.844-.482.446-1.13.669-1.941.669h-7.489c-.817 0-1.462-.223-1.935-.669-.472-.445-.709-1.06-.709-1.844Zm16.399 0V15.057c0-.778.24-1.392.719-1.84.479-.449 1.114-.673 1.904-.673h7.51c.81 0 1.454.224 1.93.673.475.448.713 1.062.713 1.84v42.032c0 .784-.238 1.399-.713 1.844-.476.446-1.12.669-1.93.669H27.9c-.79 0-1.425-.223-1.904-.669-.48-.445-.719-1.06-.719-1.844Zm16.397 0V22.074c0-.785.238-1.4.714-1.845.476-.446 1.113-.669 1.91-.669h7.509c.804 0 1.45.223 1.935.669.486.445.73 1.06.73 1.845v35.015c0 .784-.244 1.399-.73 1.844-.486.446-1.13.669-1.935.669h-7.508c-.798 0-1.435-.223-1.911-.669-.476-.445-.714-1.06-.714-1.844Zm16.408 0V35.972c0-.778.238-1.395.714-1.85.476-.456 1.12-.684 1.93-.684h7.49c.803 0 1.445.228 1.924.683.48.456.719 1.073.719 1.85V57.09c0 .784-.24 1.399-.719 1.844-.479.446-1.12.669-1.925.669h-7.49c-.81 0-1.453-.223-1.929-.669-.476-.445-.714-1.06-.714-1.844ZM6.51 65.913c0-.52.187-.957.56-1.31.373-.354.803-.53 1.29-.53h63.019c.5 0 .938.176 1.31.53.374.353.56.79.56 1.31 0 .54-.186.981-.56 1.325-.372.343-.81.515-1.31.515H8.358c-.486 0-.916-.172-1.289-.515-.373-.344-.56-.785-.56-1.325Z" fill="#000" fill-rule="nonzero"/>
</svg>
