<svg width="60" height="60" xmlns="http://www.w3.org/2000/svg">
    <path d="M14.37 53.064c-2.49 0-4.348-.614-5.576-1.841-1.228-1.227-1.842-3.103-1.842-5.627v-5.419c0-.415-.147-.778-.441-1.089l-3.84-3.837C.892 33.487 0 31.74 0 30.013c0-1.729.89-3.483 2.672-5.264l3.839-3.863c.294-.294.441-.648.441-1.063v-5.445c0-2.524.61-4.39 1.829-5.6 1.219-1.21 3.082-1.816 5.59-1.816h5.447c.433 0 .787-.147 1.064-.44l3.865-3.838C26.528.904 28.28.009 30 0c1.72-.009 3.472.886 5.253 2.684l3.865 3.837c.294.294.649.441 1.064.441h5.447c2.508 0 4.371.614 5.59 1.841 1.22 1.227 1.829 3.086 1.829 5.575v5.445c0 .415.156.77.467 1.063l3.84 3.863C59.117 26.53 60 28.284 60 30.013s-.882 3.474-2.646 5.238l-3.84 3.837a1.492 1.492 0 0 0-.466 1.09v5.418c0 2.524-.61 4.4-1.829 5.627-1.219 1.227-3.082 1.84-5.59 1.84h-5.447c-.415 0-.77.148-1.064.442l-3.865 3.837c-1.764 1.763-3.51 2.65-5.24 2.658-1.73.009-3.485-.877-5.266-2.658l-3.865-3.837c-.277-.294-.631-.441-1.064-.441h-5.447Zm12.79-10.087c.57 0 1.093-.133 1.569-.401a3.713 3.713 0 0 0 1.232-1.154l12.062-18.41c.208-.328.376-.665.506-1.011a2.87 2.87 0 0 0 .195-1.011c0-.795-.299-1.452-.895-1.97a3.05 3.05 0 0 0-2.062-.779c-1.02 0-1.877.553-2.569 1.66l-10.09 16.05-4.54-5.55c-.346-.431-.705-.742-1.076-.933-.372-.19-.8-.285-1.284-.285-.779 0-1.453.281-2.024.843a2.752 2.752 0 0 0-.856 2.035c0 .38.07.744.208 1.09.138.345.354.7.648 1.062l6.07 7.26c.415.502.856.878 1.323 1.129.467.25.995.375 1.583.375Z" fill="#FA243C" fill-rule="evenodd"/>
</svg>
