<svg width="60" height="60" xmlns="http://www.w3.org/2000/svg">
    <path d="M29.986 60c-4.127 0-8.003-.777-11.628-2.33a30.062 30.062 0 0 1-9.555-6.463c-2.745-2.755-4.899-5.947-6.46-9.573C.78 38.007 0 34.129 0 30c0-4.148.78-8.035 2.343-11.662 1.561-3.627 3.715-6.813 6.46-9.56 2.745-2.746 5.93-4.895 9.555-6.448C21.983.777 25.859 0 29.986 0c4.146 0 8.031.777 11.656 2.33s6.81 3.702 9.555 6.448c2.745 2.747 4.899 5.933 6.46 9.56C59.22 21.965 60 25.852 60 30c0 4.129-.78 8.007-2.343 11.634-1.561 3.626-3.715 6.818-6.46 9.573a30.062 30.062 0 0 1-9.555 6.463C38.017 59.223 34.132 60 29.986 60Zm-3.124-15.767c.625 0 1.198-.147 1.718-.44.52-.294.97-.715 1.349-1.265l13.204-20.17c.227-.36.412-.73.554-1.108.142-.379.213-.748.213-1.108 0-.871-.327-1.59-.98-2.159a3.338 3.338 0 0 0-2.257-.852c-1.117 0-2.054.606-2.812 1.818L26.805 36.534l-4.969-6.08c-.378-.473-.771-.814-1.178-1.022-.407-.209-.876-.313-1.406-.313-.852 0-1.59.308-2.215.924a3.016 3.016 0 0 0-.937 2.23c0 .416.076.814.227 1.193.152.379.389.767.71 1.165l6.645 7.954c.454.55.937.961 1.448 1.236.511.275 1.089.412 1.732.412Z" fill="#FA243C" fill-rule="evenodd"/>
</svg>
