<svg width="80" height="80" xmlns="http://www.w3.org/2000/svg">
    <path d="M19.866 35.638c-2.249 0-4.308-.562-6.18-1.687a12.913 12.913 0 0 1-4.488-4.493c-1.122-1.871-1.683-3.937-1.683-6.2 0-2.249.558-4.309 1.673-6.18a12.745 12.745 0 0 1 4.479-4.483c1.87-1.118 3.937-1.677 6.199-1.677 2.249 0 4.307.557 6.175 1.672a12.803 12.803 0 0 1 4.483 4.479c1.122 1.871 1.682 3.934 1.682 6.19 0 2.262-.56 4.33-1.682 6.203a12.874 12.874 0 0 1-4.483 4.494c-1.868 1.121-3.926 1.682-6.175 1.682Zm0 34.266c-2.249 0-4.308-.563-6.18-1.687a12.91 12.91 0 0 1-4.488-4.494c-1.122-1.87-1.683-3.93-1.683-6.179s.558-4.31 1.673-6.185a12.78 12.78 0 0 1 4.479-4.493c1.87-1.122 3.937-1.683 6.199-1.683 2.249 0 4.307.558 6.175 1.673a12.805 12.805 0 0 1 4.483 4.479c1.122 1.87 1.682 3.94 1.682 6.21 0 2.248-.56 4.309-1.682 6.183a12.874 12.874 0 0 1-4.483 4.493c-1.868 1.122-3.926 1.683-6.175 1.683Zm0-3.318a8.616 8.616 0 0 0 4.51-1.235 9.442 9.442 0 0 0 3.296-3.296 8.616 8.616 0 0 0 1.235-4.51c0-1.64-.411-3.148-1.235-4.522a9.483 9.483 0 0 0-3.295-3.3 8.59 8.59 0 0 0-4.511-1.24c-1.64 0-3.143.411-4.511 1.234a9.469 9.469 0 0 0-3.287 3.296c-.823 1.375-1.235 2.885-1.235 4.531a8.64 8.64 0 0 0 1.23 4.511 9.415 9.415 0 0 0 3.287 3.296c1.371.824 2.876 1.235 4.516 1.235Zm20.796-41.579c-.49 0-.899-.164-1.227-.492a1.654 1.654 0 0 1-.492-1.218c0-.476.164-.878.492-1.206.328-.328.737-.492 1.227-.492H70.49c.483 0 .893.164 1.227.492.335.328.503.73.503 1.206 0 .484-.168.89-.503 1.218a1.687 1.687 0 0 1-1.227.492h-29.83Zm0 34.236c-.49 0-.899-.164-1.227-.492a1.64 1.64 0 0 1-.492-1.207c0-.483.164-.89.492-1.222.328-.33.737-.496 1.227-.496H70.49c.483 0 .893.165 1.227.496.335.332.503.739.503 1.222 0 .477-.168.879-.503 1.207a1.688 1.688 0 0 1-1.227.492h-29.83ZM18.39 30.065c.546 0 .973-.237 1.282-.71l6.409-9.978c.235-.367.353-.715.353-1.045 0-.328-.133-.616-.399-.865a1.342 1.342 0 0 0-.95-.373c-.459 0-.846.243-1.16.728l-5.584 8.859-2.655-3.223a1.652 1.652 0 0 0-.503-.451 1.3 1.3 0 0 0-.641-.153c-.354 0-.657.131-.91.393a1.303 1.303 0 0 0-.378.937c0 .412.114.744.344.995l3.576 4.204c.178.205.36.37.544.494.185.125.409.188.672.188Z" fill="#000" fill-rule="nonzero"/>
</svg>
