<svg width="60" height="60" xmlns="http://www.w3.org/2000/svg">
    <path d="M29.986 60c-4.137 0-8.018-.778-11.643-2.335-3.624-1.557-6.81-3.709-9.556-6.456-2.746-2.747-4.897-5.934-6.453-9.56C.778 38.021 0 34.138 0 30c0-4.14.778-8.022 2.334-11.648a30.444 30.444 0 0 1 6.453-9.575 29.963 29.963 0 0 1 9.556-6.456C21.968.774 25.85 0 29.986 0c4.156 0 8.046.774 11.67 2.321a29.963 29.963 0 0 1 9.557 6.456 30.444 30.444 0 0 1 6.453 9.575C59.222 21.978 60 25.86 60 30c0 4.14-.778 8.022-2.334 11.648-1.556 3.627-3.707 6.814-6.453 9.56-2.746 2.748-5.932 4.9-9.556 6.457C38.032 59.222 34.142 60 29.987 60Zm-2.993-15.852c.732 0 1.414-.178 2.046-.535a5.031 5.031 0 0 0 1.606-1.443L43.25 23.516c.293-.42.504-.847.632-1.277.128-.43.192-.838.192-1.223 0-1.043-.398-1.923-1.194-2.637a4.043 4.043 0 0 0-2.787-1.071c-1.337 0-2.481.741-3.433 2.225l-9.666 15.192-4.009-4.56a4.641 4.641 0 0 0-1.304-1.058c-.467-.247-1.003-.37-1.607-.37-1.043 0-1.954.37-2.732 1.112-.778.742-1.167 1.653-1.167 2.733 0 .495.082.953.247 1.374.165.421.458.88.879 1.374l5.986 6.923a6.379 6.379 0 0 0 1.675 1.387c.604.339 1.282.508 2.032.508Z" fill="#FA243C" fill-rule="evenodd"/>
</svg>
