<?xml version="1.0" encoding="UTF-8"?>
<svg width="60px" height="60px" viewBox="0 0 60 60" version="1.1" xmlns="http://www.w3.org/2000/svg" xmlns:xlink="http://www.w3.org/1999/xlink">
    <title>checkmark-seal-fill</title>
    <g id="Symbols" stroke="none" stroke-width="1" fill="none" fill-rule="evenodd">
        <g id="checkmark-seal-fill">
            <path d="M14.5695931,53.1391863 C12,53.1391863 10.0728051,52.496788 8.78800857,51.2119914 C7.50321199,49.9271949 6.8608137,48 6.8608137,45.4304069 L6.8608137,40.137045 C6.8608137,39.7773019 6.73233405,39.4603854 6.47537473,39.1862955 L2.72376874,35.4603854 C0.907922912,33.627409 0,31.8115632 0,30.012848 C0,28.2141328 0.907922912,26.3897216 2.72376874,24.5396146 L6.47537473,20.8137045 C6.73233405,20.5567452 6.8608137,20.248394 6.8608137,19.888651 L6.8608137,14.5695931 C6.8608137,11.9657388 7.49892934,10.0342612 8.7751606,8.7751606 C10.0513919,7.51605996 11.9828694,6.88650964 14.5695931,6.88650964 L19.862955,6.88650964 C20.2398287,6.88650964 20.5481799,6.74946467 20.7880086,6.47537473 L24.5653105,2.7751606 C26.3811563,0.925053533 28.1884368,0 29.987152,0 C31.7858672,0 33.6017131,0.916488223 35.4346895,2.74946467 L39.1862955,6.47537473 C39.4432548,6.74946467 39.7601713,6.88650964 40.137045,6.88650964 L45.4304069,6.88650964 C48,6.88650964 49.9229122,7.52462527 51.1991435,8.80085653 C52.4753747,10.0770878 53.1134904,12 53.1134904,14.5695931 L53.1134904,19.888651 C53.1134904,20.248394 53.2505353,20.5567452 53.5246253,20.8137045 L57.2505353,24.5396146 C59.0835118,26.3897216 60,28.2141328 60,30.012848 C60,31.8115632 59.0835118,33.627409 57.2505353,35.4603854 L53.5246253,39.1862955 C53.2505353,39.4603854 53.1134904,39.7773019 53.1134904,40.137045 L53.1134904,45.4304069 C53.1134904,48.0171306 52.4796574,49.9486081 51.2119914,51.2248394 C49.9443255,52.5010707 48.0171306,53.1391863 45.4304069,53.1391863 L40.137045,53.1391863 C39.7601713,53.1391863 39.4432548,53.267666 39.1862955,53.5246253 L35.4346895,57.2505353 C33.6188437,59.0835118 31.8072805,60 30,60 C28.1927195,60 26.3811563,59.0835118 24.5653105,57.2505353 L20.7880086,53.5246253 C20.5481799,53.267666 20.2398287,53.1391863 19.862955,53.1391863 L14.5695931,53.1391863 Z" id="Trazado" fill="#FA243C"></path>
            <path d="M27.1862955,43.0663812 C27.8029979,43.0663812 28.3811563,42.9164882 28.9207709,42.6167024 C29.4603854,42.3169165 29.9186296,41.9014989 30.2955032,41.3704497 L42.1670236,23.5374732 C42.4068522,23.1777302 42.5910064,22.8094218 42.7194861,22.4325482 C42.8479657,22.0556745 42.9122056,21.6959315 42.9122056,21.3533191 C42.9122056,20.4625268 42.5738758,19.7216274 41.8972163,19.130621 C41.2205567,18.5396146 40.4368308,18.2441113 39.5460385,18.2441113 C38.4154176,18.2441113 37.4475375,18.869379 36.6423983,20.1199143 L27.1605996,35.1263383 L23.0749465,30.2698073 C22.6980728,29.8415418 22.3083512,29.5203426 21.9057816,29.3062099 C21.503212,29.0920771 21.0449679,28.9850107 20.5310493,28.9850107 C19.640257,28.9850107 18.869379,29.3019272 18.2184154,29.9357602 C17.5674518,30.5695931 17.24197,31.3404711 17.24197,32.248394 C17.24197,32.6766595 17.3147752,33.0749465 17.4603854,33.4432548 C17.6059957,33.8115632 17.8501071,34.2012848 18.1927195,34.6124197 L24,41.4218415 C24.4453961,41.9528908 24.9250535,42.359743 25.4389722,42.6423983 C25.9528908,42.9250535 26.5353319,43.0663812 27.1862955,43.0663812 Z" id="Trazado" fill="#FFFFFF"></path>
        </g>
    </g>
</svg>