<?xml version="1.0" encoding="UTF-8"?>
<svg width="60px" height="60px" viewBox="0 0 60 60" version="1.1" xmlns="http://www.w3.org/2000/svg" xmlns:xlink="http://www.w3.org/1999/xlink">
    <title>checkmark-seal-fill</title>
    <g id="Symbols" stroke="none" stroke-width="1" fill="none" fill-rule="evenodd">
        <g id="checkmark-seal-fill">
            <path d="M14.7323704,53.1974522 C12.0985556,53.1974522 10.1189465,52.5350318 8.79354291,51.2101911 C7.46813934,49.8853503 6.80543755,47.8980892 6.80543755,45.2484076 L6.80543755,40.0764331 C6.80543755,39.7707006 6.68649108,39.4989384 6.44859813,39.2611465 L2.80373832,35.6178344 C0.934579439,33.7494692 0,31.881104 0,30.0127389 C0,28.1443737 0.934579439,26.2675159 2.80373832,24.3821656 L6.44859813,20.7388535 C6.68649108,20.5180467 6.80543755,20.2462845 6.80543755,19.9235669 L6.80543755,14.7515924 C6.80543755,12.0849257 7.46389125,10.0976645 8.78079864,8.78980892 C10.097706,7.48195329 12.0815633,6.82802548 14.7323704,6.82802548 L19.9065421,6.82802548 C20.2293968,6.82802548 20.5012744,6.70912951 20.722175,6.47133758 L24.3925234,2.85350318 C26.2616822,0.951167728 28.126593,0 29.9872557,0 C31.8479184,0 33.7213254,0.942675159 35.6074766,2.82802548 L39.277825,6.47133758 C39.4987256,6.70912951 39.7706032,6.82802548 40.0934579,6.82802548 L45.2676296,6.82802548 C47.9014444,6.82802548 49.8810535,7.48619958 51.2064571,8.80254777 C52.5318607,10.118896 53.1945624,12.1019108 53.1945624,14.7515924 L53.1945624,19.9235669 C53.1945624,20.2462845 53.3135089,20.5180467 53.5514019,20.7388535 L57.1962617,24.3821656 C59.0654206,26.2675159 60,28.1443737 60,30.0127389 C60,31.881104 59.0654206,33.7494692 57.1962617,35.6178344 L53.5514019,39.2611465 C53.3135089,39.4989384 53.1945624,39.7707006 53.1945624,40.0764331 L53.1945624,45.2484076 C53.1945624,47.8980892 52.5361088,49.8853503 51.2192014,51.2101911 C49.902294,52.5350318 47.9184367,53.1974522 45.2676296,53.1974522 L40.0934579,53.1974522 C39.7706032,53.1974522 39.4987256,53.3078556 39.277825,53.5286624 L35.6074766,57.1719745 C33.7383178,59.0573248 31.8691589,60 30,60 C28.1308411,60 26.2616822,59.0573248 24.3925234,57.1719745 L20.722175,53.5286624 C20.5012744,53.3078556 20.2293968,53.1974522 19.9065421,53.1974522 L14.7323704,53.1974522 Z" id="Trazado" fill="#FA243C"></path>
            <path d="M27.2217502,43.1082803 C27.9014444,43.1082803 28.5344095,42.9426752 29.1206457,42.611465 C29.7068819,42.2802548 30.2039082,41.8343949 30.6117247,41.2738854 L42.3109601,23.9745223 C42.5828377,23.5838641 42.7782498,23.1889597 42.8971963,22.7898089 C43.0161427,22.3906582 43.075616,22.0127389 43.075616,21.656051 C43.075616,20.6878981 42.7060323,19.8726115 41.9668649,19.2101911 C41.2276975,18.5477707 40.3653356,18.2165605 39.3797791,18.2165605 C38.1393373,18.2165605 37.0773152,18.9044586 36.1937128,20.2802548 L27.2217502,34.3694268 L23.5004248,30.1401274 C23.126593,29.7154989 22.7230246,29.388535 22.2897196,29.1592357 C21.8564146,28.9299363 21.3593883,28.8152866 20.7986406,28.8152866 C19.8300765,28.8152866 18.9847069,29.1592357 18.2625319,29.8471338 C17.5403568,30.5350318 17.1792693,31.3800425 17.1792693,32.3821656 C17.1792693,32.8407643 17.2557349,33.2653928 17.4086661,33.656051 C17.5615973,34.0467091 17.8334749,34.4713376 18.2242991,34.9299363 L23.7807986,41.3503185 C24.2565845,41.8938429 24.7748513,42.3227176 25.335599,42.6369427 C25.8963466,42.9511677 26.5250637,43.1082803 27.2217502,43.1082803 Z" id="Trazado" fill="#FFFFFF"></path>
        </g>
    </g>
</svg>