<svg width="60" height="60" xmlns="http://www.w3.org/2000/svg">
    <g fill="none" fill-rule="evenodd">
        <path d="M14.732 53.197c-2.633 0-4.613-.662-5.938-1.987-1.326-1.325-1.989-3.312-1.989-5.962v-5.172c0-.305-.119-.577-.356-.815l-3.645-3.643C.934 33.749 0 31.88 0 30.013c0-1.869.935-3.745 2.804-5.63l3.645-3.644c.237-.221.356-.493.356-.815v-5.172c0-2.667.659-4.654 1.976-5.962 1.317-1.308 3.3-1.962 5.951-1.962h5.175c.322 0 .594-.119.815-.357l3.67-3.617C26.263.95 28.128 0 29.988 0c1.86 0 3.734.943 5.62 2.828l3.67 3.643c.222.238.494.357.816.357h5.175c2.633 0 4.613.658 5.938 1.975 1.326 1.316 1.989 3.299 1.989 5.949v5.172c0 .322.119.594.356.815l3.645 3.643c1.87 1.886 2.804 3.762 2.804 5.63 0 1.87-.935 3.737-2.804 5.606l-3.645 3.643c-.237.238-.356.51-.356.815v5.172c0 2.65-.659 4.637-1.976 5.962-1.317 1.325-3.3 1.987-5.951 1.987h-5.175c-.322 0-.594.11-.815.332l-3.67 3.643C33.737 59.057 31.868 60 30 60c-1.87 0-3.738-.943-5.607-2.828l-3.67-3.643a1.109 1.109 0 0 0-.816-.332h-5.175Z" fill="#FA243C"/>
        <path d="M27.222 43.108c.68 0 1.312-.165 1.899-.497a4.669 4.669 0 0 0 1.49-1.337l11.7-17.3c.272-.39.467-.785.586-1.184.12-.4.179-.777.179-1.134 0-.968-.37-1.783-1.11-2.446a3.755 3.755 0 0 0-2.586-.993c-1.24 0-2.303.687-3.186 2.063l-8.972 14.09-3.722-4.23a4.307 4.307 0 0 0-1.21-.98c-.434-.23-.93-.345-1.491-.345-.969 0-1.814.344-2.536 1.032-.723.688-1.084 1.533-1.084 2.535 0 .459.077.883.23 1.274.153.39.424.815.815 1.274l5.557 6.42a5.92 5.92 0 0 0 1.555 1.287c.56.314 1.19.471 1.886.471Z" fill="#FFF"/>
    </g>
</svg>
