<?xml version="1.0" encoding="UTF-8"?>
<svg width="60px" height="60px" viewBox="0 0 60 60" version="1.1" xmlns="http://www.w3.org/2000/svg" xmlns:xlink="http://www.w3.org/1999/xlink">
    <title>checkmark-seal-fill</title>
    <g id="Symbols" stroke="none" stroke-width="1" fill="none" fill-rule="evenodd">
        <g id="checkmark-seal-fill">
            <path d="M14.3709468,53.0639103 C11.8806744,53.0639103 10.0216169,52.4502556 8.79377432,51.2229461 C7.56593169,49.9956366 6.95201038,48.1201003 6.95201038,45.5963372 L6.95201038,40.1771609 C6.95201038,39.7622958 6.80501513,39.3992887 6.51102464,39.0881398 L2.67185473,35.250637 C0.890618245,33.48746 0,31.7415691 0,30.0129642 C0,28.2843594 0.890618245,26.5298254 2.67185473,24.7493624 L6.51102464,20.8859305 C6.80501513,20.5920676 6.95201038,20.2377036 6.95201038,19.8228385 L6.95201038,14.3777331 C6.95201038,11.85397 7.5616083,9.98707672 8.78080415,8.7770533 C10,7.56702989 11.8633809,6.96201818 14.3709468,6.96201818 L19.8184176,6.96201818 C20.2507566,6.96201818 20.6052745,6.81508677 20.8819715,6.52122394 L24.7470817,2.68372111 C26.5283182,0.90325808 28.279291,0.00870505567 30,0 C31.720709,-0.00858099312 33.4716818,0.885972032 35.2529183,2.68372111 L39.1180285,6.52122394 C39.412019,6.81508677 39.766537,6.96201818 40.1815824,6.96201818 L45.6290532,6.96201818 C48.1366191,6.96201818 50,7.57567291 51.2191958,8.80298238 C52.4383917,10.0302918 53.0479896,11.8885421 53.0479896,14.3777331 L53.0479896,19.8228385 C53.0479896,20.2377036 53.2036316,20.5920676 53.5149157,20.8859305 L57.3540856,24.7493624 C59.1180285,26.5298254 60,28.2843594 60,30.0129642 C60,31.7415691 59.1180285,33.48746 57.3540856,35.250637 L53.5149157,39.0881398 C53.2036316,39.3992887 53.0479896,39.7622958 53.0479896,40.1771609 L53.0479896,45.5963372 C53.0479896,48.1201003 52.4383917,49.9956366 51.2191958,51.2229461 C50,52.4502556 48.1366191,53.0639103 45.6290532,53.0639103 L40.1815824,53.0639103 C39.766537,53.0639103 39.412019,53.2108417 39.1180285,53.5047045 L35.2529183,57.3422074 C33.4889754,59.1053843 31.742326,59.9912943 30.0129702,60 C28.2836144,60.0085804 26.5283182,59.1226704 24.7470817,57.3422074 L20.8819715,53.5047045 C20.6052745,53.2108417 20.2507566,53.0639103 19.8184176,53.0639103 L14.3709468,53.0639103 Z" id="Trazado" fill="#FA243C"></path>
            <path d="M27.1595331,42.9775008 C27.7302205,42.9775008 28.2533506,42.8435339 28.7289235,42.5756002 C29.2044963,42.3076664 29.6152183,41.9230519 29.9610895,41.4217564 L42.0233463,23.0121145 C42.230869,22.6836796 42.3994812,22.3466016 42.5291829,22.0008806 C42.6588846,21.6551596 42.7237354,21.3180817 42.7237354,20.9896468 C42.7237354,20.1944885 42.4254215,19.5376187 41.8287938,19.0190372 C41.232166,18.5004557 40.5447471,18.241165 39.766537,18.241165 C38.746217,18.241165 37.8901859,18.7943186 37.1984436,19.9006257 L27.1076524,35.950722 L22.5680934,30.4019003 C22.2222222,29.9697491 21.8633809,29.6586002 21.4915694,29.4684537 C21.1197579,29.2783072 20.6917423,29.1832339 20.2075227,29.1832339 C19.4293126,29.1832339 18.7548638,29.4641322 18.1841764,30.0259288 C17.613489,30.5877254 17.3281453,31.2662028 17.3281453,32.061361 C17.3281453,32.4416541 17.3973195,32.8046611 17.535668,33.1503821 C17.6740164,33.4961031 17.8901859,33.8504671 18.1841764,34.2134741 L24.2542153,41.4736146 C24.6692607,41.97491 25.1102464,42.3508816 25.5771725,42.6015293 C26.0440986,42.852177 26.5715521,42.9775008 27.1595331,42.9775008 Z" id="Trazado" fill="#FFFFFF"></path>
        </g>
    </g>
</svg>