<svg width="60" height="60" xmlns="http://www.w3.org/2000/svg">
    <path d="M47.024 29.99a4.98 4.98 0 0 1-.425 2.06c-.283.632-.742 1.255-1.378 1.866L27.7 51.086c-.88.88-1.956 1.318-3.232 1.318-.847 0-1.629-.21-2.345-.632a4.864 4.864 0 0 1-1.716-1.686 4.394 4.394 0 0 1-.642-2.33c0-1.293.517-2.447 1.55-3.463l14.81-14.32-14.81-14.284c-1.033-.992-1.55-2.14-1.55-3.445 0-.851.214-1.628.642-2.33.427-.703 1-1.265 1.716-1.686a4.542 4.542 0 0 1 2.345-.632c1.276 0 2.353.437 3.232 1.312l17.52 17.158c.624.611 1.077 1.23 1.36 1.857a5.17 5.17 0 0 1 .443 2.068Z" fill="#FFF" fill-rule="evenodd"/>
</svg>
