<?xml version="1.0" encoding="UTF-8"?>
<svg width="60px" height="60px" viewBox="0 0 60 60" version="1.1" xmlns="http://www.w3.org/2000/svg" xmlns:xlink="http://www.w3.org/1999/xlink">
    <title>3 Iconos/Contorno/chevron-right</title>
    <g id="3-Iconos/Contorno/chevron-right" stroke="none" stroke-width="1" fill="none" fill-rule="evenodd">
        <path d="M47.0243998,29.9908876 C47.0243998,30.7302904 46.8827553,31.4164448 46.5994664,32.0493507 C46.3161774,32.6822567 45.8566542,33.3045626 45.2208968,33.9162683 L27.7006217,51.0865545 C26.821868,51.9650602 25.7446261,52.4043131 24.468896,52.4043131 C23.6218806,52.4043131 22.8401395,52.1935511 22.1236726,51.772027 C21.4072056,51.350503 20.8351727,50.7885122 20.4075738,50.0860548 C19.9799748,49.3835974 19.7661753,48.6070013 19.7661753,47.7562666 C19.7661753,46.4634275 20.2826663,45.3089476 21.3156481,44.2928267 L36.1263915,29.9726629 L21.3156481,15.6889486 C20.2826663,14.6971273 19.7661753,13.5487223 19.7661753,12.2437334 C19.7661753,11.3929987 19.9799748,10.6164026 20.4075738,9.9139452 C20.8351727,9.21148777 21.4072056,8.64949703 22.1236726,8.22797298 C22.8401395,7.80644894 23.6218806,7.59568691 24.468896,7.59568691 C25.7446261,7.59568691 26.821868,8.0330801 27.7006217,8.90786648 L45.2208968,26.0655069 C45.8445044,26.6772127 46.2979527,27.2964811 46.5812417,27.9233122 C46.8645306,28.5501432 47.01225,29.2393351 47.0243998,29.9908876 Z" id="chevron-right" fill="#FFFFFF"></path>
    </g>
</svg>