<svg width="60" height="60" xmlns="http://www.w3.org/2000/svg">
    <path d="M18.288 35.44h11.698c.952 0 1.758-.33 2.417-.99.659-.659.988-1.465.988-2.417V16.401c0-.952-.33-1.758-.988-2.417-.66-.66-1.465-.99-2.417-.99-.952 0-1.757.33-2.416.99-.66.659-.989 1.465-.989 2.417v12.225h-8.293c-.952 0-1.757.33-2.416.99-.66.659-.989 1.465-.989 2.417 0 .952.33 1.758.989 2.418.659.659 1.464.989 2.416.989ZM29.986 60c-4.137 0-8.018-.778-11.643-2.335-3.624-1.557-6.81-3.709-9.556-6.456-2.746-2.747-4.897-5.934-6.453-9.56C.778 38.021 0 34.138 0 30c0-4.14.778-8.022 2.334-11.648a30.444 30.444 0 0 1 6.453-9.575 29.963 29.963 0 0 1 9.556-6.456C21.968.774 25.85 0 29.986 0c4.156 0 8.046.774 11.67 2.321a29.963 29.963 0 0 1 9.557 6.456 30.444 30.444 0 0 1 6.453 9.575C59.222 21.978 60 25.86 60 30c0 4.14-.778 8.022-2.334 11.648-1.556 3.627-3.707 6.814-6.453 9.56-2.746 2.748-5.932 4.9-9.556 6.457C38.032 59.222 34.142 60 29.987 60Z" fill="#FA243C" fill-rule="evenodd"/>
</svg>
