<?xml version="1.0" encoding="UTF-8"?>
<svg width="80px" height="80px" viewBox="0 0 80 80" version="1.1" xmlns="http://www.w3.org/2000/svg" xmlns:xlink="http://www.w3.org/1999/xlink">
    <title>3 Iconos/Contorno/info.circle</title>
    <g id="3-Iconos/Contorno/info.circle" stroke="none" stroke-width="1" fill="none" fill-rule="evenodd">
        <g id="info.circle" transform="translate(9.0552, 9.0625)" fill="#FA243C" fill-rule="nonzero">
            <path d="M17.0361328,35.4199219 L30.9228516,35.4199219 C31.7236328,35.4199219 32.3974609,35.1464844 32.9443359,34.5996094 C33.4912109,34.0527344 33.7646484,33.3789062 33.7646484,32.578125 L33.7646484,14.3701172 C33.7646484,13.5791016 33.4912109,12.9101562 32.9443359,12.3632812 C32.3974609,11.8164062 31.7236328,11.5429688 30.9228516,11.5429688 C30.1318359,11.5429688 29.4628906,11.8164062 28.9160156,12.3632812 C28.3691406,12.9101562 28.0957031,13.5791016 28.0957031,14.3701172 L28.0957031,29.7509766 L17.0361328,29.7509766 C16.2353516,29.7509766 15.5615234,30.0244141 15.0146484,30.5712891 C14.4677734,31.1181641 14.1943359,31.7871094 14.1943359,32.578125 C14.1943359,33.3789062 14.4677734,34.0527344 15.0146484,34.5996094 C15.5615234,35.1464844 16.2353516,35.4199219 17.0361328,35.4199219 Z M30.9375,61.875 C26.6699219,61.875 22.6660156,61.0717773 18.9257812,59.465332 C15.1855469,57.8588867 11.8994141,55.637207 9.06738281,52.800293 C6.23535156,49.9633789 4.01611328,46.6772461 2.40966797,42.9418945 C0.803222656,39.206543 0,35.2050781 0,30.9375 C0,26.6699219 0.803222656,22.6660156 2.40966797,18.9257812 C4.01611328,15.1855469 6.23535156,11.8969727 9.06738281,9.06005859 C11.8994141,6.22314453 15.1855469,4.00390625 18.9257812,2.40234375 C22.6660156,0.80078125 26.6699219,0 30.9375,0 C35.2148438,0 39.2236328,0.80078125 42.9638672,2.40234375 C46.7041016,4.00390625 49.9902344,6.22314453 52.8222656,9.06005859 C55.6542969,11.8969727 57.8735352,15.1855469 59.4799805,18.9257812 C61.0864258,22.6660156 61.8896484,26.6699219 61.8896484,30.9375 C61.8896484,35.2050781 61.0864258,39.206543 59.4799805,42.9418945 C57.8735352,46.6772461 55.6542969,49.9633789 52.8222656,52.800293 C49.9902344,55.637207 46.7041016,57.8588867 42.9638672,59.465332 C39.2236328,61.0717773 35.2148438,61.875 30.9375,61.875 Z" id="Forma"></path>
        </g>
    </g>
</svg>