<svg width="60" height="60" xmlns="http://www.w3.org/2000/svg">
    <path d="M16.516 34.347h13.463c.776 0 1.43-.266 1.96-.796s.795-1.184.795-1.96V13.935c0-.767-.265-1.416-.796-1.946-.53-.53-1.183-.796-1.96-.796-.766 0-1.415.265-1.945.796-.53.53-.795 1.179-.795 1.946v14.914H16.516c-.776 0-1.43.266-1.96.796s-.795 1.179-.795 1.946c0 .776.265 1.43.795 1.96s1.184.796 1.96.796ZM29.993 60c-4.137 0-8.019-.779-11.645-2.337-3.626-1.557-6.812-3.712-9.557-6.463a30.4 30.4 0 0 1-6.455-9.56C.78 38.019 0 34.139 0 30c0-4.138.779-8.02 2.336-11.648 1.557-3.627 3.709-6.816 6.455-9.566 2.745-2.751 5.93-4.903 9.557-6.456C21.974.777 25.856 0 29.993 0c4.147 0 8.033.777 11.66 2.33 3.625 1.553 6.81 3.705 9.556 6.456 2.746 2.75 4.898 5.94 6.455 9.566C59.22 21.98 60 25.862 60 30s-.779 8.018-2.336 11.64a30.4 30.4 0 0 1-6.455 9.56c-2.745 2.751-5.93 4.906-9.557 6.463C38.026 59.221 34.14 60 29.992 60Z" fill="#FA243C" fill-rule="evenodd"/>
</svg>
