<?xml version="1.0" encoding="UTF-8"?>
<svg width="50px" height="62px" viewBox="0 0 50 62" version="1.1" xmlns="http://www.w3.org/2000/svg" xmlns:xlink="http://www.w3.org/1999/xlink">
    <title>document.fill</title>
    <g id="Symbols" stroke="none" stroke-width="1" fill="none" fill-rule="evenodd">
        <g id="3-Iconos/Relleno/document.pdf.fill" transform="translate(-15, -9)" fill="#A945E3">
            <path d="M24.34345,71 L55.65655,71 C61.76355,71 64.79845,67.962 64.79845,61.948 L64.79845,35.691 L43.45185,35.691 C39.67605,35.691 37.87805,33.9271 37.87805,30.2257 L37.87805,9 L24.34655,9 C18.26745,9 15.20155,12.0659 15.20155,18.083 L15.20155,61.948 C15.20155,67.993 18.23955,71 24.34345,71 Z M40.09145,50.4563 C41.06795,50.4563 41.86775,50.633 42.49085,50.9864 C43.11705,51.3398 43.57585,51.8482 43.87655,52.5054 C44.17725,53.1626 44.32915,53.95 44.32915,54.8614 C44.32915,55.7852 44.17415,56.5819 43.87035,57.2515 C43.5833239,57.9042161 43.0943302,58.4475425 42.47535,58.8015 C41.85225,59.1611 41.05555,59.3409 40.09145,59.3409 L36.41485,59.3409 L36.41485,50.4563 L40.09145,50.4563 Z M52.04195,50.4563 L52.04195,52.1737 L48.05535,52.1737 L48.05535,54.322 L51.68235,54.322 L51.68235,55.9867 L48.05535,55.9867 L48.05535,59.3409 L45.79855,59.3409 L45.79855,50.4563 L52.04195,50.4563 L52.04195,50.4563 Z M31.83925,50.4563 C32.56155,50.4563 33.16605,50.5958 33.64965,50.8779 C34.13635,51.1569 34.50215,51.5289 34.75015,51.9939 C34.99815,52.462 35.12215,52.9766 35.12215,53.5377 C35.12215,54.1019 34.99505,54.6165 34.74395,55.0753 C34.4889753,55.5423027 34.1032818,55.9247642 33.63415,56.1758 C33.0722212,56.4646443 32.4459369,56.6054782 31.81445,56.585 L30.13735,56.585 L30.13735,59.3409 L27.88055,59.3409 L27.88055,50.4563 L31.83925,50.4563 Z M39.73185,52.152 L38.67165,52.152 L38.67165,57.6421 L39.73185,57.6421 C40.13485,57.6421 40.47585,57.5863 40.76415,57.4747 C41.0410342,57.3700688 41.2850137,57.1935047 41.47095,56.9632 C41.6663447,56.7113185 41.8058404,56.4207024 41.88015,56.1107 C41.96695,55.7697 42.01035,55.3698 42.01035,54.9141 C42.01035,54.3065 41.93285,53.7981 41.77475,53.3858 C41.6399422,53.0027143 41.3800387,52.6761968 41.03695,52.4589 C40.640033,52.2369854 40.1892837,52.1296642 39.73495,52.1489 L39.73185,52.152 Z M31.32155,52.0993 L30.13115,52.0993 L30.13115,54.9761 L31.32155,54.9761 C31.5998978,54.9835662 31.87607,54.9251451 32.12755,54.8056 C32.3488513,54.6995965 32.5326588,54.5287637 32.65455,54.3158 C32.7806095,54.0762891 32.8425503,53.8082351 32.83435,53.5377 C32.83435,53.0727 32.70105,52.7131 32.43135,52.4682 C32.1223176,52.2073426 31.725366,52.0742862 31.32155,52.0962 L31.32155,52.0993 Z M41.92355,9.3193 C43.16045,9.5208 44.36945,10.3578 45.75515,11.7466 L62.00225,27.9689 C63.41895,29.3856 64.27455,30.5419 64.45125,31.7292 L43.53555,31.7292 C42.44745,31.7292 41.91425,31.2084 41.91425,30.1668 L41.92355,9.3193 Z" id="document.fill"></path>
        </g>
    </g>
</svg>