<?xml version="1.0" encoding="UTF-8"?>
<svg width="50px" height="62px" viewBox="0 0 50 62" version="1.1" xmlns="http://www.w3.org/2000/svg" xmlns:xlink="http://www.w3.org/1999/xlink">
    <title>document.fill</title>
    <g id="Symbols" stroke="none" stroke-width="1" fill="none" fill-rule="evenodd">
        <g id="3-Iconos/Relleno/document.pdf.fill" transform="translate(-15, -9)" fill="#A945E3">
            <path d="M24.34345,71 L55.65655,71 C61.76355,71 64.79845,67.962 64.79845,61.948 L64.79845,35.691 L43.45185,35.691 C39.67605,35.691 37.87805,33.9271 37.87805,30.2257 L37.87805,9 L24.34655,9 C18.26745,9 15.20155,12.0659 15.20155,18.083 L15.20155,61.948 C15.20155,67.993 18.23955,71 24.34345,71 Z M40.15655,48.23515 C41.6213,48.23515 42.821,48.5002 43.75565,49.0303 C44.69495,49.5604 45.38315,50.323 45.8342,51.3088 C46.28525,52.2946 46.5131,53.4757 46.5131,54.8428 C46.5131,56.2285 46.2806,57.42355 45.8249,58.42795 C45.3943609,59.4070242 44.6608703,60.2220138 43.7324,60.75295 C42.79775,61.29235 41.6027,61.56205 40.15655,61.56205 L34.64165,61.56205 L34.64165,48.23515 L40.15655,48.23515 Z M58.0823,48.23515 L58.0823,50.81125 L52.1024,50.81125 L52.1024,54.0337 L57.5429,54.0337 L57.5429,56.53075 L52.1024,56.53075 L52.1024,61.56205 L48.7172,61.56205 L48.7172,48.23515 L58.0823,48.23515 L58.0823,48.23515 Z M27.77825,48.23515 C28.8617,48.23515 29.76845,48.4444 30.49385,48.86755 C31.2239,49.28605 31.7726,49.84405 32.1446,50.54155 C32.5166,51.2437 32.7026,52.0156 32.7026,52.85725 C32.7026,53.70355 32.51195,54.47545 32.1353,55.16365 C31.752838,55.8641541 31.1742977,56.4378462 30.4706,56.8144 C29.6277067,57.2476664 28.6882803,57.4589173 27.74105,57.4282 L25.2254,57.4282 L25.2254,61.56205 L21.8402,61.56205 L21.8402,48.23515 L27.77825,48.23515 Z M39.61715,50.7787 L38.02685,50.7787 L38.02685,59.01385 L39.61715,59.01385 C40.22165,59.01385 40.73315,58.93015 41.1656,58.76275 C41.5809263,58.6058032 41.9468956,58.340957 42.2258,57.9955 C42.5188921,57.6176777 42.7281357,57.1817536 42.8396,56.71675 C42.9698,56.20525 43.0349,55.6054 43.0349,54.92185 C43.0349,54.01045 42.91865,53.24785 42.6815,52.6294 C42.4792884,52.0547715 42.089433,51.5649953 41.5748,51.23905 C40.9794245,50.9061781 40.3033006,50.7451963 39.6218,50.77405 L39.61715,50.7787 Z M27.0017,50.69965 L25.2161,50.69965 L25.2161,55.01485 L27.0017,55.01485 C27.4192217,55.0260493 27.83348,54.9384177 28.2107,54.7591 C28.542652,54.6000948 28.8183631,54.3438456 29.0012,54.0244 C29.1902893,53.6651337 29.2832005,53.2630526 29.2709,52.85725 C29.2709,52.15975 29.07095,51.62035 28.6664,51.253 C28.2028514,50.8617139 27.6074241,50.6621293 27.0017,50.695 L27.0017,50.69965 Z M41.92355,9.3193 C43.16045,9.5208 44.36945,10.3578 45.75515,11.7466 L62.00225,27.9689 C63.41895,29.3856 64.27455,30.5419 64.45125,31.7292 L43.53555,31.7292 C42.44745,31.7292 41.91425,31.2084 41.91425,30.1668 L41.92355,9.3193 Z" id="document.fill"></path>
        </g>
    </g>
</svg>