<svg width="80" height="80" xmlns="http://www.w3.org/2000/svg">
    <g fill="none" fill-rule="evenodd">
        <path fill="#F3E3E8" d="M0 0h80v80H0z"/>
        <path d="M28.442 16.667c-2.249 0-3.936.573-5.06 1.72-1.125 1.146-1.687 2.851-1.687 5.115V56.52c0 2.277.562 3.982 1.687 5.115 1.124 1.132 2.811 1.697 5.06 1.697h23.116c2.248 0 3.935-.57 5.06-1.708 1.125-1.14 1.687-2.84 1.687-5.104V36.757H42.546c-2.742 0-4.113-1.371-4.113-4.114V16.667h-9.991Zm12.973 15.932c0 .784.399 1.176 1.197 1.176h15.432c-.072-.45-.262-.9-.566-1.35-.305-.45-.718-.943-1.24-1.48l-11.994-12.21c-.508-.523-.994-.94-1.458-1.252-.464-.312-.922-.504-1.371-.577v15.693Zm4.006 14.344h5.798v1.595h-3.702v1.995h3.368v1.546h-3.368v3.116H45.42v-8.252Zm-8.715 0h3.415c.906 0 1.65.164 2.228.493.582.328 1.008.8 1.287 1.41.28.61.42 1.342.42 2.188 0 .858-.144 1.598-.426 2.22a3.097 3.097 0 0 1-1.295 1.44c-.579.334-1.319.5-2.214.5h-3.415v-8.25Zm-7.925 0h3.676c.67 0 1.232.13 1.681.392.453.26.792.605 1.022 1.037.231.434.346.913.346 1.434 0 .523-.119 1.002-.352 1.427a2.534 2.534 0 0 1-1.03 1.022 3.442 3.442 0 0 1-1.47.38h-1.777v2.56H28.78v-8.252Zm3.195 1.524v.002h-1.105v2.672h1.105c.258.007.516-.047.749-.158.205-.1.376-.258.49-.455.116-.223.174-.472.166-.722 0-.433-.123-.766-.374-.994a1.48 1.48 0 0 0-.952-.348c-.026 0-.053 0-.079.003Zm7.813.049-.002.002h-.984v5.099h.984c.374 0 .69-.052.959-.156.256-.097.483-.261.655-.475.182-.234.312-.504.381-.79.08-.318.121-.689.121-1.112 0-.565-.072-1.037-.22-1.42a1.68 1.68 0 0 0-.684-.861c-.34-.19-.722-.29-1.111-.29-.033 0-.065 0-.099.003Z" fill="#E60000"/>
    </g>
</svg>
