<svg width="48" height="60" xmlns="http://www.w3.org/2000/svg">
    <path d="M9.14 0C6.248 0 4.079.737 2.634 2.211 1.188 3.685.464 5.877.464 8.788v42.453c0 2.928.724 5.12 2.17 6.576C4.079 59.273 6.248 60 9.14 60h29.72c2.89 0 5.06-.733 6.506-2.196 1.446-1.465 2.17-3.653 2.17-6.563V25.83H27.274c-3.526 0-5.289-1.763-5.289-5.29V0H9.14Zm16.679 20.485c0 1.007.513 1.512 1.54 1.512h19.84c-.092-.58-.336-1.157-.728-1.736-.391-.578-.922-1.212-1.595-1.903L29.457 2.66c-.653-.672-1.278-1.208-1.875-1.61-.597-.4-1.185-.647-1.763-.741v20.177Zm5.15 18.442h7.455v2.05h-4.76v2.565h4.331v1.988h-4.33v4.006H30.97V38.927Zm-11.204 0h4.39c1.166 0 2.12.21 2.865.633a3.875 3.875 0 0 1 1.655 1.814c.36.784.54 1.725.54 2.813 0 1.103-.186 2.054-.547 2.854a3.982 3.982 0 0 1-1.666 1.852c-.744.428-1.696.643-2.847.643h-4.39V38.927Zm-10.19 0h4.727c.862 0 1.584.166 2.161.504a3.308 3.308 0 0 1 1.314 1.333c.297.559.445 1.173.445 1.843 0 .674-.153 1.289-.452 1.836a3.258 3.258 0 0 1-1.326 1.313 4.425 4.425 0 0 1-1.89.49H12.27v3.29H9.575V38.927Zm4.109 1.959v.003h-1.421v3.435h1.42c.333.009.663-.06.963-.203a1.46 1.46 0 0 0 .63-.585 1.88 1.88 0 0 0 .214-.929c0-.556-.158-.985-.48-1.277a1.904 1.904 0 0 0-1.225-.448 1.44 1.44 0 0 0-.101.004Zm10.045.063-.002.002H22.46v6.557h1.266c.48 0 .887-.067 1.232-.201.33-.124.62-.336.843-.61.234-.301.4-.649.49-1.017.102-.409.155-.885.155-1.43 0-.726-.093-1.332-.282-1.825a2.16 2.16 0 0 0-.88-1.107 2.937 2.937 0 0 0-1.43-.373c-.041 0-.083.001-.126.004Z" fill="#A945E3" fill-rule="evenodd"/>
</svg>
