<svg width="120" height="120" xmlns="http://www.w3.org/2000/svg">
    <g fill="none" fill-rule="evenodd">
        <path fill="#F3E3E8" d="M0 0h120v120H0z"/>
        <path d="M48.855 37.5c-2.169 0-3.796.553-4.88 1.658-1.084 1.106-1.627 2.75-1.627 4.933v31.84c0 2.196.543 3.84 1.627 4.932 1.084 1.092 2.711 1.637 4.88 1.637h22.29c2.168 0 3.795-.55 4.88-1.647 1.084-1.099 1.627-2.74 1.627-4.922V56.873H62.455c-2.644 0-3.966-1.322-3.966-3.967V37.5h-9.634Zm12.509 15.363c0 .756.385 1.135 1.155 1.135h14.88c-.069-.435-.252-.868-.545-1.302-.294-.434-.692-.91-1.197-1.427L64.093 39.494a9.01 9.01 0 0 0-1.406-1.207c-.448-.3-.89-.485-1.323-.556v15.132Zm3.863 13.832h5.59v1.538h-3.569v1.924h3.248v1.49h-3.248v3.005h-2.02v-7.957Zm-8.403 0h3.293c.874 0 1.59.158 2.148.475.561.317.972.772 1.241 1.36.27.589.406 1.294.406 2.11 0 .828-.14 1.54-.411 2.14a2.987 2.987 0 0 1-1.25 1.39c-.557.321-1.271.482-2.134.482h-3.293v-7.957Zm-7.643 0h3.546c.646 0 1.187.125 1.62.378.437.25.764.583.986 1 .223.419.334.88.334 1.382 0 .506-.115.967-.34 1.377-.228.418-.573.76-.994.985-.44.227-.924.352-1.417.367h-1.713v2.468H49.18v-7.957Zm3.082 1.47v.002h-1.066v2.576h1.066c.249.006.497-.045.722-.152.198-.096.362-.249.472-.439a1.41 1.41 0 0 0 .16-.697c0-.417-.118-.738-.36-.958a1.428 1.428 0 0 0-.918-.336c-.025 0-.051.001-.076.003Zm7.534.047-.002.001h-.95v4.918h.95c.36 0 .665-.05.924-.15a1.49 1.49 0 0 0 .632-.458c.176-.226.3-.487.368-.763.077-.307.116-.664.116-1.072 0-.545-.07-1-.211-1.37a1.62 1.62 0 0 0-.66-.83 2.202 2.202 0 0 0-1.072-.28c-.032 0-.063.002-.095.004Z" fill="#E60000"/>
    </g>
</svg>
