<svg width="60" height="60" xmlns="http://www.w3.org/2000/svg">
    <path d="M18.332 6.445c-2.27 0-3.973.58-5.108 1.736-1.136 1.158-1.703 2.879-1.703 5.164v33.332c0 2.3.567 4.021 1.703 5.164 1.135 1.143 2.838 1.714 5.108 1.714h23.336c2.27 0 3.973-.575 5.108-1.724 1.135-1.15 1.703-2.868 1.703-5.154v-19.95H32.57c-2.768 0-4.152-1.385-4.152-4.154V6.445H18.332ZM31.428 22.53c0 .791.403 1.187 1.209 1.187h15.578c-.073-.454-.264-.908-.571-1.363-.308-.453-.725-.951-1.253-1.494L34.285 8.533c-.513-.528-1.004-.949-1.472-1.264-.47-.315-.931-.508-1.385-.582v15.842Zm4.044 14.48h5.853v1.61h-3.737v2.014h3.4v1.56h-3.4v3.146h-2.116v-8.33Zm-8.797 0h3.447c.915 0 1.665.165 2.249.497a3.042 3.042 0 0 1 1.3 1.424c.282.616.424 1.355.424 2.21 0 .865-.146 1.612-.43 2.24a3.127 3.127 0 0 1-1.308 1.454c-.584.336-1.331.505-2.235.505h-3.447v-8.33Zm-8 0h3.71c.678 0 1.244.13 1.698.396.456.262.8.61 1.03 1.046.234.439.35.922.35 1.448 0 .529-.12 1.011-.355 1.44-.239.439-.6.797-1.04 1.032-.46.237-.968.368-1.484.384H20.79v2.584h-2.116v-8.33Zm3.225 1.538v.003h-1.116v2.697H21.9c.26.006.52-.048.756-.16.207-.1.38-.26.494-.459.118-.225.176-.476.169-.73 0-.436-.125-.773-.378-1.002a1.495 1.495 0 0 0-.961-.352c-.026 0-.054.001-.08.003Zm7.887.05-.002.001h-.993v5.148h.993c.377 0 .697-.052.968-.157a1.56 1.56 0 0 0 .662-.48c.184-.236.314-.508.384-.798.08-.32.122-.695.122-1.122 0-.57-.073-1.046-.221-1.434a1.696 1.696 0 0 0-.691-.869 2.306 2.306 0 0 0-1.122-.292c-.033 0-.066 0-.1.003Z" fill="#E60000" fill-rule="evenodd"/>
</svg>
