<svg width="120" height="120" xmlns="http://www.w3.org/2000/svg">
    <g fill="none" fill-rule="evenodd">
        <path fill="#EBEBF1" d="M0 0h120v120H0z"/>
        <path d="M48.308 96.75v-6.316h1.02v.96h.093c.14-.34.356-.603.647-.79.291-.188.644-.282 1.058-.282.285 0 .541.047.768.14.226.095.421.225.585.39.165.167.295.359.393.578h.094c.113-.223.265-.417.457-.583.191-.166.413-.295.665-.387.252-.092.522-.138.811-.138.43 0 .794.08 1.093.24.299.16.527.394.683.7.156.307.234.681.234 1.123v4.365h-1.02v-4.13c0-.313-.047-.572-.143-.777a.976.976 0 0 0-.436-.463c-.196-.104-.442-.155-.739-.155a1.398 1.398 0 0 0-1.277.73c-.121.22-.182.465-.182.734v4.061h-1.02v-4.29c0-.25-.053-.467-.16-.652a1.094 1.094 0 0 0-.457-.431 1.498 1.498 0 0 0-.695-.152c-.273 0-.52.072-.74.216-.222.145-.395.34-.522.583-.127.245-.19.515-.19.812v3.914h-1.02Zm10.207 2.11v-8.426h1.02v1.007h.093a2.121 2.121 0 0 1 1.154-.984c.25-.09.522-.135.815-.135.535 0 1 .136 1.397.407.397.272.704.652.923 1.14.219.488.328 1.06.328 1.717v.012c0 .66-.11 1.234-.328 1.722-.219.489-.526.868-.923 1.137-.396.27-.862.404-1.397.404-.29 0-.562-.046-.818-.137a2.23 2.23 0 0 1-.68-.384 1.876 1.876 0 0 1-.471-.586h-.094v3.105h-1.02Zm2.847-2.901c.387 0 .717-.095.99-.284.274-.19.484-.461.63-.815.147-.353.22-.774.22-1.262v-.012c0-.492-.073-.914-.22-1.266a1.797 1.797 0 0 0-.63-.811c-.273-.19-.603-.284-.99-.284a1.7 1.7 0 0 0-.99.287c-.277.191-.49.463-.639.814-.148.352-.222.772-.222 1.26v.012c0 .484.074.903.222 1.256.149.354.362.626.64.818a1.7 1.7 0 0 0 .99.287Zm8.098.791v-1.752h-4.12v-.96c.231-.384.466-.771.704-1.164a127.578 127.578 0 0 1 2.194-3.49c.244-.374.486-.738.724-1.09h1.53v5.76h1.2v.944h-1.2v1.752H69.46Zm-3.041-2.69h3.047v-4.787h-.07c-.192.286-.387.581-.586.888a167.94 167.94 0 0 0-1.22 1.907c-.202.325-.403.648-.6.97-.197.322-.387.64-.571.952v.07Z" fill="#1D1D1F" fill-rule="nonzero"/>
        <path d="M41.914 71.727c-1.326 0-2.393-.4-3.201-1.2-.809-.8-1.213-1.859-1.213-3.175V40.368c0-1.316.404-2.373 1.213-3.171.808-.798 1.875-1.197 3.2-1.197H78.08c1.338 0 2.41.399 3.214 1.197.804.798 1.206 1.855 1.206 3.171v26.984c0 1.316-.402 2.375-1.206 3.175-.805.8-1.876 1.2-3.214 1.2H41.914Zm.043-3.817h2.08c.26 0 .47-.083.629-.25a.879.879 0 0 0 .237-.63v-1.872c0-.254-.08-.46-.237-.62-.158-.161-.368-.241-.63-.241h-2.131a.869.869 0 0 0-.633.24.829.829 0 0 0-.247.62v1.835c0 .612.31.918.932.918Zm-.052-6.142h2.131a.812.812 0 0 0 .63-.26.879.879 0 0 0 .237-.613v-1.84a.884.884 0 0 0-.237-.64c-.158-.164-.368-.247-.63-.247h-2.131a.858.858 0 0 0-.633.247.865.865 0 0 0-.247.64v1.84c0 .236.082.44.247.614.164.173.375.26.633.26Zm0-6.123h2.131c.262 0 .472-.085.63-.253a.85.85 0 0 0 .237-.601v-1.847a.876.876 0 0 0-.237-.634c-.158-.164-.368-.246-.63-.246h-2.131a.858.858 0 0 0-.633.246.857.857 0 0 0-.247.634v1.847c0 .232.082.432.247.6a.846.846 0 0 0 .633.254Zm0-6.079h2.131c.262 0 .472-.084.63-.253a.85.85 0 0 0 .237-.601v-1.86a.884.884 0 0 0-.237-.64c-.158-.164-.368-.246-.63-.246h-2.131a.858.858 0 0 0-.633.247.865.865 0 0 0-.247.64v1.859c0 .232.082.432.247.601a.846.846 0 0 0 .633.253Zm0-6.154h2.131c.262 0 .472-.082.63-.247a.836.836 0 0 0 .237-.6v-1.887c0-.262-.08-.474-.237-.636-.158-.163-.368-.244-.63-.244h-2.08c-.62 0-.931.31-.931.932v1.834c0 .236.082.436.247.601a.856.856 0 0 0 .633.247ZM49.01 67.91h21.927c.302 0 .546-.092.732-.278.185-.186.278-.434.278-.744v-10.1c0-.3-.093-.545-.278-.73-.186-.186-.43-.28-.732-.28H49.01c-.315 0-.564.094-.748.28-.183.185-.275.43-.275.73v10.1c0 .31.092.558.275.744.184.186.433.278.748.278Zm0-15.954h21.927c.302 0 .546-.093.732-.28.185-.185.278-.429.278-.73v-10.15c0-.302-.093-.544-.278-.726-.186-.181-.43-.272-.732-.272H49.01c-.315 0-.564.091-.748.272-.183.182-.275.424-.275.725v10.15c0 .302.092.546.275.732.184.186.433.279.748.279ZM75.892 67.91h2.08c.625 0 .937-.306.937-.918v-1.834a.829.829 0 0 0-.246-.62.877.877 0 0 0-.64-.241h-2.13c-.25 0-.457.08-.621.24a.829.829 0 0 0-.247.62v1.873a.86.86 0 0 0 .247.63c.164.167.371.25.62.25Zm0-6.142h2.131a.842.842 0 0 0 .64-.26.86.86 0 0 0 .246-.613v-1.84a.878.878 0 0 0-.24-.64c-.16-.164-.375-.247-.646-.247h-2.13a.841.841 0 0 0-.868.886v1.841c0 .236.083.44.247.614a.82.82 0 0 0 .62.26Zm0-6.123h2.131a.853.853 0 0 0 .886-.854v-1.847a.87.87 0 0 0-.24-.634c-.16-.164-.375-.246-.646-.246h-2.13a.841.841 0 0 0-.868.88v1.847c0 .232.083.432.247.6a.83.83 0 0 0 .62.254Zm0-6.079h2.131a.853.853 0 0 0 .886-.854v-1.86a.878.878 0 0 0-.24-.64c-.16-.164-.375-.246-.646-.246h-2.13a.841.841 0 0 0-.868.886v1.86c0 .232.083.432.247.601a.83.83 0 0 0 .62.253Zm0-6.154h2.131a.864.864 0 0 0 .64-.247.819.819 0 0 0 .246-.6V40.73c0-.621-.312-.932-.937-.932h-2.08a.847.847 0 0 0-.62.244.855.855 0 0 0-.247.636v1.886c0 .236.083.436.247.601a.84.84 0 0 0 .62.247Z" fill="#8F8F94" fill-rule="nonzero"/>
    </g>
</svg>
