<svg width="120" height="120" xmlns="http://www.w3.org/2000/svg">
    <g fill="none" fill-rule="evenodd">
        <path fill="#EBEBF1" d="M0 0h120v120H0z"/>
        <path d="m47.452 97-3.117-8.455h1.107l2.485 7.09h.094l2.484-7.09h1.107L48.495 97h-1.043Zm5.537 0v-6.316h1.02V97h-1.02Zm.516-7.535a.676.676 0 0 1-.495-.208.676.676 0 0 1-.208-.495c0-.196.07-.362.208-.498a.681.681 0 0 1 .495-.205c.195 0 .361.068.498.205a.678.678 0 0 1 .205.498.681.681 0 0 1-.205.495.673.673 0 0 1-.498.208Zm4.758 7.646c-.532 0-.996-.134-1.395-.404-.398-.27-.707-.65-.926-1.14-.218-.49-.328-1.063-.328-1.72v-.011c0-.66.11-1.234.328-1.723.22-.488.527-.867.923-1.136.397-.27.863-.405 1.398-.405.289 0 .561.046.817.138.256.092.483.22.683.384.199.164.355.36.468.586h.094v-3.504h1.02V97h-1.02v-1.008h-.094a2.121 2.121 0 0 1-1.154.985c-.25.09-.521.134-.814.134Zm.234-.902a1.7 1.7 0 0 0 .99-.287c.278-.192.49-.464.639-.818.148-.353.223-.772.223-1.256v-.012c0-.488-.075-.908-.223-1.26a1.819 1.819 0 0 0-.639-.814 1.7 1.7 0 0 0-.99-.287c-.383 0-.712.094-.987.284-.276.19-.487.46-.633.811-.147.352-.22.774-.22 1.266v.012c0 .488.073.909.22 1.262.146.354.357.625.633.815.275.19.604.284.987.284Zm7.383.902c-.602 0-1.118-.132-1.55-.398a2.61 2.61 0 0 1-.996-1.128c-.232-.486-.349-1.06-.349-1.72v-.006c0-.652.117-1.224.349-1.716.232-.493.562-.877.987-1.155.426-.277.924-.416 1.494-.416.575 0 1.068.133 1.48.399.412.265.728.635.95 1.11.22.475.33 1.026.33 1.655v.399h-5.062v-.815h4.54l-.503.744v-.404c0-.496-.074-.904-.223-1.224a1.59 1.59 0 0 0-.615-.718 1.71 1.71 0 0 0-.902-.238c-.34 0-.644.083-.912.25-.267.166-.48.41-.635.735-.157.324-.235.722-.235 1.195v.404c0 .45.076.833.229 1.152.152.318.369.562.65.732.281.17.614.255.996.255.285 0 .534-.039.744-.117.211-.078.385-.178.522-.299s.232-.244.287-.369l.023-.053h1.02l-.012.047a1.94 1.94 0 0 1-.29.624 2.32 2.32 0 0 1-.536.545 2.65 2.65 0 0 1-.776.387 3.286 3.286 0 0 1-1.005.143Zm6.873 0c-.598 0-1.114-.132-1.55-.395a2.613 2.613 0 0 1-1.008-1.128c-.236-.488-.354-1.068-.354-1.74v-.012c0-.676.118-1.258.354-1.746a2.594 2.594 0 0 1 1.008-1.125c.436-.262.952-.393 1.55-.393.601 0 1.12.131 1.553.393a2.6 2.6 0 0 1 1.005 1.125c.236.488.354 1.07.354 1.746v.012c0 .672-.118 1.252-.354 1.74a2.619 2.619 0 0 1-1.005 1.128c-.434.263-.952.395-1.553.395Zm0-.902c.398 0 .736-.094 1.014-.281.277-.188.489-.457.635-.809.147-.351.22-.775.22-1.271v-.012c0-.5-.073-.926-.22-1.277a1.744 1.744 0 0 0-.635-.806c-.278-.186-.616-.278-1.014-.278-.399 0-.736.092-1.014.278-.277.185-.489.454-.635.806-.147.351-.22.777-.22 1.277v.012c0 .496.073.92.22 1.271.146.352.358.621.635.809.278.187.615.281 1.014.281Z" fill="#1D1D1F" fill-rule="nonzero"/>
        <path d="M41.914 71.727c-1.326 0-2.393-.4-3.201-1.2-.809-.8-1.213-1.859-1.213-3.175V40.368c0-1.316.404-2.373 1.213-3.171.808-.798 1.875-1.197 3.2-1.197H78.08c1.338 0 2.41.399 3.214 1.197.804.798 1.206 1.855 1.206 3.171v26.984c0 1.316-.402 2.375-1.206 3.175-.805.8-1.876 1.2-3.214 1.2H41.914Zm.043-3.817h2.08c.26 0 .47-.083.629-.25a.879.879 0 0 0 .237-.63v-1.872c0-.254-.08-.46-.237-.62-.158-.161-.368-.241-.63-.241h-2.131a.869.869 0 0 0-.633.24.829.829 0 0 0-.247.62v1.835c0 .612.31.918.932.918Zm-.052-6.142h2.131a.812.812 0 0 0 .63-.26.879.879 0 0 0 .237-.613v-1.84a.884.884 0 0 0-.237-.64c-.158-.164-.368-.247-.63-.247h-2.131a.858.858 0 0 0-.633.247.865.865 0 0 0-.247.64v1.84c0 .236.082.44.247.614.164.173.375.26.633.26Zm0-6.123h2.131c.262 0 .472-.085.63-.253a.85.85 0 0 0 .237-.601v-1.847a.876.876 0 0 0-.237-.634c-.158-.164-.368-.246-.63-.246h-2.131a.858.858 0 0 0-.633.246.857.857 0 0 0-.247.634v1.847c0 .232.082.432.247.6a.846.846 0 0 0 .633.254Zm0-6.079h2.131c.262 0 .472-.084.63-.253a.85.85 0 0 0 .237-.601v-1.86a.884.884 0 0 0-.237-.64c-.158-.164-.368-.246-.63-.246h-2.131a.858.858 0 0 0-.633.247.865.865 0 0 0-.247.64v1.859c0 .232.082.432.247.601a.846.846 0 0 0 .633.253Zm0-6.154h2.131c.262 0 .472-.082.63-.247a.836.836 0 0 0 .237-.6v-1.887c0-.262-.08-.474-.237-.636-.158-.163-.368-.244-.63-.244h-2.08c-.62 0-.931.31-.931.932v1.834c0 .236.082.436.247.601a.856.856 0 0 0 .633.247ZM49.01 67.91h21.927c.302 0 .546-.092.732-.278.185-.186.278-.434.278-.744v-10.1c0-.3-.093-.545-.278-.73-.186-.186-.43-.28-.732-.28H49.01c-.315 0-.564.094-.748.28-.183.185-.275.43-.275.73v10.1c0 .31.092.558.275.744.184.186.433.278.748.278Zm0-15.954h21.927c.302 0 .546-.093.732-.28.185-.185.278-.429.278-.73v-10.15c0-.302-.093-.544-.278-.726-.186-.181-.43-.272-.732-.272H49.01c-.315 0-.564.091-.748.272-.183.182-.275.424-.275.725v10.15c0 .302.092.546.275.732.184.186.433.279.748.279ZM75.892 67.91h2.08c.625 0 .937-.306.937-.918v-1.834a.829.829 0 0 0-.246-.62.877.877 0 0 0-.64-.241h-2.13c-.25 0-.457.08-.621.24a.829.829 0 0 0-.247.62v1.873a.86.86 0 0 0 .247.63c.164.167.371.25.62.25Zm0-6.142h2.131a.842.842 0 0 0 .64-.26.86.86 0 0 0 .246-.613v-1.84a.878.878 0 0 0-.24-.64c-.16-.164-.375-.247-.646-.247h-2.13a.841.841 0 0 0-.868.886v1.841c0 .236.083.44.247.614a.82.82 0 0 0 .62.26Zm0-6.123h2.131a.853.853 0 0 0 .886-.854v-1.847a.87.87 0 0 0-.24-.634c-.16-.164-.375-.246-.646-.246h-2.13a.841.841 0 0 0-.868.88v1.847c0 .232.083.432.247.6a.83.83 0 0 0 .62.254Zm0-6.079h2.131a.853.853 0 0 0 .886-.854v-1.86a.878.878 0 0 0-.24-.64c-.16-.164-.375-.246-.646-.246h-2.13a.841.841 0 0 0-.868.886v1.86c0 .232.083.432.247.601a.83.83 0 0 0 .62.253Zm0-6.154h2.131a.864.864 0 0 0 .64-.247.819.819 0 0 0 .246-.6V40.73c0-.621-.312-.932-.937-.932h-2.08a.847.847 0 0 0-.62.244.855.855 0 0 0-.247.636v1.886c0 .236.083.436.247.601a.84.84 0 0 0 .62.247Z" fill="#8F8F94" fill-rule="nonzero"/>
    </g>
</svg>
