<svg width="80" height="80" xmlns="http://www.w3.org/2000/svg">
    <g fill="none" fill-rule="evenodd">
        <path fill="#EBEBF1" d="M0 0h80v80H0z"/>
        <path d="M21.244 58.525c-1.375 0-2.481-.415-3.32-1.244-.838-.83-1.257-1.928-1.257-3.293V26.005c0-1.365.419-2.461 1.257-3.289.839-.827 1.945-1.241 3.32-1.241H58.75c1.388 0 2.498.414 3.332 1.241.834.828 1.251 1.924 1.251 3.289v27.983c0 1.365-.417 2.463-1.25 3.293-.835.83-1.945 1.244-3.333 1.244H21.244Zm.044-3.958h2.157c.271 0 .489-.086.653-.26a.911.911 0 0 0 .246-.652v-1.943a.877.877 0 0 0-.246-.643c-.164-.166-.382-.25-.653-.25h-2.21a.901.901 0 0 0-.657.25.86.86 0 0 0-.256.643v1.903c0 .635.322.952.966.952Zm-.053-6.37h2.21c.271 0 .489-.09.653-.269a.911.911 0 0 0 .246-.636v-1.909c0-.271-.082-.492-.246-.663-.164-.17-.382-.255-.653-.255h-2.21a.89.89 0 0 0-.657.255.897.897 0 0 0-.256.663v1.91c0 .244.085.456.256.635.17.18.39.27.657.27Zm0-6.35h2.21c.271 0 .489-.087.653-.262a.88.88 0 0 0 .246-.623v-1.916a.908.908 0 0 0-.246-.656c-.164-.171-.382-.256-.653-.256h-2.21a.89.89 0 0 0-.657.256.889.889 0 0 0-.256.656v1.916c0 .24.085.448.256.623.17.175.39.262.657.262Zm0-6.303h2.21c.271 0 .489-.088.653-.263a.88.88 0 0 0 .246-.623v-1.929c0-.271-.082-.492-.246-.663-.164-.17-.382-.256-.653-.256h-2.21a.89.89 0 0 0-.657.256.897.897 0 0 0-.256.663v1.929c0 .24.085.448.256.623.17.175.39.263.657.263Zm0-6.382h2.21c.271 0 .489-.086.653-.257a.866.866 0 0 0 .246-.623v-1.955c0-.272-.082-.492-.246-.66-.164-.169-.382-.253-.653-.253h-2.157c-.644 0-.966.322-.966.966v1.902c0 .245.085.452.256.623.17.171.39.257.657.257Zm7.368 25.405h22.74c.313 0 .565-.096.758-.289.193-.192.289-.45.289-.771V43.034c0-.313-.096-.566-.29-.758-.192-.193-.444-.29-.757-.29h-22.74c-.327 0-.585.097-.775.29-.191.192-.286.445-.286.758v10.473c0 .321.095.579.286.771.19.193.448.29.775.29Zm0-16.546h22.74c.313 0 .565-.096.758-.288.193-.193.289-.446.289-.759V26.448c0-.313-.096-.564-.29-.752-.192-.188-.444-.282-.757-.282h-22.74c-.327 0-.585.094-.775.282-.191.188-.286.439-.286.752v10.526c0 .313.095.566.286.759.19.192.448.288.775.288ZM56.48 54.567h2.156c.648 0 .972-.317.972-.952v-1.903a.86.86 0 0 0-.255-.643c-.17-.166-.392-.25-.663-.25h-2.21a.884.884 0 0 0-.643.25.86.86 0 0 0-.256.643v1.943c0 .262.085.48.256.653.17.173.385.26.643.26Zm0-6.37h2.21c.271 0 .492-.09.663-.269a.893.893 0 0 0 .255-.636v-1.909c0-.271-.083-.492-.249-.663-.166-.17-.389-.255-.67-.255h-2.21a.872.872 0 0 0-.642.255.897.897 0 0 0-.256.663v1.91c0 .244.085.456.256.635.17.18.385.27.643.27Zm0-6.35h2.21a.885.885 0 0 0 .918-.885v-1.916a.902.902 0 0 0-.249-.656c-.166-.171-.389-.256-.67-.256h-2.21a.872.872 0 0 0-.898.912v1.916c0 .24.085.448.256.623a.86.86 0 0 0 .643.262Zm0-6.303h2.21a.885.885 0 0 0 .918-.886v-1.929c0-.271-.083-.492-.249-.663-.166-.17-.389-.256-.67-.256h-2.21a.872.872 0 0 0-.642.256.897.897 0 0 0-.256.663v1.929c0 .24.085.448.256.623a.86.86 0 0 0 .643.263Zm0-6.382h2.21a.896.896 0 0 0 .663-.257.85.85 0 0 0 .255-.623V26.38c0-.644-.324-.966-.972-.966h-2.156a.878.878 0 0 0-.643.253c-.17.168-.256.388-.256.66v1.955a.85.85 0 0 0 .256.623c.17.171.385.257.643.257Z" fill="#8F8F94" fill-rule="nonzero"/>
    </g>
</svg>
