<svg width="60" height="60" xmlns="http://www.w3.org/2000/svg">
    <path d="M8.607 5.263c-2.672 0-4.774.775-6.308 2.326C.767 9.139 0 11.37 0 14.282v31.41c0 2.92.782 5.158 2.345 6.713 1.563 1.554 3.813 2.332 6.751 2.332H51.33c2.724 0 4.849-.778 6.377-2.332C59.236 50.85 60 48.613 60 45.693V19.126c0-2.91-.784-5.147-2.352-6.706-1.567-1.559-3.815-2.339-6.744-2.339H28.28c-.997 0-1.85-.128-2.558-.386-.708-.258-1.47-.704-2.287-1.34l-1.314-1.03A12.07 12.07 0 0 0 20.253 6.1a6.903 6.903 0 0 0-1.925-.643c-.701-.13-1.54-.194-2.52-.194h-7.2ZM6.648 15.08c0-1.022.284-1.808.85-2.357.567-.55 1.362-.825 2.384-.825h4.135c.988 0 1.83.13 2.526.386.695.259 1.456.71 2.28 1.353l1.302 1.044c.661.516 1.288.924 1.88 1.224.593.301 1.242.516 1.946.644.704.129 1.546.194 2.525.194h23.693c1.031 0 1.82.26 2.365.78.545.519.818 1.328.818 2.428v1.559H6.648v-6.43Zm46.704 11.88v17.934c0 1.09-.273 1.895-.818 2.415-.546.52-1.334.78-2.365.78H9.817c-1.038 0-1.826-.26-2.364-.78-.536-.52-.805-1.329-.805-2.428V26.959h46.704Z" fill="#86868B" fill-rule="evenodd"/>
</svg>
