<svg width="120" height="120" xmlns="http://www.w3.org/2000/svg">
    <g fill="none" fill-rule="evenodd">
        <path fill="#E6EDF7" d="M0 0h120v120H0z"/>
        <path d="M37.5 71.988V55.74h45v16.248c0 2.048-.495 3.583-1.486 4.607-.99 1.024-2.371 1.536-4.141 1.536H43.722c-2.074 0-3.63-.512-4.667-1.536s-1.555-2.56-1.555-4.607Zm0-18.844v-5.31c0-1.995.476-3.488 1.427-4.479.95-.99 2.298-1.486 4.042-1.486h5.647c.648 0 1.212.046 1.694.139.483.092.925.244 1.328.456.403.211.822.502 1.258.872l1.209.99c.502.423.984.724 1.447.902.462.178 1.03.267 1.704.267h19.022c2.06 0 3.613.516 4.657 1.546 1.043 1.03 1.565 2.563 1.565 4.597v1.506h-45Z" fill="#32ADE6"/>
    </g>
</svg>
