<svg width="60" height="60" xmlns="http://www.w3.org/2000/svg">
    <path d="M6.713 42.407V25.591h46.574v16.816c0 2.12-.513 3.709-1.538 4.768-1.026 1.06-2.455 1.59-4.287 1.59h-34.31c-2.146 0-3.756-.53-4.829-1.59s-1.61-2.649-1.61-4.768Zm0-19.503v-5.496c0-2.064.493-3.61 1.477-4.635.984-1.025 2.379-1.538 4.184-1.538h5.844c.67 0 1.255.048 1.754.144.499.096.957.253 1.374.472.417.218.85.52 1.302.902l1.25 1.025c.52.438 1.02.749 1.498.933.479.185 1.066.277 1.764.277h19.687c2.133 0 3.74.533 4.82 1.6 1.08 1.066 1.62 2.652 1.62 4.758v1.558H6.713Z" fill="#32ADE6" fill-rule="evenodd"/>
</svg>
