<svg width="80" height="80" xmlns="http://www.w3.org/2000/svg">
    <g fill="none" fill-rule="evenodd">
        <path fill="#E6EDF7" d="M0 0h80v80H0z"/>
        <path d="M16.667 52.432v-16.85h46.666v16.85c0 2.124-.513 3.716-1.54 4.778-1.028 1.061-2.46 1.592-4.296 1.592H23.12c-2.15 0-3.764-.53-4.84-1.592-1.075-1.062-1.612-2.654-1.612-4.778Zm0-19.542v-5.507c0-2.069.493-3.617 1.48-4.644.986-1.028 2.383-1.541 4.191-1.541h5.857a9.43 9.43 0 0 1 1.757.144c.5.095.959.253 1.376.472.418.22.853.52 1.305.904l1.254 1.028c.52.438 1.02.75 1.5.935.48.185 1.068.277 1.767.277h19.727c2.137 0 3.747.534 4.829 1.603 1.082 1.069 1.623 2.658 1.623 4.767v1.562H16.667Z" fill="#32ADE6"/>
    </g>
</svg>
