<svg width="60" height="60" xmlns="http://www.w3.org/2000/svg">
    <path d="M8.132 5.466c-2.546 0-4.538.734-5.976 2.201C.719 9.134 0 11.28 0 14.1v31.697c0 2.852.75 5.021 2.247 6.507 1.498 1.487 3.685 2.23 6.56 2.23H51.75c2.593 0 4.615-.743 6.07-2.23C59.272 50.818 60 48.65 60 45.797v-26.77c0-2.84-.752-5.006-2.256-6.498-1.504-1.492-3.687-2.238-6.551-2.238H27.58c-.96 0-1.78-.126-2.454-.376-.676-.25-1.395-.681-2.157-1.29l-1.422-1.136a11.06 11.06 0 0 0-1.8-1.202 6.751 6.751 0 0 0-1.87-.63c-.68-.127-1.488-.19-2.424-.19H8.132Zm46.085 20.635v19.12c0 1.186-.306 2.071-.915 2.654-.609.583-1.478.875-2.607.875H9.288c-1.142 0-2.01-.292-2.608-.875-.597-.583-.896-1.474-.896-2.672V26.1h48.433ZM5.784 14.696c0-1.124.302-1.982.906-2.575.603-.592 1.461-.888 2.572-.888h4.655c.949 0 1.756.126 2.42.38.664.253 1.38.687 2.149 1.303l1.413 1.153c.625.501 1.226.899 1.802 1.192a6.936 6.936 0 0 0 1.892.631c.686.127 1.497.191 2.434.191h24.668c1.129 0 1.998.293 2.607.879.61.587.915 1.479.915 2.677v1.54H5.784v-6.483Z" fill="#86868B" fill-rule="evenodd"/>
</svg>
