<svg width="120" height="120" xmlns="http://www.w3.org/2000/svg">
    <g fill="none" fill-rule="evenodd">
        <path fill="#E6EDF7" d="M0 0h120v120H0z"/>
        <path d="M42.035 97.2c-.765 0-1.428-.18-1.986-.54-.559-.36-.99-.869-1.292-1.53-.303-.66-.454-1.442-.454-2.349v-.011c0-.91.151-1.696.454-2.356.303-.66.732-1.17 1.289-1.53.557-.359 1.218-.538 1.983-.538.594 0 1.134.116 1.62.348a3.27 3.27 0 0 1 1.205.967c.316.412.515.888.597 1.427l-.006.012h-1.06l-.006-.012a2.284 2.284 0 0 0-1.286-1.553 2.543 2.543 0 0 0-1.064-.217c-.539 0-1.007.141-1.403.422-.397.281-.702.68-.917 1.196-.215.515-.322 1.126-.322 1.834v.011c0 .703.107 1.313.322 1.828.215.516.52.914.917 1.196.396.28.866.422 1.41.422.394 0 .751-.064 1.071-.19.32-.128.59-.31.809-.546.219-.236.371-.516.457-.84l.012-.012h1.066v.011a2.898 2.898 0 0 1-.61 1.345c-.312.381-.707.677-1.186.888-.478.21-1.018.316-1.62.316Zm6.791-.089a2.46 2.46 0 0 1-1.075-.228 1.832 1.832 0 0 1-.756-.65 1.767 1.767 0 0 1-.278-.997v-.011c0-.375.09-.697.27-.964.179-.268.44-.478.784-.63.344-.152.76-.242 1.249-.27l2.32-.14v.814l-2.197.14c-.48.028-.831.128-1.052.3-.22.171-.331.414-.331.726v.012c0 .32.12.57.363.747.242.178.547.267.914.267.348 0 .656-.07.926-.208.27-.14.481-.328.636-.566.154-.238.231-.508.231-.808v-1.97c0-.39-.118-.688-.354-.893-.237-.205-.591-.307-1.064-.307-.379 0-.69.067-.932.202a1.003 1.003 0 0 0-.486.571l-.006.018h-1.02l.007-.036c.054-.332.192-.622.413-.87.22-.248.507-.441.858-.58a3.254 3.254 0 0 1 1.201-.208c.516 0 .952.084 1.31.252.357.168.629.41.814.724.186.314.279.69.279 1.128V97h-1.02v-.932h-.094a2.17 2.17 0 0 1-.483.569 2 2 0 0 1-.642.354c-.238.08-.5.12-.785.12ZM53.713 97v-6.316h1.02v.937h.093c.121-.332.326-.59.615-.773.29-.184.647-.276 1.073-.276.097 0 .194.005.29.015.095.01.169.018.22.026v.99a3.28 3.28 0 0 0-.627-.059c-.325 0-.612.065-.862.194-.25.13-.446.309-.589.54-.142.23-.214.5-.214.808V97h-1.02Zm4.687 2.11v-8.426h1.02v1.007h.094a2.121 2.121 0 0 1 1.154-.984c.25-.09.521-.135.814-.135.536 0 1.001.136 1.398.407.396.272.704.652.923 1.14.218.488.328 1.06.328 1.717v.012c0 .66-.11 1.234-.328 1.722-.219.489-.527.868-.923 1.137-.397.27-.862.404-1.398.404-.289 0-.561-.046-.817-.137a2.23 2.23 0 0 1-.68-.384 1.876 1.876 0 0 1-.471-.586h-.094v3.105H58.4Zm2.848-2.901c.387 0 .717-.095.99-.284.274-.19.484-.461.63-.815.147-.353.22-.774.22-1.262v-.012c0-.492-.073-.914-.22-1.266a1.797 1.797 0 0 0-.63-.811c-.273-.19-.603-.284-.99-.284a1.7 1.7 0 0 0-.99.287c-.278.191-.49.463-.639.814-.148.352-.223.772-.223 1.26v.012c0 .484.075.903.223 1.256.149.354.361.626.639.818a1.7 1.7 0 0 0 .99.287Zm7.055.902c-.602 0-1.118-.132-1.55-.398a2.61 2.61 0 0 1-.996-1.128c-.233-.486-.349-1.06-.349-1.72v-.006c0-.652.116-1.224.349-1.716.232-.493.561-.877.987-1.155.426-.277.924-.416 1.494-.416.575 0 1.068.133 1.48.399.412.265.728.635.949 1.11.22.475.331 1.026.331 1.655v.399h-5.062v-.815h4.54l-.503.744v-.404c0-.496-.075-.904-.223-1.224a1.59 1.59 0 0 0-.615-.718 1.71 1.71 0 0 0-.903-.238c-.34 0-.643.083-.91.25-.268.166-.48.41-.636.735-.157.324-.235.722-.235 1.195v.404c0 .45.076.833.229 1.152.152.318.369.562.65.732.281.17.613.255.996.255.285 0 .533-.039.744-.117.211-.078.385-.178.522-.299s.232-.244.287-.369l.023-.053h1.02l-.012.047a1.94 1.94 0 0 1-.29.624 2.32 2.32 0 0 1-.536.545 2.65 2.65 0 0 1-.776.387 3.286 3.286 0 0 1-1.005.143Zm6.521-.064c-.648 0-1.118-.131-1.409-.393-.291-.261-.436-.693-.436-1.295v-3.832h-.997v-.843h.997v-1.635h1.054v1.635h1.383v.843h-1.383v3.575c0 .37.07.637.211.8.14.161.375.243.703.243.09 0 .167-.002.232-.006l.237-.018v.867c-.098.016-.195.03-.293.041a2.506 2.506 0 0 1-.299.018Zm3.85.064a2.46 2.46 0 0 1-1.075-.228 1.832 1.832 0 0 1-.756-.65 1.767 1.767 0 0 1-.279-.997v-.011c0-.375.09-.697.27-.964.18-.268.441-.478.785-.63.344-.152.76-.242 1.248-.27l2.32-.14v.814l-2.197.14c-.48.028-.83.128-1.052.3-.22.171-.33.414-.33.726v.012c0 .32.12.57.363.747.242.178.547.267.914.267.347 0 .656-.07.926-.208.27-.14.481-.328.635-.566.155-.238.232-.508.232-.808v-1.97c0-.39-.118-.688-.355-.893-.236-.205-.59-.307-1.063-.307-.38 0-.69.067-.932.202a1.003 1.003 0 0 0-.486.571l-.006.018h-1.02l.006-.036c.055-.332.193-.622.413-.87.221-.248.507-.441.859-.58a3.254 3.254 0 0 1 1.2-.208c.517 0 .953.084 1.31.252.358.168.63.41.815.724.185.314.278.69.278 1.128V97h-1.02v-.932h-.093a2.17 2.17 0 0 1-.483.569 2 2 0 0 1-.642.354c-.238.08-.5.12-.785.12Z" fill="#1D1D1F" fill-rule="nonzero"/>
        <path d="M37.5 66.119V49.87h45v16.248c0 2.047-.495 3.583-1.486 4.607-.99 1.024-2.371 1.536-4.141 1.536H43.722c-2.074 0-3.63-.512-4.667-1.536s-1.555-2.56-1.555-4.607Zm0-18.844v-5.31c0-1.995.476-3.488 1.427-4.479.95-.99 2.298-1.486 4.042-1.486h5.647c.648 0 1.212.046 1.694.139.483.092.925.244 1.328.455.403.212.822.502 1.258.872l1.209.991c.502.423.984.723 1.447.902.462.178 1.03.267 1.704.267h19.022c2.06 0 3.613.515 4.657 1.546 1.043 1.03 1.565 2.562 1.565 4.597v1.506h-45Z" fill="#32ADE6"/>
    </g>
</svg>
