<svg width="80" height="80" xmlns="http://www.w3.org/2000/svg">
    <path d="M47.374 9.544H32.626c-2.244 0-4.488 1.283-5.45 3.206L7.3 48.015a6.79 6.79 0 0 0 0 6.09l6.732 12.824c1.283 2.244 3.527 3.527 5.771 3.527h40.394c2.244 0 4.488-1.283 5.77-3.527L72.7 54.106a6.79 6.79 0 0 0 0-6.091L53.144 12.75c-1.282-1.923-3.526-3.206-5.77-3.206Zm1.706 4.153 20.88 37.566-7.866 15.04H17.905l-7.865-15.04 20.88-37.566h18.16ZM37 27.053 22.79 51.684 25 55.79h30l2.21-4.105-14.526-24.631H37Zm-8.83 24.584L40 31.146l11.83 20.49H28.17Z" fill="#000" fill-rule="evenodd"/>
</svg>
