<svg width="80" height="80" xmlns="http://www.w3.org/2000/svg">
    <path d="M47.153 10.456H32.847c-2.177 0-4.354 1.244-5.287 3.11L8.28 47.775a6.587 6.587 0 0 0 0 5.909l6.53 12.44c1.244 2.176 3.421 3.42 5.598 3.42h39.185c2.177 0 4.355-1.244 5.599-3.42l6.53-12.44a6.587 6.587 0 0 0 0-5.91l-18.97-34.208c-1.244-1.866-3.421-3.11-5.598-3.11Zm1.655 4.028 20.256 36.442-7.63 14.59H18.565l-7.63-14.59 20.256-36.442h17.616ZM37.09 27.44 23.304 51.335l2.145 3.982H54.55l2.145-3.982L42.604 27.44H37.09Zm-8.566 23.849L40 31.41 51.476 51.29H28.524Z" fill="#1D1D1F" fill-rule="evenodd"/>
</svg>
