<svg width="48" height="60" xmlns="http://www.w3.org/2000/svg">
    <path d="M23.478 20.173v14.993l.002-.123c.069-2.2 1.868-3.966 4.09-4.007 2.341-.045 4.257 1.899 4.257 4.217v3l.002-.107c.068-2.2 1.866-3.966 4.09-4.007 2.34-.044 4.255 1.9 4.255 4.219v2.763c0-1.818 1.26-3.342 2.96-3.765a4.028 4.028 0 0 1 1.058-.114c2.132.056 3.808 1.836 3.808 3.95v10.532c0 2.91-.527 5.698-1.491 8.276H7.826L.981 44.969l-.3-.66-.02-.029-.085-.15-.01-.014A4.624 4.624 0 0 1 0 41.898a4.642 4.642 0 0 1 2.261-3.983l.217-.123a4.713 4.713 0 0 1 2.473-.543 4.698 4.698 0 0 1 3.796 2.293l.048.083 4.318 7.414c.268.46.974.272.974-.259V20.25c0-2.552 2.041-4.688 4.614-4.73 2.63-.044 4.777 2.056 4.777 4.654ZM18.783 6.724a12.016 12.016 0 0 1 10.501 6.139 11.743 11.743 0 0 1 1.499 5.758 11.78 11.78 0 0 1-2.094 6.717 12.081 12.081 0 0 1-1.887 2.133v-4.004a9.188 9.188 0 0 0 1.372-4.846 9.19 9.19 0 0 0-1.372-4.848 9.37 9.37 0 0 0-3.13-3.102 9.386 9.386 0 0 0-4.89-1.36 9.385 9.385 0 0 0-4.888 1.36 9.364 9.364 0 0 0-3.673 4.117 9.2 9.2 0 0 0-.83 3.833c0 1.776.501 3.435 1.372 4.846v4.004a12.034 12.034 0 0 1-1.886-2.133 11.774 11.774 0 0 1-2.094-6.717c0-2.089.542-4.051 1.498-5.758A11.934 11.934 0 0 1 12.007 8.8a12.018 12.018 0 0 1 6.776-2.076Zm0-6.724c2.868 0 5.586.637 8.019 1.777a18.76 18.76 0 0 1 7.401 6.211 18.41 18.41 0 0 1 3.362 10.633c0 4.35-1.506 8.352-4.027 11.523L31.677 28.3a15.869 15.869 0 0 0 3.28-9.68c0-3.237-.968-6.25-2.631-8.77a16.143 16.143 0 0 0-3.78-4.012 16.204 16.204 0 0 0-9.763-3.251A16.204 16.204 0 0 0 5.24 9.85a15.848 15.848 0 0 0-2.631 8.77c0 3.637 1.219 6.99 3.278 9.68a16.198 16.198 0 0 0 4.875 4.248v2.914a18.79 18.79 0 0 1-6.735-5.318A18.447 18.447 0 0 1 0 18.621C0 14.667 1.243 11 3.362 7.988a18.816 18.816 0 0 1 7.401-6.211A18.847 18.847 0 0 1 18.783 0Z" fill="#FFF" fill-rule="nonzero"/>
</svg>
