<svg width="32" height="40" xmlns="http://www.w3.org/2000/svg">
    <path d="M15.652 13.448v9.996l.002-.082a2.77 2.77 0 0 1 2.727-2.672c1.56-.03 2.837 1.267 2.837 2.812v2l.001-.071a2.77 2.77 0 0 1 2.727-2.672c1.56-.03 2.837 1.266 2.837 2.813v1.842a2.593 2.593 0 0 1 2.679-2.586c1.42.037 2.538 1.224 2.538 2.633v7.022c0 1.94-.351 3.798-.994 5.517H5.217L.654 29.98l-.2-.44-.013-.02-.057-.1-.007-.01a3.095 3.095 0 0 1 1.13-4.134l.145-.082a3.142 3.142 0 0 1 1.649-.362 3.132 3.132 0 0 1 2.53 1.53l.033.055 2.878 4.942c.178.306.65.182.65-.172V13.499c0-1.701 1.36-3.125 3.075-3.154 1.754-.028 3.185 1.372 3.185 3.103Zm-3.13-8.965a8.01 8.01 0 0 1 7 4.092 7.829 7.829 0 0 1 1 3.839 7.854 7.854 0 0 1-1.396 4.478c-.362.523-.784 1-1.258 1.422v-2.67a6.125 6.125 0 0 0 .915-3.23 6.127 6.127 0 0 0-.915-3.232 6.247 6.247 0 0 0-2.086-2.068 6.257 6.257 0 0 0-3.26-.907c-1.195 0-2.31.33-3.26.907a6.242 6.242 0 0 0-2.448 2.745 6.133 6.133 0 0 0-.553 2.555c0 1.184.334 2.29.915 3.23v2.67a8.023 8.023 0 0 1-1.258-1.422 7.849 7.849 0 0 1-1.396-4.478c0-1.392.361-2.701.999-3.839a7.956 7.956 0 0 1 2.484-2.708 8.012 8.012 0 0 1 4.517-1.384Zm0-4.483a12.565 12.565 0 0 1 7.75 2.662 12.507 12.507 0 0 1 2.53 2.664 12.273 12.273 0 0 1 2.241 7.088c0 2.9-1.003 5.568-2.684 7.682l-1.241-1.23a10.58 10.58 0 0 0 2.186-6.452c0-2.159-.645-4.167-1.753-5.847a10.762 10.762 0 0 0-2.52-2.675 10.803 10.803 0 0 0-6.509-2.168 10.803 10.803 0 0 0-9.028 4.843 10.565 10.565 0 0 0-1.754 5.847c0 2.424.812 4.659 2.186 6.453a10.798 10.798 0 0 0 3.25 2.831v1.943a12.527 12.527 0 0 1-4.49-3.545A12.298 12.298 0 0 1 0 12.414c0-2.636.829-5.08 2.241-7.088a12.544 12.544 0 0 1 4.934-4.14 12.565 12.565 0 0 1 5.347-1.186Z" fill="#FFF" fill-rule="evenodd"/>
</svg>
