<?xml version="1.0" encoding="UTF-8"?>
<svg width="61px" height="61px" viewBox="0 0 61 61" version="1.1" xmlns="http://www.w3.org/2000/svg" xmlns:xlink="http://www.w3.org/1999/xlink">
    <title>info-5</title>
    <g id="Symbols" stroke="none" stroke-width="1" fill="none" fill-rule="evenodd">
        <g id="3-Iconos/Contorno/info-circle" transform="translate(-9, -10)" fill="#1D1D1F" fill-rule="nonzero">
            <path d="M39.8681641,70.3476562 C35.7309092,70.3476562 31.8485562,69.5682445 28.2211052,68.009421 C24.5936543,66.4505974 21.4073797,64.2986366 18.6622817,61.5535386 C15.9171837,58.8084406 13.7652229,55.6221661 12.2063994,51.9947151 C10.6475758,48.3672641 9.86816406,44.4849112 9.86816406,40.3476562 C9.86816406,36.2104013 10.6475758,32.3280484 12.2063994,28.7005974 C13.7652229,25.0731464 15.9171837,21.88197 18.6622817,19.127068 C21.4073797,16.3721661 24.5936543,14.2202053 28.2211052,12.6711857 C31.8485562,11.1221661 35.7309092,10.3476562 39.8681641,10.3476562 C44.005419,10.3476562 47.8877719,11.1221661 51.5152229,12.6711857 C55.1426739,14.2202053 58.3289484,16.3721661 61.0740464,19.127068 C63.8191445,21.88197 65.9711052,25.0731464 67.5299288,28.7005974 C69.0887523,32.3280484 69.8681641,36.2104013 69.8681641,40.3476562 C69.8681641,44.4849112 69.0887523,48.3672641 67.5299288,51.9947151 C65.9711052,55.6221661 63.8191445,58.8084406 61.0740464,61.5535386 C58.3289484,64.2986366 55.1426739,66.4505974 51.5152229,68.009421 C47.8877719,69.5682445 44.005419,70.3476562 39.8681641,70.3476562 Z M39.8681641,65.3476562 C43.3191445,65.3476562 46.5544386,64.7005974 49.5740464,63.4064798 C52.5936543,62.1123621 55.250517,60.3182445 57.5446347,58.0241268 C59.8387523,55.7300092 61.6328699,53.0731464 62.9269876,50.0535386 C64.2211052,47.0339308 64.8681641,43.7986366 64.8681641,40.3476562 C64.8681641,36.8966759 64.2211052,33.6564798 62.9269876,30.627068 C61.6328699,27.5976562 59.8387523,24.9407935 57.5446347,22.6564798 C55.250517,20.3721661 52.5936543,18.5829504 49.5740464,17.2888327 C46.5544386,15.9947151 43.3191445,15.3476562 39.8681641,15.3476562 C36.4171837,15.3476562 33.1818896,15.9947151 30.1622817,17.2888327 C27.1426739,18.5829504 24.4858111,20.3721661 22.1916935,22.6564798 C19.8975758,24.9407935 18.1034582,27.5976562 16.8093405,30.627068 C15.5152229,33.6564798 14.8681641,36.8966759 14.8681641,40.3476562 C14.8681641,43.7986366 15.5152229,47.0339308 16.8093405,50.0535386 C18.1034582,53.0731464 19.8975758,55.7300092 22.1916935,58.0241268 C24.4858111,60.3182445 27.1426739,62.1123621 30.1622817,63.4064798 C33.1818896,64.7005974 36.4171837,65.3476562 39.8681641,65.3476562 Z M34.7211052,56.7888327 C34.1132621,56.7888327 33.6034582,56.5927543 33.1916935,56.2005974 C32.7799288,55.8084406 32.5740464,55.3182445 32.5740464,54.7300092 C32.5740464,54.1417739 32.7799288,53.6515778 33.1916935,53.259421 C33.6034582,52.8672641 34.1132621,52.6711857 34.7211052,52.6711857 L38.3681641,52.6711857 L38.3681641,39.1711857 L35.2211052,39.1711857 C34.6132621,39.1711857 34.1034582,38.9751072 33.6916935,38.5829504 C33.2799288,38.1907935 33.0740464,37.7005974 33.0740464,37.1123621 C33.0740464,36.5241268 33.2799288,36.0339308 33.6916935,35.6417739 C34.1034582,35.249617 34.6132621,35.0535386 35.2211052,35.0535386 L40.750517,35.0535386 C41.495615,35.0535386 42.0642425,35.2937347 42.4563994,35.7741268 C42.8485562,36.254519 43.0446347,36.8966759 43.0446347,37.7005974 L43.0446347,52.6711857 L46.6916935,52.6711857 C47.2995366,52.6711857 47.8093405,52.8672641 48.2211052,53.259421 C48.6328699,53.6515778 48.8387523,54.1417739 48.8387523,54.7300092 C48.8387523,55.3182445 48.6328699,55.8084406 48.2211052,56.2005974 C47.8093405,56.5927543 47.2995366,56.7888327 46.6916935,56.7888327 L34.7211052,56.7888327 Z M39.6034582,30.1417739 C38.5446347,30.1417739 37.6426739,29.7692249 36.8975758,29.0241268 C36.1524778,28.2790288 35.7799288,27.377068 35.7799288,26.3182445 C35.7799288,25.2398131 36.1524778,24.3280484 36.8975758,23.5829504 C37.6426739,22.8378523 38.5446347,22.4653033 39.6034582,22.4653033 C40.6818896,22.4653033 41.5887523,22.8378523 42.3240464,23.5829504 C43.0593405,24.3280484 43.4269876,25.2398131 43.4269876,26.3182445 C43.4269876,27.377068 43.0593405,28.2790288 42.3240464,29.0241268 C41.5887523,29.7692249 40.6818896,30.1417739 39.6034582,30.1417739 Z" id="info-5"></path>
        </g>
    </g>
</svg>