<?xml version="1.0" encoding="UTF-8"?>
<svg width="60px" height="60px" viewBox="0 0 60 60" version="1.1" xmlns="http://www.w3.org/2000/svg" xmlns:xlink="http://www.w3.org/1999/xlink">
    <title>3 Iconos/Relleno/info-circle-fill</title>
    <g id="3-Iconos/Relleno/info-circle-fill" stroke="none" stroke-width="1" fill="none" fill-rule="evenodd">
        <path d="M30,60 C25.8627451,60 21.9803922,59.2205882 18.3529412,57.6617647 C14.7254902,56.1029412 11.5392157,53.9460784 8.79411765,51.1911765 C6.04901961,48.4362745 3.89705882,45.25 2.33823529,41.6323529 C0.779411765,38.0147059 0,34.1372549 0,30 C0,25.8627451 0.779411765,21.9803922 2.33823529,18.3529412 C3.89705882,14.7254902 6.04901961,11.5392157 8.79411765,8.79411765 C11.5392157,6.04901961 14.7254902,3.89705882 18.3529412,2.33823529 C21.9803922,0.779411765 25.8627451,0 30,0 C34.1372549,0 38.0196078,0.779411765 41.6470588,2.33823529 C45.2745098,3.89705882 48.4607843,6.04901961 51.2058824,8.79411765 C53.9509804,11.5392157 56.1029412,14.7254902 57.6617647,18.3529412 C59.2205882,21.9803922 60,25.8627451 60,30 C60,34.1372549 59.2205882,38.0147059 57.6617647,41.6323529 C56.1029412,45.25 53.9509804,48.4362745 51.2058824,51.1911765 C48.4607843,53.9460784 45.2745098,56.1029412 41.6470588,57.6617647 C38.0196078,59.2205882 34.1372549,60 30,60 Z M24.7058824,47 L37.0294118,47 C37.6568627,47 38.1862745,46.7990196 38.6176471,46.3970588 C39.0490196,45.995098 39.2647059,45.4803922 39.2647059,44.8529412 C39.2647059,44.2647059 39.0490196,43.7598039 38.6176471,43.3382353 C38.1862745,42.9166667 37.6568627,42.7058824 37.0294118,42.7058824 L33.2941176,42.7058824 L33.2941176,27.3235294 C33.2941176,26.5 33.0931373,25.8333333 32.6911765,25.3235294 C32.2892157,24.8137255 31.6960784,24.5588235 30.9117647,24.5588235 L25.2058824,24.5588235 C24.5980392,24.5588235 24.0784314,24.7696078 23.6470588,25.1911765 C23.2156863,25.6127451 23,26.1176471 23,26.7058824 C23,27.3333333 23.2156863,27.8480392 23.6470588,28.25 C24.0784314,28.6519608 24.5980392,28.8529412 25.2058824,28.8529412 L28.4411765,28.8529412 L28.4411765,42.7058824 L24.7058824,42.7058824 C24.0784314,42.7058824 23.5490196,42.9166667 23.1176471,43.3382353 C22.6862745,43.7598039 22.4705882,44.2647059 22.4705882,44.8529412 C22.4705882,45.4803922 22.6862745,45.995098 23.1176471,46.3970588 C23.5490196,46.7990196 24.0784314,47 24.7058824,47 Z M29.7352941,19.5294118 C30.8529412,19.5294118 31.7892157,19.1421569 32.5441176,18.3676471 C33.2990196,17.5931373 33.6764706,16.6568627 33.6764706,15.5588235 C33.6764706,14.4411765 33.2990196,13.495098 32.5441176,12.7205882 C31.7892157,11.9460784 30.8529412,11.5588235 29.7352941,11.5588235 C28.6372549,11.5588235 27.7009804,11.9460784 26.9264706,12.7205882 C26.1519608,13.495098 25.7647059,14.4411765 25.7647059,15.5588235 C25.7647059,16.6568627 26.1519608,17.5931373 26.9264706,18.3676471 C27.7009804,19.1421569 28.6372549,19.5294118 29.7352941,19.5294118 Z" id="info-circle-fill" fill="#C7C7CB"></path>
    </g>
</svg>
