<?xml version="1.0" encoding="UTF-8"?>
<svg width="61px" height="61px" viewBox="0 0 61 61" version="1.1" xmlns="http://www.w3.org/2000/svg" xmlns:xlink="http://www.w3.org/1999/xlink">
    <title>Forma</title>
    <g id="Symbols" stroke="none" stroke-width="1" fill="none" fill-rule="evenodd">
        <g id="arrow.down.to.line.circle.fill" transform="translate(-9, -10)" fill="#86868B" fill-rule="nonzero">
            <g transform="translate(9.9854, 10.4648)" id="Forma">
                <path d="M29.8828125,59.765625 C25.7617188,59.765625 21.8945312,58.9892578 18.28125,57.4365234 C14.6679688,55.8837891 11.4941406,53.7353516 8.75976562,50.9912109 C6.02539062,48.2470703 3.88183594,45.0732422 2.32910156,41.4697266 C0.776367188,37.8662109 0,34.0039062 0,29.8828125 C0,25.7617188 0.776367188,21.8945312 2.32910156,18.28125 C3.88183594,14.6679688 6.02539062,11.4941406 8.75976562,8.75976562 C11.4941406,6.02539062 14.6679688,3.88183594 18.28125,2.32910156 C21.8945312,0.776367188 25.7617188,0 29.8828125,0 C34.0039062,0 37.8710938,0.776367188 41.484375,2.32910156 C45.0976562,3.88183594 48.2714844,6.02539062 51.0058594,8.75976562 C53.7402344,11.4941406 55.8837891,14.6679688 57.4365234,18.28125 C58.9892578,21.8945312 59.765625,25.7617188 59.765625,29.8828125 C59.765625,34.0039062 58.9892578,37.8662109 57.4365234,41.4697266 C55.8837891,45.0732422 53.7402344,48.2470703 51.0058594,50.9912109 C48.2714844,53.7353516 45.0976562,55.8837891 41.484375,57.4365234 C37.8710938,58.9892578 34.0039062,59.765625 29.8828125,59.765625 Z M24.609375,46.8164062 L36.8847656,46.8164062 C37.5097656,46.8164062 38.0371094,46.6162109 38.4667969,46.2158203 C38.8964844,45.8154297 39.1113281,45.3027344 39.1113281,44.6777344 C39.1113281,44.0917969 38.8964844,43.5888672 38.4667969,43.1689453 C38.0371094,42.7490234 37.5097656,42.5390625 36.8847656,42.5390625 L33.1640625,42.5390625 L33.1640625,27.2167969 C33.1640625,26.3964844 32.9638672,25.7324219 32.5634766,25.2246094 C32.1630859,24.7167969 31.5722656,24.4628906 30.7910156,24.4628906 L25.1074219,24.4628906 C24.5019531,24.4628906 23.984375,24.6728516 23.5546875,25.0927734 C23.125,25.5126953 22.9101562,26.015625 22.9101562,26.6015625 C22.9101562,27.2265625 23.125,27.7392578 23.5546875,28.1396484 C23.984375,28.5400391 24.5019531,28.7402344 25.1074219,28.7402344 L28.3300781,28.7402344 L28.3300781,42.5390625 L24.609375,42.5390625 C23.984375,42.5390625 23.4570312,42.7490234 23.0273438,43.1689453 C22.5976562,43.5888672 22.3828125,44.0917969 22.3828125,44.6777344 C22.3828125,45.3027344 22.5976562,45.8154297 23.0273438,46.2158203 C23.4570312,46.6162109 23.984375,46.8164062 24.609375,46.8164062 Z M29.6191406,19.453125 C30.7324219,19.453125 31.6650391,19.0673828 32.4169922,18.2958984 C33.1689453,17.5244141 33.5449219,16.5917969 33.5449219,15.4980469 C33.5449219,14.3847656 33.1689453,13.4423828 32.4169922,12.6708984 C31.6650391,11.8994141 30.7324219,11.5136719 29.6191406,11.5136719 C28.5253906,11.5136719 27.5927734,11.8994141 26.8212891,12.6708984 C26.0498047,13.4423828 25.6640625,14.3847656 25.6640625,15.4980469 C25.6640625,16.5917969 26.0498047,17.5244141 26.8212891,18.2958984 C27.5927734,19.0673828 28.5253906,19.453125 29.6191406,19.453125 Z"></path>
            </g>
        </g>
    </g>
</svg>