<svg width="60" height="60" xmlns="http://www.w3.org/2000/svg">
    <path d="M30 60c-4.137 0-8.02-.78-11.647-2.338-3.628-1.56-6.814-3.716-9.559-6.47a30.528 30.528 0 0 1-6.456-9.56C.78 38.015 0 34.137 0 30s.78-8.02 2.338-11.647c1.56-3.628 3.711-6.814 6.456-9.559 2.745-2.745 5.931-4.897 9.559-6.456C21.98.78 25.863 0 30 0c4.137 0 8.02.78 11.647 2.338 3.628 1.56 6.814 3.711 9.559 6.456 2.745 2.745 4.897 5.931 6.456 9.559C59.22 21.98 60 25.863 60 30c0 4.137-.78 8.015-2.338 11.632a30.528 30.528 0 0 1-6.456 9.56c-2.745 2.754-5.931 4.91-9.559 6.47C38.02 59.22 34.137 60 30 60Zm-5.294-13h12.323c.628 0 1.157-.201 1.589-.603.431-.402.647-.917.647-1.544 0-.588-.216-1.093-.647-1.515-.432-.421-.961-.632-1.589-.632h-3.735V27.324c0-.824-.2-1.49-.603-2-.402-.51-.995-.765-1.78-.765h-5.705a2.15 2.15 0 0 0-1.559.632A2.043 2.043 0 0 0 23 26.706c0 .627.216 1.142.647 1.544.431.402.951.603 1.559.603h3.235v13.853h-3.735c-.628 0-1.157.21-1.588.632a2.043 2.043 0 0 0-.647 1.515c0 .627.215 1.142.647 1.544.431.402.96.603 1.588.603Zm5.03-27.47c1.117 0 2.053-.388 2.808-1.162.755-.775 1.132-1.711 1.132-2.81 0-1.117-.377-2.063-1.132-2.837-.755-.775-1.691-1.162-2.809-1.162-1.098 0-2.034.387-2.809 1.162-.774.774-1.161 1.72-1.161 2.838 0 1.098.387 2.034 1.161 2.809.775.774 1.711 1.161 2.81 1.161Z" fill="#C7C7CB" fill-rule="nonzero"/>
</svg>
