<?xml version="1.0" encoding="UTF-8"?>
<svg width="60px" height="60px" viewBox="0 0 60 60" version="1.1" xmlns="http://www.w3.org/2000/svg" xmlns:xlink="http://www.w3.org/1999/xlink">
    <title>info.circle</title>
    <g id="Symbols" stroke="none" stroke-width="1" fill="none" fill-rule="evenodd">
        <g id="arrow.down.circle" fill="#1D1D1F" fill-rule="nonzero">
            <path d="M30,60 C25.8524427,60 21.9641077,59.222333 18.334995,57.666999 C14.7058824,56.111665 11.5204387,53.9581256 8.77866401,51.2063809 C6.03688933,48.4546361 3.888335,45.2691924 2.333001,41.6500499 C0.777666999,38.0309073 0,34.1475573 0,30 C0,25.8524427 0.777666999,21.9690927 2.333001,18.3499501 C3.888335,14.7308076 6.03688933,11.5403789 8.77866401,8.77866401 C11.5204387,6.01694915 14.7058824,3.86340977 18.334995,2.31804586 C21.9641077,0.772681954 25.8524427,0 30,0 C34.1276171,0 38.0059821,0.772681954 41.6350947,2.31804586 C45.2642074,3.86340977 48.449651,6.01694915 51.1914257,8.77866401 C53.9332004,11.5403789 56.0867398,14.7308076 57.6520439,18.3499501 C59.217348,21.9690927 60,25.8524427 60,30 C60,34.1475573 59.217348,38.0309073 57.6520439,41.6500499 C56.0867398,45.2691924 53.9332004,48.4546361 51.1914257,51.2063809 C48.449651,53.9581256 45.2642074,56.111665 41.6350947,57.666999 C38.0059821,59.222333 34.1276171,60 30,60 Z M30,56.1415753 C33.6091725,56.1415753 36.9940179,55.4636092 40.1545364,54.107677 C43.3150548,52.7517448 46.0917248,50.8773679 48.4845464,48.4845464 C50.8773679,46.0917248 52.7517448,43.3150548 54.107677,40.1545364 C55.4636092,36.9940179 56.1415753,33.6091725 56.1415753,30 C56.1415753,26.3908275 55.4636092,23.000997 54.107677,19.8305085 C52.7517448,16.6600199 50.8773679,13.88335 48.4845464,11.5004985 C46.0917248,9.11764706 43.3150548,7.24825523 40.1545364,5.89232303 C36.9940179,4.53639083 33.6091725,3.85842473 30,3.85842473 C26.3908275,3.85842473 23.0059821,4.53639083 19.8454636,5.89232303 C16.6849452,7.24825523 13.9082752,9.11764706 11.5154536,11.5004985 C9.1226321,13.88335 7.24825523,16.6600199 5.89232303,19.8305085 C4.53639083,23.000997 3.85842473,26.3908275 3.85842473,30 C3.85842473,33.6091725 4.53639083,36.9940179 5.89232303,40.1545364 C7.24825523,43.3150548 9.1226321,46.0917248 11.5154536,48.4845464 C13.9082752,50.8773679 16.6849452,52.7517448 19.8454636,54.107677 C23.0059821,55.4636092 26.3908275,56.1415753 30,56.1415753 Z M24.6460618,46.4506481 C24.1674975,46.4506481 23.7637089,46.2961117 23.4346959,45.9870389 C23.105683,45.6779661 22.9411765,45.2941176 22.9411765,44.8354935 C22.9411765,44.3569292 23.105683,43.9581256 23.4346959,43.6390828 C23.7637089,43.3200399 24.1674975,43.1605184 24.6460618,43.1605184 L28.9531406,43.1605184 L28.9531406,27.6370887 L25.0348953,27.6370887 C24.5363908,27.6370887 24.1276171,27.4775673 23.8085743,27.1585244 C23.4895314,26.8394816 23.33001,26.4506481 23.33001,25.9920239 C23.33001,25.5333998 23.4895314,25.1445663 23.8085743,24.8255234 C24.1276171,24.5064806 24.5363908,24.3469591 25.0348953,24.3469591 L30.777667,24.3469591 C31.3559322,24.3469591 31.8045862,24.5314058 32.1236291,24.9002991 C32.442672,25.2691924 32.6021934,25.7627119 32.6021934,26.3808574 L32.6021934,43.1605184 L36.8793619,43.1605184 C37.3778664,43.1605184 37.7866401,43.3200399 38.105683,43.6390828 C38.4247258,43.9581256 38.5842473,44.3569292 38.5842473,44.8354935 C38.5842473,45.2941176 38.4247258,45.6779661 38.105683,45.9870389 C37.7866401,46.2961117 37.3778664,46.4506481 36.8793619,46.4506481 L24.6460618,46.4506481 Z M29.8205384,18.8434696 C28.9232303,18.8434696 28.1555334,18.5294118 27.5174477,17.9012961 C26.8793619,17.2731805 26.560319,16.5104686 26.560319,15.6131605 C26.560319,14.6959123 26.8793619,13.9182453 27.5174477,13.2801595 C28.1555334,12.6420738 28.9232303,12.3230309 29.8205384,12.3230309 C30.7377866,12.3230309 31.5104686,12.6420738 32.1385842,13.2801595 C32.7666999,13.9182453 33.0807577,14.6959123 33.0807577,15.6131605 C33.0807577,16.5104686 32.7666999,17.2731805 32.1385842,17.9012961 C31.5104686,18.5294118 30.7377866,18.8434696 29.8205384,18.8434696 Z" id="info.circle"></path>
        </g>
    </g>
</svg>