<?xml version="1.0" encoding="UTF-8"?>
<svg width="61px" height="61px" viewBox="0 0 61 61" version="1.1" xmlns="http://www.w3.org/2000/svg" xmlns:xlink="http://www.w3.org/1999/xlink">
    <title>info-7</title>
    <g id="Symbols" stroke="none" stroke-width="1" fill="none" fill-rule="evenodd">
        <g id="3-Iconos/Relleno/info-circle-fill" transform="translate(-9, -10)" fill="#1D1D1F" fill-rule="nonzero">
            <path d="M39.8694193,70.3476562 C35.727521,70.3476562 31.8444912,69.5662564 28.2203302,68.0034568 C24.5961691,66.4406572 21.4082496,64.2834185 18.6565718,61.5317406 C15.9048939,58.7800628 13.7524491,55.5969372 12.1992372,51.9823638 C10.6460253,48.3677905 9.86941934,44.4895546 9.86941934,40.3476562 C9.86941934,36.2057579 10.6460253,32.3227282 12.1992372,28.6985671 C13.7524491,25.074406 15.9048939,21.8864865 18.6565718,19.1348087 C21.4082496,16.3831308 24.5961691,14.230686 28.2203302,12.6774741 C31.8444912,11.1242622 35.727521,10.3476562 39.8694193,10.3476562 C44.0113177,10.3476562 47.8943474,11.1242622 51.5185085,12.6774741 C55.1426696,14.230686 58.3257952,16.3831308 61.0678853,19.1348087 C63.8099754,21.8864865 65.9624203,25.074406 67.5252199,28.6985671 C69.0880195,32.3227282 69.8694193,36.2057579 69.8694193,40.3476562 C69.8694193,44.4895546 69.0880195,48.3677905 67.5252199,51.9823638 C65.9624203,55.5969372 63.8099754,58.7800628 61.0678853,61.5317406 C58.3257952,64.2834185 55.1426696,66.4406572 51.5185085,68.0034568 C47.8943474,69.5662564 44.0113177,70.3476562 39.8694193,70.3476562 Z M34.5194673,56.8289602 L46.6575306,56.8289602 C47.3861979,56.8289602 47.9998124,56.5940609 48.4983743,56.1242622 C48.9969361,55.6544635 49.246217,55.0456428 49.246217,54.2978001 C49.246217,53.6266591 48.9969361,53.0466016 48.4983743,52.5576275 C47.9998124,52.0686534 47.3861979,51.8241663 46.6575306,51.8241663 L43.6086331,51.8241663 L43.6086331,38.420523 C43.6086331,37.4425748 43.3737338,36.6611749 42.9039352,36.0763236 C42.4341365,35.4914722 41.7390262,35.1990465 40.8186044,35.1990465 L35.0659678,35.1990465 C34.3373004,35.1990465 33.7236859,35.4387397 33.225124,35.918126 C32.7265622,36.3975124 32.4772813,36.9823638 32.4772813,37.6726802 C32.4772813,38.420523 32.7265622,39.0245498 33.225124,39.4847608 C33.7236859,39.9449717 34.3373004,40.1750772 35.0659678,40.1750772 L37.9710493,40.1750772 L37.9710493,51.8241663 L34.5194673,51.8241663 C33.7908,51.8241663 33.1771854,52.0686534 32.6786236,52.5576275 C32.1800617,53.0466016 31.9307808,53.6266591 31.9307808,54.2978001 C31.9307808,55.0456428 32.1800617,55.6544635 32.6786236,56.1242622 C33.1771854,56.5940609 33.7908,56.8289602 34.5194673,56.8289602 Z M39.7256034,30.7695163 C40.9144817,30.7695163 41.9211931,30.3524501 42.7457376,29.5183178 C43.5702822,28.6841855 43.9825545,27.6822679 43.9825545,26.5125652 C43.9825545,25.3045115 43.5702822,24.2834185 42.7457376,23.4492862 C41.9211931,22.6151539 40.9144817,22.1980877 39.7256034,22.1980877 C38.5559006,22.1980877 37.5539831,22.6151539 36.7198508,23.4492862 C35.8857185,24.2834185 35.4686523,25.3045115 35.4686523,26.5125652 C35.4686523,27.6822679 35.8857185,28.6841855 36.7198508,29.5183178 C37.5539831,30.3524501 38.5559006,30.7695163 39.7256034,30.7695163 Z" id="info-7"></path>
        </g>
    </g>
</svg>