<?xml version="1.0" encoding="UTF-8"?>
<svg width="61px" height="61px" viewBox="0 0 61 61" version="1.1" xmlns="http://www.w3.org/2000/svg" xmlns:xlink="http://www.w3.org/1999/xlink">
    <title>info-6</title>
    <g id="Symbols" stroke="none" stroke-width="1" fill="none" fill-rule="evenodd">
        <g id="3-Iconos/Contorno/info-circle" transform="translate(-9, -10)" fill="#1D1D1F" fill-rule="nonzero">
            <path d="M39.8597192,70.3331425 C35.7184517,70.3331425 31.8384323,69.5542358 28.2196612,67.9964226 C24.60089,66.4386093 21.4175325,64.2905687 18.6695886,61.5523007 C15.9216447,58.8140326 13.7687661,55.6306751 12.2109529,52.0022281 C10.6531396,48.3737811 9.87423301,44.4889238 9.87423301,40.3476562 C9.87423301,36.2063887 10.6531396,32.3215314 12.2109529,28.6930844 C13.7687661,25.0646374 15.9216447,21.8764419 18.6695886,19.128498 C21.4175325,16.3805542 24.60089,14.2325135 28.2196612,12.6843761 C31.8384323,11.1362387 35.7184517,10.36217 39.8597192,10.36217 C44.0009868,10.36217 47.885844,11.1362387 51.5142911,12.6843761 C55.1427381,14.2325135 58.3309335,16.3805542 61.0788774,19.128498 C63.8268213,21.8764419 65.9796999,25.0646374 67.5375131,28.6930844 C69.0953264,32.3215314 69.874233,36.2063887 69.874233,40.3476562 C69.874233,44.4889238 69.0953264,48.3737811 67.5375131,52.0022281 C65.9796999,55.6306751 63.8268213,58.8140326 61.0788774,61.5523007 C58.3309335,64.2905687 55.1427381,66.4386093 51.5142911,67.9964226 C47.885844,69.5542358 44.0009868,70.3331425 39.8597192,70.3331425 Z M39.8597192,64.4115169 C43.1882146,64.4115169 46.3038411,63.787424 49.2065988,62.5392383 C52.1093564,61.2910525 54.668621,59.5639117 56.8843927,57.3578159 C59.1001643,55.1517201 60.8273051,52.5972934 62.065815,49.6945358 C63.3043249,46.7917782 63.9235799,43.6761517 63.9235799,40.3476562 C63.9235799,37.0191608 63.3043249,33.8986964 62.065815,30.9862629 C60.8273051,28.0738294 59.1001643,25.5194027 56.8843927,23.3229828 C54.668621,21.1265629 52.1093564,19.40426 49.2065988,18.1560742 C46.3038411,16.9078885 43.1882146,16.2837956 39.8597192,16.2837956 C36.5505755,16.2837956 33.439787,16.9078885 30.5273535,18.1560742 C27.61492,19.40426 25.0556554,21.1265629 22.8495596,23.3229828 C20.6434638,25.5194027 18.916323,28.0738294 17.6681372,30.9862629 C16.4199514,33.8986964 15.7958586,37.0191608 15.7958586,40.3476562 C15.7958586,43.6761517 16.4199514,46.7917782 17.6681372,49.6945358 C18.916323,52.5972934 20.6434638,55.1517201 22.8495596,57.3578159 C25.0556554,59.5639117 27.61492,61.2910525 30.5273535,62.5392383 C33.439787,63.787424 36.5505755,64.4115169 39.8597192,64.4115169 Z M34.7798934,56.2837956 C34.121935,56.2837956 33.575249,56.0757646 33.1398353,55.6597027 C32.7044217,55.2436408 32.4867149,54.7163065 32.4867149,54.0776998 C32.4867149,53.4390931 32.7044217,52.9117588 33.1398353,52.4956969 C33.575249,52.079635 34.121935,51.871604 34.7798934,51.871604 L38.234175,51.871604 L38.234175,39.7380771 L35.3023898,39.7380771 C34.6444314,39.7380771 34.0929074,39.5300462 33.6478179,39.1139843 C33.2027284,38.6979223 32.9801837,38.170588 32.9801837,37.5319814 C32.9801837,36.9127264 33.2027284,36.39023 33.6478179,35.9644922 C34.0929074,35.5387545 34.6444314,35.3258856 35.3023898,35.3258856 L40.7595741,35.3258856 C41.5723462,35.3258856 42.1867632,35.5822958 42.6028252,36.0951163 C43.0188871,36.6079368 43.2269181,37.2997607 43.2269181,38.170588 L43.2269181,51.871604 L46.448979,51.871604 C47.1069374,51.871604 47.6536234,52.079635 48.0890371,52.4956969 C48.5244507,52.9117588 48.7421575,53.4390931 48.7421575,54.0776998 C48.7421575,54.7163065 48.5244507,55.2436408 48.0890371,55.6597027 C47.6536234,56.0757646 47.1069374,56.2837956 46.448979,56.2837956 L34.7798934,56.2837956 Z M39.6855538,30.8266113 C38.6018576,30.8266113 37.6778131,30.4444148 36.9134202,29.680022 C36.1490274,28.9156292 35.766831,27.9915846 35.766831,26.9078885 C35.766831,25.8048406 36.1490274,24.8711202 36.9134202,24.1067274 C37.6778131,23.3423345 38.6018576,22.9601381 39.6855538,22.9601381 C40.7692499,22.9601381 41.6932944,23.3423345 42.4576873,24.1067274 C43.2220801,24.8711202 43.6042765,25.8048406 43.6042765,26.9078885 C43.6042765,27.9915846 43.2220801,28.9156292 42.4576873,29.680022 C41.6932944,30.4444148 40.7692499,30.8266113 39.6855538,30.8266113 Z" id="info-6"></path>
        </g>
    </g>
</svg>