<?xml version="1.0" encoding="UTF-8"?>
<svg width="60px" height="60px" viewBox="0 0 60 60" version="1.1" xmlns="http://www.w3.org/2000/svg" xmlns:xlink="http://www.w3.org/1999/xlink">
    <title>info.circle.fill</title>
    <g id="Symbols" stroke="none" stroke-width="1" fill="none" fill-rule="evenodd">
        <g id="arrow.down.to.line.circle.fill" transform="translate(-10, -10)" fill="#86868B" fill-rule="nonzero">
            <g id="info.circle.fill" transform="translate(10.4883, 10.9629)">
                <path d="M29.3847656,58.7695312 C25.3222656,58.7695312 21.5185547,58.0078125 17.9736328,56.484375 C14.4287109,54.9609375 11.3085938,52.8466797 8.61328125,50.1416016 C5.91796875,47.4365234 3.80859375,44.3115234 2.28515625,40.7666016 C0.76171875,37.2216797 0,33.4277344 0,29.3847656 C0,25.3417969 0.76171875,21.5429688 2.28515625,17.9882812 C3.80859375,14.4335938 5.91796875,11.3085938 8.61328125,8.61328125 C11.3085938,5.91796875 14.4287109,3.80859375 17.9736328,2.28515625 C21.5185547,0.76171875 25.3222656,0 29.3847656,0 C33.4277344,0 37.2265625,0.76171875 40.78125,2.28515625 C44.3359375,3.80859375 47.4560547,5.91796875 50.1416016,8.61328125 C52.8271484,11.3085938 54.9365234,14.4335938 56.4697266,17.9882812 C58.0029297,21.5429688 58.7695312,25.3417969 58.7695312,29.3847656 C58.7695312,33.4277344 58.0029297,37.2216797 56.4697266,40.7666016 C54.9365234,44.3115234 52.8271484,47.4365234 50.1416016,50.1416016 C47.4560547,52.8466797 44.3359375,54.9609375 40.78125,56.484375 C37.2265625,58.0078125 33.4277344,58.7695312 29.3847656,58.7695312 Z M24.0234375,45.8789062 L36.2402344,45.8789062 C36.7285156,45.8789062 37.1386719,45.7226562 37.4707031,45.4101562 C37.8027344,45.0976562 37.96875,44.6972656 37.96875,44.2089844 C37.96875,43.7597656 37.8027344,43.3691406 37.4707031,43.0371094 C37.1386719,42.7050781 36.7285156,42.5390625 36.2402344,42.5390625 L31.9921875,42.5390625 L31.9921875,25.8105469 C31.9921875,25.2050781 31.8359375,24.7070312 31.5234375,24.3164062 C31.2109375,23.9257812 30.7519531,23.7304688 30.1464844,23.7304688 L24.4042969,23.7304688 C23.9160156,23.7304688 23.5107422,23.8964844 23.1884766,24.2285156 C22.8662109,24.5605469 22.7050781,24.9609375 22.7050781,25.4296875 C22.7050781,25.8984375 22.8662109,26.2939453 23.1884766,26.6162109 C23.5107422,26.9384766 23.9160156,27.0996094 24.4042969,27.0996094 L28.3007812,27.0996094 L28.3007812,42.5390625 L24.0234375,42.5390625 C23.5351562,42.5390625 23.125,42.7050781 22.7929688,43.0371094 C22.4609375,43.3691406 22.2949219,43.7597656 22.2949219,44.2089844 C22.2949219,44.6972656 22.4609375,45.0976562 22.7929688,45.4101562 C23.125,45.7226562 23.5351562,45.8789062 24.0234375,45.8789062 Z M29.1796875,18.28125 C30.1171875,18.28125 30.8984375,17.9638672 31.5234375,17.3291016 C32.1484375,16.6943359 32.4609375,15.9277344 32.4609375,15.0292969 C32.4609375,14.0917969 32.1484375,13.3007812 31.5234375,12.65625 C30.8984375,12.0117188 30.1171875,11.6894531 29.1796875,11.6894531 C28.28125,11.6894531 27.5097656,12.0117188 26.8652344,12.65625 C26.2207031,13.3007812 25.8984375,14.0917969 25.8984375,15.0292969 C25.8984375,15.9277344 26.2207031,16.6943359 26.8652344,17.3291016 C27.5097656,17.9638672 28.28125,18.28125 29.1796875,18.28125 Z"></path>
            </g>
        </g>
    </g>
</svg>