<svg width="60" height="60" xmlns="http://www.w3.org/2000/svg">
    <path d="M30 60c-4.137 0-8.02-.78-11.647-2.338-3.628-1.56-6.814-3.711-9.559-6.456-2.745-2.745-4.897-5.931-6.456-9.559C.78 38.02 0 34.137 0 30c0-4.137.78-8.02 2.338-11.647 1.56-3.628 3.711-6.819 6.456-9.574 2.745-2.754 5.931-4.906 9.559-6.455C21.98.774 25.863 0 30 0c4.137 0 8.02.775 11.647 2.324 3.628 1.549 6.814 3.7 9.559 6.455 2.745 2.755 4.897 5.946 6.456 9.574C59.22 21.98 60 25.863 60 30c0 4.137-.78 8.02-2.338 11.647-1.56 3.628-3.711 6.814-6.456 9.559-2.745 2.745-5.931 4.897-9.559 6.456C38.02 59.22 34.137 60 30 60Zm0-5c3.451 0 6.686-.647 9.706-1.941a25.203 25.203 0 0 0 7.97-5.383 25.203 25.203 0 0 0 5.383-7.97C54.353 36.686 55 33.45 55 30c0-3.451-.647-6.691-1.941-9.72a24.984 24.984 0 0 0-5.383-7.971 25.325 25.325 0 0 0-7.97-5.368C36.686 5.647 33.45 5 30 5c-3.451 0-6.686.647-9.706 1.941a25.325 25.325 0 0 0-7.97 5.368 24.984 24.984 0 0 0-5.383 7.97C5.647 23.31 5 26.55 5 30c0 3.451.647 6.686 1.941 9.706a25.203 25.203 0 0 0 5.383 7.97 25.203 25.203 0 0 0 7.97 5.383C23.314 54.353 26.55 55 30 55Zm-5.147-8.559c-.608 0-1.118-.196-1.53-.588-.411-.392-.617-.882-.617-1.47 0-.589.206-1.08.618-1.471.411-.392.921-.588 1.529-.588H28.5v-13.5h-3.147c-.608 0-1.118-.197-1.53-.589-.411-.392-.617-.882-.617-1.47 0-.589.206-1.079.618-1.47.411-.393.921-.59 1.529-.59h5.53c.744 0 1.313.241 1.705.721.392.48.588 1.123.588 1.927v14.97h3.648c.607 0 1.117.197 1.529.589.412.392.618.882.618 1.47 0 .589-.206 1.079-.618 1.47-.412.393-.922.59-1.53.59h-11.97Zm4.882-26.647c-1.059 0-1.96-.372-2.706-1.118-.745-.745-1.117-1.647-1.117-2.705 0-1.079.372-1.99 1.117-2.736.746-.745 1.647-1.117 2.706-1.117 1.079 0 1.986.372 2.72 1.117.736.745 1.104 1.657 1.104 2.736 0 1.058-.368 1.96-1.103 2.705-.735.746-1.642 1.118-2.72 1.118Z" fill="#1D1D1F" fill-rule="nonzero"/>
</svg>
