<svg width="60" height="60" xmlns="http://www.w3.org/2000/svg">
    <path d="M30 60c-4.148 0-8.036-.778-11.665-2.333-3.63-1.555-6.815-3.709-9.556-6.46a30.432 30.432 0 0 1-6.446-9.557C.778 38.03 0 34.148 0 30c0-4.148.778-8.03 2.333-11.65a30.612 30.612 0 0 1 6.446-9.571 29.76 29.76 0 0 1 9.556-6.461C21.965.773 25.852 0 30 0c4.128 0 8.006.773 11.635 2.318a29.76 29.76 0 0 1 9.556 6.46 30.826 30.826 0 0 1 6.461 9.572C59.217 21.97 60 25.852 60 30c0 4.148-.783 8.03-2.348 11.65a30.644 30.644 0 0 1-6.46 9.556c-2.742 2.752-5.928 4.906-9.557 6.461C38.006 59.222 34.128 60 30 60Zm0-3.858c3.61 0 6.994-.678 10.155-2.034a26.363 26.363 0 0 0 8.33-5.623 26.363 26.363 0 0 0 5.623-8.33c1.356-3.161 2.034-6.546 2.034-10.155 0-3.61-.678-6.999-2.034-10.17-1.356-3.17-3.23-5.947-5.623-8.33-2.393-2.382-5.17-4.252-8.33-5.608C36.994 4.536 33.609 3.858 30 3.858c-3.61 0-6.994.678-10.155 2.034-3.16 1.356-5.937 3.226-8.33 5.608-2.392 2.383-4.267 5.16-5.623 8.33C4.536 23.002 3.858 26.39 3.858 30c0 3.61.678 6.994 2.034 10.155a26.363 26.363 0 0 0 5.623 8.33 26.363 26.363 0 0 0 8.33 5.623c3.161 1.356 6.546 2.034 10.155 2.034Zm-5.354-9.691c-.479 0-.882-.155-1.211-.464a1.516 1.516 0 0 1-.494-1.152c0-.478.165-.877.494-1.196a1.674 1.674 0 0 1 1.211-.478h4.307V27.637h-3.918c-.499 0-.907-.16-1.226-.478a1.587 1.587 0 0 1-.479-1.167c0-.459.16-.847.479-1.166.319-.32.727-.479 1.226-.479h5.743c.578 0 1.027.184 1.346.553.319.37.478.863.478 1.48v16.78h4.277c.499 0 .908.16 1.227.48.319.318.478.717.478 1.195 0 .46-.16.843-.478 1.152-.32.31-.728.464-1.227.464H24.646Zm5.175-27.608a3.165 3.165 0 0 1-2.304-.942 3.09 3.09 0 0 1-.957-2.288c0-.917.32-1.695.957-2.333a3.14 3.14 0 0 1 2.304-.957c.917 0 1.69.32 2.318.957.628.638.942 1.416.942 2.333 0 .897-.314 1.66-.942 2.288-.629.628-1.401.942-2.318.942Z" fill="#1D1D1F" fill-rule="nonzero"/>
</svg>
