<svg width="80" height="80" xmlns="http://www.w3.org/2000/svg">
    <path d="M10.28 40.009v-4.442c0-3.356.902-5.908 2.703-7.657 1.801-1.749 4.432-2.623 7.894-2.623h10.022a72.377 72.377 0 0 0 7.075-1.122 70.583 70.583 0 0 0 7.422-1.97 61.14 61.14 0 0 0 7.148-2.811c2.285-1.072 4.365-2.29 6.241-3.654V19.5a39.11 39.11 0 0 1-6.173 3.543 54.956 54.956 0 0 1-6.962 2.647 70.904 70.904 0 0 1-7.472 1.843 87.488 87.488 0 0 1-7.655 1.113h-9.646c-2.498 0-4.327.557-5.487 1.67-1.16 1.114-1.74 2.864-1.74 5.25v4.442c0 2.38.58 4.127 1.74 5.24 1.16 1.114 2.99 1.671 5.487 1.671h9.806c2.528.255 5.052.625 7.57 1.108a70.672 70.672 0 0 1 7.392 1.834 54.82 54.82 0 0 1 6.934 2.642 40.76 40.76 0 0 1 6.206 3.543v3.79a43.33 43.33 0 0 0-6.279-3.649 56.583 56.583 0 0 0-7.034-2.787 72.164 72.164 0 0 0-7.375-1.952 74.914 74.914 0 0 0-7.301-1.16h-9.92c-3.46 0-6.092-.879-7.893-2.637-1.801-1.758-2.702-4.306-2.702-7.643Zm24.638 9.96 2.185 11.319c.347 1.765.18 3.206-.503 4.323-.683 1.117-1.647 1.865-2.891 2.244-.852.257-1.773.345-2.762.267-.99-.08-1.957-.46-2.901-1.143-.944-.683-1.761-1.791-2.451-3.324L19.175 49.5h3.468l6.274 13.586c.413.892.963 1.452 1.65 1.68.688.228 1.322.237 1.904.027a2.64 2.64 0 0 0 1.32-1.045c.333-.498.425-1.14.276-1.925l-2.323-11.855h3.174Zm-7.03-23.026h3.387v21.69h-3.387v-21.69Zm29.657 31.34V17.17c0-1.182.249-2.218.745-3.106a5.272 5.272 0 0 1 2.086-2.077c.894-.496 1.927-.744 3.097-.744 1.194 0 2.236.248 3.124.744a5.289 5.289 0 0 1 2.077 2.077c.496.888.744 1.924.744 3.106v41.113c0 1.189-.248 2.227-.744 3.115a5.289 5.289 0 0 1-2.077 2.077c-.888.496-1.93.744-3.124.744-1.17 0-2.203-.248-3.097-.744a5.272 5.272 0 0 1-2.086-2.077c-.496-.888-.745-1.926-.745-3.115Zm3.38 0c0 .774.23 1.396.693 1.864.462.469 1.08.703 1.855.703.774 0 1.398-.234 1.873-.703.475-.468.712-1.09.712-1.864V17.17c0-.774-.237-1.395-.712-1.864-.475-.468-1.1-.703-1.873-.703-.775 0-1.393.235-1.855.703-.462.469-.693 1.09-.693 1.864v41.113Z" fill="#1D1D1F" fill-rule="nonzero"/>
</svg>
