<svg width="210" height="60" xmlns="http://www.w3.org/2000/svg">
    <defs>
        <linearGradient x1="100%" y1="0%" x2="0%" y2="100%" id="a">
            <stop stop-color="#B900B4" offset="0%"/>
            <stop stop-color="#F50000" offset="100%"/>
        </linearGradient>
    </defs>
    <g fill="none" fill-rule="evenodd">
        <path d="M180 0c6.31 0 10.996.416 14.744 1.308 3.988.95 7.008 2.493 9.232 4.717 2.224 2.223 3.766 5.243 4.716 9.231C209.584 19.005 210 23.69 210 30c0 6.311-.416 10.996-1.308 14.745-.95 3.988-2.492 7.008-4.716 9.231-2.224 2.224-5.244 3.767-9.232 4.716C190.996 59.585 186.31 60 180 60c-6.31 0-10.996-.415-14.744-1.308-3.989-.95-7.008-2.492-9.232-4.716-2.224-2.223-3.766-5.243-4.716-9.231C150.416 40.996 150 36.31 150 30c0-6.31.416-10.995 1.308-14.744.95-3.988 2.493-7.008 4.716-9.231 2.224-2.224 5.243-3.767 9.232-4.717C169.004.416 173.689 0 180 0Z" fill="#000"/>
        <path d="M189.74 20.017a8.63 8.63 0 0 1-3.898-7.217h-6.15l-.01 24.805c-.105 2.778-2.375 5.007-5.16 5.007-.866 0-1.681-.218-2.399-.598a5.211 5.211 0 0 1-2.772-4.604c0-2.87 2.32-5.203 5.17-5.203a5.06 5.06 0 0 1 1.526.24V26.13c-.499-.069-1.007-.111-1.526-.111-6.242 0-11.321 5.11-11.321 11.392 0 3.854 1.914 7.265 4.833 9.326a11.205 11.205 0 0 0 6.488 2.064c6.242 0 11.321-5.11 11.321-11.392V24.831A14.566 14.566 0 0 0 194.4 27.6v-6.19a8.461 8.461 0 0 1-4.66-1.395v.002Z" fill="#FFF"/>
        <path d="M30 0c6.31 0 10.996.416 14.744 1.308 3.988.95 7.008 2.492 9.232 4.716 2.224 2.224 3.766 5.244 4.716 9.232C59.584 19.004 60 23.689 60 30c0 6.31-.416 10.996-1.308 14.744-.95 3.988-2.492 7.008-4.716 9.232-2.224 2.224-5.244 3.766-9.232 4.716C40.996 59.584 36.31 60 30 60c-6.31 0-10.996-.416-14.744-1.308-3.989-.95-7.008-2.492-9.232-4.716-2.224-2.224-3.766-5.244-4.716-9.232C.416 40.996 0 36.311 0 30c0-6.31.416-10.996 1.308-14.744.95-3.988 2.492-7.008 4.716-9.232 2.224-2.224 5.243-3.766 9.232-4.716C19.004.416 23.689 0 30 0Z" fill="url(#a)" transform="translate(75)"/>
        <path d="M105 9.6c-5.54 0-6.235.024-8.411.123-2.172.099-3.654.444-4.952.948a10.003 10.003 0 0 0-3.613 2.353 9.995 9.995 0 0 0-2.353 3.614c-.504 1.297-.85 2.78-.948 4.951-.1 2.176-.123 2.871-.123 8.411 0 5.54.024 6.235.123 8.411.098 2.172.444 3.654.948 4.952a10.003 10.003 0 0 0 2.353 3.613 10.008 10.008 0 0 0 3.613 2.353c1.298.505 2.781.85 4.952.949 2.176.099 2.87.122 8.411.122 5.54 0 6.235-.023 8.411-.122 2.172-.1 3.654-.444 4.952-.949a10.005 10.005 0 0 0 3.613-2.353 10.008 10.008 0 0 0 2.353-3.613c.504-1.298.85-2.78.948-4.952.1-2.176.123-2.87.123-8.41 0-5.541-.024-6.236-.123-8.412-.098-2.172-.444-3.654-.948-4.951a10.005 10.005 0 0 0-2.353-3.614 10.01 10.01 0 0 0-3.613-2.353c-1.298-.504-2.781-.85-4.952-.948-2.176-.1-2.87-.123-8.411-.123Zm0 3.675c5.447 0 6.092.02 8.244.119 1.989.09 3.069.423 3.788.702.952.37 1.632.812 2.346 1.526.713.714 1.156 1.393 1.525 2.346.28.719.612 1.799.703 3.788.098 2.151.118 2.796.118 8.244 0 5.447-.02 6.092-.118 8.243-.091 1.99-.423 3.07-.703 3.788-.37.953-.812 1.632-1.525 2.346-.714.714-1.394 1.156-2.346 1.526-.72.28-1.8.611-3.788.702-2.152.098-2.797.119-8.244.119-5.447 0-6.092-.02-8.243-.12-1.99-.09-3.07-.422-3.789-.701-.952-.37-1.631-.812-2.345-1.526-.714-.714-1.157-1.393-1.526-2.346-.28-.719-.612-1.799-.702-3.788-.098-2.151-.119-2.796-.119-8.243 0-5.448.02-6.093.119-8.244.09-1.99.422-3.07.702-3.788.37-.953.812-1.632 1.526-2.346.714-.714 1.393-1.156 2.345-1.526.72-.28 1.8-.611 3.789-.702 2.15-.097 2.796-.119 8.243-.119Zm0 6.25c-5.786 0-10.475 4.69-10.475 10.475 0 5.786 4.69 10.476 10.475 10.476 5.786 0 10.476-4.69 10.476-10.476 0-5.785-4.69-10.475-10.476-10.475Zm0 17.276a6.8 6.8 0 1 1 0-13.6 6.8 6.8 0 0 1 0 13.6Zm10.89-20.138a2.448 2.448 0 1 0-.002 4.895 2.448 2.448 0 0 0 .001-4.895Z" fill="#FFF"/>
        <path d="M30 0c6.31 0 10.996.416 14.744 1.308 3.988.95 7.008 2.493 9.232 4.716 2.224 2.224 3.766 5.244 4.716 9.232C59.584 19.004 60 23.689 60 30s-.416 10.996-1.308 14.744c-.95 3.988-2.492 7.008-4.716 9.232-2.224 2.224-5.244 3.766-9.232 4.716C40.996 59.584 36.31 60 30 60c-6.31 0-10.996-.416-14.744-1.308-3.989-.95-7.008-2.492-9.232-4.716-2.224-2.224-3.766-5.244-4.716-9.232C.416 40.996 0 36.311 0 30c0-6.31.416-10.996 1.308-14.744.95-3.988 2.492-7.008 4.716-9.232 2.224-2.223 5.243-3.766 9.232-4.716C19.004.416 23.689 0 30 0Z" fill="#0866FF"/>
        <path d="M22.753 30h-6.187v9.168h6.187v20.6c2.155.156 4.552.232 7.247.232 1.277 0 2.485-.018 3.635-.052v-20.78h8.115L43.433 30h-9.798v-3.242c0-4.845 1.9-6.708 6.82-6.708 1.527 0 2.757.037 3.465.112v-8.31c-1.342-.373-4.62-.746-6.522-.746-10.024 0-14.645 4.733-14.645 14.944V30Z" fill="#FFF"/>
    </g>
</svg>
