<?xml version="1.0" encoding="UTF-8"?>
<svg width="135px" height="60px" viewBox="0 0 135 60" version="1.1" xmlns="http://www.w3.org/2000/svg" xmlns:xlink="http://www.w3.org/1999/xlink">
    <title>Paquete 1</title>
    <defs>
        <linearGradient x1="100%" y1="0%" x2="0%" y2="100%" id="linearGradient-1">
            <stop stop-color="#B900B4" offset="0%"></stop>
            <stop stop-color="#F50000" offset="100%"></stop>
        </linearGradient>
    </defs>
    <g id="Symbols" stroke="none" stroke-width="1" fill="none" fill-rule="evenodd">
        <g id="Paquete-1">
            <g id="Instagram-3" transform="translate(75, 0)">
                <path d="M30,0 C36.3105,0 40.99575,0.41575 44.74425,1.308 C48.73225,2.25775 51.75225,3.8005 53.97575,6.02425 C56.2,8.248 57.74225,11.26775 58.692,15.25575 C59.58425,19.00425 60,23.68925 60,30 C60,36.31075 59.58425,40.99575 58.692,44.74425 C57.74225,48.73225 56.2,51.75225 53.97575,53.97575 C51.75225,56.2 48.73225,57.74225 44.74425,58.692 C40.99575,59.58425 36.3105,60 30,60 C23.68925,60 19.00425,59.58425 15.25575,58.692 C11.26725,57.74225 8.248,56.2 6.02425,53.97575 C3.8005,51.75225 2.25775,48.73225 1.308,44.74425 C0.41575,40.99575 0,36.31075 0,30 C0,23.68925 0.41575,19.00425 1.308,15.25575 C2.25775,11.26775 3.8005,8.248 6.02425,6.02425 C8.248,3.8005 11.26725,2.25775 15.25575,1.308 C19.00425,0.41575 23.68925,0 30,0 Z" id="Path" fill="url(#linearGradient-1)"></path>
                <path d="M30,9.6 C24.4596582,9.6 23.7647081,9.62366551 21.5889497,9.72257104 C19.4172715,9.82147657 17.934831,10.1666667 16.637308,10.6709869 C15.2955549,11.1926075 14.1583045,11.890169 13.0241551,13.0241551 C11.890169,14.1583045 11.1919547,15.2955549 10.6709869,16.637308 C10.1665035,17.9349942 9.82147657,19.4180876 9.72257104,21.5889497 C9.62366551,23.7648714 9.6,24.4598214 9.6,30 C9.6,35.5401786 9.62366551,36.2352919 9.72257104,38.4110503 C9.82147657,40.5827285 10.1666667,42.065169 10.6709869,43.362692 C11.1926075,44.7044451 11.890169,45.8416955 13.0241551,46.9758449 C14.1583045,48.1099942 15.296371,48.8073925 16.637308,49.3290131 C17.9349942,49.8334965 19.4180876,50.1785234 21.5889497,50.277429 C23.7647081,50.3763345 24.4596582,50.4 30,50.4 C35.5403418,50.4 36.2352919,50.3763345 38.4110503,50.277429 C40.5827285,50.1785234 42.065169,49.8333333 43.362692,49.3290131 C44.7044451,48.8072293 45.8416955,48.109831 46.9758449,46.9758449 C48.1099942,45.8416955 48.8073925,44.703629 49.3290131,43.362692 C49.8334965,42.065169 50.1785234,40.5819124 50.277429,38.4110503 C50.3763345,36.2352919 50.4,35.5403418 50.4,30 C50.4,24.4596582 50.3763345,23.7647081 50.277429,21.5889497 C50.1785234,19.4172715 49.8333333,17.934831 49.3290131,16.637308 C48.8072293,15.2955549 48.109831,14.1583045 46.9758449,13.0241551 C45.8416955,11.890169 44.703629,11.1926075 43.362692,10.6709869 C42.065169,10.1665035 40.5819124,9.82147657 38.4110503,9.72257104 C36.2354551,9.62366551 35.5403418,9.6 30,9.6 Z M30,13.2751728 C35.4471486,13.2751728 36.0923195,13.2955741 38.2435964,13.3938268 C40.2328053,13.4845718 41.312932,13.8165419 42.0317108,14.0961214 C42.9843702,14.4664459 43.6636521,14.9079301 44.3775346,15.6218126 C45.0912538,16.3356951 45.5337174,17.0151402 45.9032258,17.9676363 C46.1828053,18.6864151 46.5147753,19.7665419 46.6055204,21.7557508 C46.7036098,23.9070276 46.7241743,24.5520353 46.7241743,29.9993472 C46.7241743,35.446659 46.703773,36.0915035 46.6055204,38.2427803 C46.5147753,40.2319892 46.1828053,41.312116 45.9032258,42.0308948 C45.5329013,42.9835541 45.0914171,43.662836 44.3775346,44.3767185 C43.6636521,45.0904378 42.984207,45.5329013 42.0317108,45.9024098 C41.312932,46.1819892 40.2328053,46.5139593 38.2435964,46.6047043 C36.0924827,46.7027938 35.4473118,46.7233583 30,46.7233583 C24.5526882,46.7233583 23.9078437,46.702957 21.7565668,46.6047043 C19.7673579,46.5139593 18.6872312,46.1819892 17.9684524,45.9024098 C17.015793,45.531922 16.3365111,45.0904378 15.6226286,44.3767185 C14.9089094,43.662836 14.4664459,42.9833909 14.0969374,42.0308948 C13.8171947,41.312116 13.4853879,40.2319892 13.3946429,38.2427803 C13.2965534,36.0916667 13.2759889,35.4464958 13.2759889,29.9993472 C13.2759889,24.5521985 13.2963902,23.9071909 13.3946429,21.7557508 C13.4853879,19.7665419 13.8173579,18.6864151 14.0969374,17.9676363 C14.4672619,17.014977 14.9087462,16.3356951 15.6226286,15.6218126 C16.3365111,14.9080933 17.0159562,14.4656298 17.9684524,14.0961214 C18.6872312,13.8165419 19.7673579,13.4845718 21.7565668,13.3938268 C23.9076805,13.2965534 24.5528514,13.2751728 30,13.2751728 Z M30,19.5245008 C24.2143529,19.5245008 19.5245008,24.2143529 19.5245008,30 C19.5245008,35.7856471 24.2143529,40.4756624 30,40.4756624 C35.7856471,40.4756624 40.4756624,35.7856471 40.4756624,30 C40.4756624,24.2143529 35.7856471,19.5245008 30,19.5245008 Z M30,36.8004896 C26.2446909,36.8004896 23.1996736,33.7564516 23.1996736,30.0001632 C23.1996736,26.2438748 26.2446909,23.1998368 30,23.1998368 C33.7553091,23.1998368 36.8003264,26.2438748 36.8003264,30.0001632 C36.8003264,33.7564516 33.7553091,36.8004896 30,36.8004896 Z M40.8894009,16.6627688 C39.5370392,16.6627688 38.4414075,17.7584005 38.4414075,19.1107623 C38.4414075,20.463124 39.5370392,21.558919 40.8894009,21.558919 C42.2417627,21.558919 43.3375576,20.463124 43.3375576,19.1107623 C43.3375576,17.7584005 42.2419259,16.6627688 40.8894009,16.6627688 Z" id="Path" fill="#FFFFFF"></path>
            </g>
            <g id="Facebook-3">
                <path d="M30,0 C36.3105,0 40.99575,0.41575 44.74425,1.308 C48.73225,2.25775 51.75225,3.8005 53.97575,6.02425 C56.2,8.248 57.74225,11.26775 58.692,15.25575 C59.58425,19.00425 60,23.68925 60,30 C60,36.31075 59.58425,40.99575 58.692,44.74425 C57.74225,48.73225 56.2,51.75225 53.97575,53.97575 C51.75225,56.2 48.73225,57.74225 44.74425,58.692 C40.99575,59.58425 36.3105,60 30,60 C23.68925,60 19.00425,59.58425 15.25575,58.692 C11.26725,57.74225 8.248,56.2 6.02425,53.97575 C3.8005,51.75225 2.25775,48.73225 1.308,44.74425 C0.41575,40.99575 0,36.31075 0,30 C0,23.68925 0.41575,19.00425 1.308,15.25575 C2.25775,11.26775 3.8005,8.248 6.02425,6.02425 C8.248,3.8005 11.26725,2.25775 15.25575,1.308 C19.00425,0.41575 23.68925,0 30,0 Z" id="Path" fill="#0866FF"></path>
                <path d="M22.75268,30.00016 L16.56628,30.00016 L16.56628,39.16776 L22.75268,39.16776 L22.75268,59.76696 C24.90828,59.92336 27.30468,60.00016 29.99988,60.00016 C31.27708,60.00016 32.48468,59.98216 33.63468,59.94736 L33.63468,39.16776 L41.75028,39.16776 L43.43348,30.00016 L33.63468,30.00016 L33.63468,26.75776 C33.63468,21.91296 35.53508,20.04976 40.45428,20.04976 C41.98228,20.04976 43.21188,20.08696 43.91988,20.16176 L43.91988,11.85136 C42.57828,11.47856 39.29908,11.10576 37.39828,11.10576 C27.37388,11.10576 22.75268,15.83856 22.75268,26.04976 L22.75268,30.00016 Z" id="Path" fill="#FFFFFF"></path>
            </g>
        </g>
    </g>
</svg>