<svg width="120" height="120" xmlns="http://www.w3.org/2000/svg">
    <g fill="none" fill-rule="evenodd">
        <path fill="#F1EFEB" d="M0 0h120v120H0z"/>
        <path d="M40.263 97v-8.455h1.054V97h-1.054Zm3.082 0v-6.316h1.02v.96h.093c.14-.34.356-.603.647-.79.291-.188.644-.282 1.058-.282.285 0 .541.047.768.14.226.095.422.225.586.39.164.167.295.359.392.578h.094c.113-.223.266-.417.457-.583.191-.166.413-.295.665-.387.252-.092.522-.138.812-.138.43 0 .793.08 1.092.24.3.16.527.394.683.7.156.307.234.681.234 1.123V97h-1.02v-4.13c0-.313-.047-.572-.143-.777a.976.976 0 0 0-.436-.463c-.196-.104-.442-.155-.739-.155a1.398 1.398 0 0 0-1.277.73c-.121.22-.182.465-.182.734V97h-1.02v-4.29c0-.25-.053-.467-.16-.652a1.094 1.094 0 0 0-.457-.431 1.498 1.498 0 0 0-.695-.152c-.273 0-.52.072-.74.216-.222.145-.395.34-.522.583-.127.245-.19.515-.19.812V97h-1.02Zm12.176.111a2.46 2.46 0 0 1-1.076-.228 1.832 1.832 0 0 1-.756-.65 1.767 1.767 0 0 1-.278-.997v-.011c0-.375.09-.697.27-.964.18-.268.441-.478.785-.63.344-.152.76-.242 1.248-.27l2.32-.14v.814l-2.197.14c-.48.028-.831.128-1.052.3-.22.171-.33.414-.33.726v.012c0 .32.12.57.362.747.243.178.547.267.914.267.348 0 .657-.07.926-.208.27-.14.482-.328.636-.566.154-.238.231-.508.231-.808v-1.97c0-.39-.118-.688-.354-.893-.236-.205-.59-.307-1.064-.307-.378 0-.689.067-.931.202a1.003 1.003 0 0 0-.487.571l-.005.018h-1.02l.006-.036c.055-.332.192-.622.413-.87.22-.248.507-.441.858-.58a3.254 3.254 0 0 1 1.202-.208c.515 0 .952.084 1.31.252.357.168.628.41.814.724.185.314.278.69.278 1.128V97h-1.02v-.932h-.093a2.17 2.17 0 0 1-.484.569 2 2 0 0 1-.641.354c-.239.08-.5.12-.785.12Zm7.488 2.116c-.508 0-.951-.072-1.33-.214a2.185 2.185 0 0 1-.906-.604 1.786 1.786 0 0 1-.419-.905l.012-.006h1.055l.006.006c.054.238.219.434.492.589.273.154.637.231 1.09.231.566 0 1.009-.128 1.327-.384.318-.255.477-.616.477-1.08v-1.278h-.093a2.104 2.104 0 0 1-1.172.964c-.25.084-.52.126-.809.126-.543 0-1.012-.13-1.409-.39a2.55 2.55 0 0 1-.917-1.075c-.215-.457-.322-.98-.322-1.57v-.012c0-.59.108-1.114.325-1.573a2.6 2.6 0 0 1 .923-1.084c.398-.264.873-.396 1.424-.396.297 0 .57.047.82.14.25.095.472.227.665.4.193.171.355.376.483.615h.07v-1.043h1.02v6.228c0 .469-.114.877-.342 1.225a2.221 2.221 0 0 1-.976.805c-.422.19-.92.285-1.494.285Zm-.047-3.457c.39 0 .725-.091 1.005-.273.28-.182.494-.433.644-.753.15-.32.226-.69.226-1.107v-.012c0-.418-.075-.79-.226-1.113a1.789 1.789 0 0 0-.644-.762c-.28-.184-.614-.275-1.005-.275-.39 0-.722.091-.993.275a1.74 1.74 0 0 0-.621.762 2.741 2.741 0 0 0-.214 1.113v.012c0 .418.071.787.214 1.107.142.32.35.571.62.753.272.182.603.273.994.273Zm7.336 1.341c-.602 0-1.118-.132-1.55-.398a2.61 2.61 0 0 1-.996-1.128c-.232-.486-.349-1.06-.349-1.72v-.006c0-.652.117-1.224.349-1.716.232-.493.561-.877.987-1.155.426-.277.924-.416 1.494-.416.575 0 1.068.133 1.48.399.412.265.728.635.95 1.11.22.475.33 1.026.33 1.655v.399h-5.062v-.815h4.54l-.503.744v-.404c0-.496-.074-.904-.223-1.224a1.59 1.59 0 0 0-.615-.718 1.71 1.71 0 0 0-.902-.238c-.34 0-.644.083-.912.25-.267.166-.48.41-.635.735-.157.324-.235.722-.235 1.195v.404c0 .45.076.833.229 1.152.152.318.369.562.65.732.281.17.613.255.996.255.285 0 .533-.039.744-.117.211-.078.385-.178.522-.299s.232-.244.287-.369l.023-.053h1.02l-.012.047a1.94 1.94 0 0 1-.29.624 2.32 2.32 0 0 1-.536.545 2.65 2.65 0 0 1-.776.387 3.286 3.286 0 0 1-1.005.143ZM74.575 97v-6.316h1.02v.949h.093c.16-.336.391-.597.692-.782.3-.186.683-.279 1.148-.279.711 0 1.257.202 1.638.607.38.404.571.981.571 1.731V97h-1.02v-3.844c0-.57-.12-.993-.36-1.268-.24-.276-.612-.413-1.116-.413-.336 0-.627.072-.873.216-.246.145-.436.35-.571.616-.135.265-.202.584-.202.955V97h-1.02Z" fill="#1D1D1F" fill-rule="nonzero"/>
        <path d="M43.53 68.08H76.49c.903 0 1.619-.26 2.146-.782.528-.522.792-1.24.792-2.157v-2.939l-8.778-8.13a4.46 4.46 0 0 0-1.46-.935 4.352 4.352 0 0 0-1.574-.305c-1.12 0-2.144.407-3.073 1.221l-9.122 8.092-3.645-3.282c-.84-.776-1.756-1.165-2.748-1.165-.42 0-.853.096-1.298.287-.445.19-.878.47-1.298.84l-5.858 5.114v1.164c0 .929.264 1.657.792 2.185.527.528 1.25.792 2.166.792Zm8.283-14.027c.852 0 1.635-.213 2.347-.639a4.88 4.88 0 0 0 1.708-1.708c.427-.712.64-1.501.64-2.366 0-.865-.213-1.654-.64-2.367a4.88 4.88 0 0 0-1.708-1.708 4.488 4.488 0 0 0-2.347-.639c-.865 0-1.654.213-2.366.64a4.88 4.88 0 0 0-1.708 1.707 4.522 4.522 0 0 0-.64 2.367c0 .865.213 1.654.64 2.366a4.88 4.88 0 0 0 1.708 1.708c.712.426 1.5.64 2.366.64Zm-8.32 17.08c-1.998 0-3.496-.492-4.495-1.478-.999-.986-1.498-2.46-1.498-4.418V41.916c0-1.972.5-3.451 1.498-4.437.999-.986 2.497-1.479 4.494-1.479h33.016c2.01 0 3.511.496 4.503 1.489.993.992 1.489 2.468 1.489 4.427v23.32c0 1.96-.496 3.433-1.489 4.419-.992.986-2.493 1.479-4.503 1.479H43.492Z" fill="#E5CC00"/>
    </g>
</svg>
