<svg width="60" height="60" xmlns="http://www.w3.org/2000/svg">
    <path d="M12.934 45.04h34.152c.936 0 1.678-.271 2.225-.812.547-.54.82-1.285.82-2.234v-3.046l-9.096-8.424a4.621 4.621 0 0 0-1.513-.969 4.51 4.51 0 0 0-1.632-.316c-1.16 0-2.221.422-3.183 1.265l-9.453 8.385-3.777-3.401c-.87-.805-1.82-1.207-2.848-1.207-.435 0-.883.1-1.345.297-.461.198-.91.488-1.344.87l-6.071 5.3v1.206c0 .963.273 1.717.82 2.265.547.547 1.296.82 2.245.82Zm8.582-14.536a4.65 4.65 0 0 0 2.433-.662 5.057 5.057 0 0 0 1.77-1.77 4.686 4.686 0 0 0 .662-2.452c0-.897-.22-1.714-.662-2.452a5.057 5.057 0 0 0-1.77-1.77 4.65 4.65 0 0 0-2.433-.663c-.896 0-1.714.221-2.452.663a5.057 5.057 0 0 0-1.77 1.77 4.686 4.686 0 0 0-.662 2.452c0 .896.22 1.714.662 2.452a5.057 5.057 0 0 0 1.77 1.77 4.686 4.686 0 0 0 2.452.662Zm-8.622 17.7c-2.07 0-3.622-.512-4.657-1.533-1.035-1.022-1.552-2.548-1.552-4.578V17.927c0-2.043.517-3.576 1.552-4.598 1.035-1.021 2.587-1.532 4.657-1.532h34.212c2.083 0 3.638.514 4.667 1.542 1.028 1.029 1.542 2.558 1.542 4.588v24.166c0 2.03-.514 3.556-1.542 4.578-1.029 1.021-2.584 1.532-4.667 1.532H12.894Z" fill="#E5CC00" fill-rule="evenodd"/>
</svg>
