<svg width="120" height="120" xmlns="http://www.w3.org/2000/svg">
    <g fill="none" fill-rule="evenodd">
        <path fill="#F1EFEB" d="M0 0h120v120H0z"/>
        <path d="M48.712 98.918h-.175v-.902h.151c.344 0 .587-.07.73-.208.143-.14.214-.382.214-.73v-6.644h1.02v6.627c0 .648-.158 1.12-.472 1.415-.315.295-.804.442-1.468.442Zm1.43-9.703a.676.676 0 0 1-.496-.208.676.676 0 0 1-.208-.495c0-.196.07-.362.208-.498a.681.681 0 0 1 .496-.205c.195 0 .36.068.498.205a.678.678 0 0 1 .205.498.681.681 0 0 1-.205.495.673.673 0 0 1-.498.208Zm2.197 9.644v-8.425h1.02v1.007h.093a2.121 2.121 0 0 1 1.154-.984c.25-.09.522-.135.815-.135.535 0 1 .136 1.397.407.397.272.704.652.923 1.14.219.488.328 1.06.328 1.717v.012c0 .66-.109 1.234-.328 1.722-.219.489-.526.868-.923 1.137-.396.27-.862.404-1.397.404-.29 0-.562-.046-.817-.137a2.23 2.23 0 0 1-.68-.384 1.876 1.876 0 0 1-.472-.586h-.094v3.105h-1.02Zm2.848-2.9c.386 0 .716-.095.99-.284.273-.19.483-.461.63-.815.146-.353.22-.774.22-1.262v-.012c0-.492-.074-.914-.22-1.266a1.797 1.797 0 0 0-.63-.811c-.274-.19-.604-.284-.99-.284a1.7 1.7 0 0 0-.99.287c-.278.191-.49.463-.64.814-.148.352-.222.772-.222 1.26v.012c0 .484.074.903.223 1.256.148.354.36.626.638.818a1.7 1.7 0 0 0 .99.287Zm6.82.902c-.602 0-1.118-.132-1.55-.398a2.61 2.61 0 0 1-.996-1.128c-.232-.486-.349-1.06-.349-1.72v-.006c0-.652.117-1.224.349-1.716.232-.493.561-.877.987-1.155.426-.277.924-.416 1.494-.416.575 0 1.068.133 1.48.399.412.265.728.635.95 1.11.22.475.33 1.026.33 1.655v.399H59.64v-.815h4.54l-.503.744v-.404c0-.496-.074-.904-.223-1.224a1.59 1.59 0 0 0-.615-.718 1.71 1.71 0 0 0-.902-.238c-.34 0-.644.083-.912.25-.267.166-.48.41-.635.735-.157.324-.235.722-.235 1.195v.404c0 .45.076.833.229 1.152.152.318.369.562.65.732.281.17.613.255.996.255.285 0 .533-.039.744-.117.211-.078.385-.178.522-.299s.232-.244.287-.369l.023-.053h1.02l-.012.047a1.94 1.94 0 0 1-.29.624 2.32 2.32 0 0 1-.536.545 2.65 2.65 0 0 1-.776.387 3.286 3.286 0 0 1-1.005.143Zm6.644 2.116c-.507 0-.95-.072-1.33-.214a2.185 2.185 0 0 1-.905-.604 1.786 1.786 0 0 1-.419-.905l.012-.006h1.054l.006.006c.055.238.22.434.493.589.273.154.636.231 1.09.231.566 0 1.008-.128 1.327-.384.318-.255.477-.616.477-1.08v-1.278h-.094a2.104 2.104 0 0 1-1.172.964c-.25.084-.52.126-.808.126-.543 0-1.013-.13-1.41-.39a2.55 2.55 0 0 1-.916-1.075c-.215-.457-.323-.98-.323-1.57v-.012c0-.59.109-1.114.326-1.573a2.6 2.6 0 0 1 .922-1.084c.399-.264.873-.396 1.424-.396.297 0 .57.047.82.14.25.095.472.227.666.4.193.171.354.376.483.615h.07v-1.043h1.02v6.228c0 .469-.114.877-.343 1.225a2.221 2.221 0 0 1-.975.805c-.422.19-.92.285-1.495.285Zm-.047-3.457c.391 0 .726-.091 1.005-.273.28-.182.495-.433.645-.753.15-.32.225-.69.225-1.107v-.012c0-.418-.075-.79-.225-1.113a1.789 1.789 0 0 0-.645-.762c-.279-.184-.614-.275-1.005-.275-.39 0-.721.091-.993.275a1.74 1.74 0 0 0-.62.762 2.741 2.741 0 0 0-.215 1.113v.012c0 .418.072.787.214 1.107.143.32.35.571.621.753.272.182.603.273.993.273Z" fill="#1D1D1F" fill-rule="nonzero"/>
        <path d="M43.53 68.08H76.49c.903 0 1.619-.26 2.146-.782.528-.522.792-1.24.792-2.157v-2.939l-8.778-8.13a4.46 4.46 0 0 0-1.46-.935 4.352 4.352 0 0 0-1.574-.305c-1.12 0-2.144.407-3.073 1.221l-9.122 8.092-3.645-3.282c-.84-.776-1.756-1.165-2.748-1.165-.42 0-.853.096-1.298.287-.445.19-.878.47-1.298.84l-5.858 5.114v1.164c0 .929.264 1.657.792 2.185.527.528 1.25.792 2.166.792Zm8.283-14.027c.852 0 1.635-.213 2.347-.639a4.88 4.88 0 0 0 1.708-1.708c.427-.712.64-1.501.64-2.366 0-.865-.213-1.654-.64-2.367a4.88 4.88 0 0 0-1.708-1.708 4.488 4.488 0 0 0-2.347-.639c-.865 0-1.654.213-2.366.64a4.88 4.88 0 0 0-1.708 1.707 4.522 4.522 0 0 0-.64 2.367c0 .865.213 1.654.64 2.366a4.88 4.88 0 0 0 1.708 1.708c.712.426 1.5.64 2.366.64Zm-8.32 17.08c-1.998 0-3.496-.492-4.495-1.478-.999-.986-1.498-2.46-1.498-4.418V41.916c0-1.972.5-3.451 1.498-4.437.999-.986 2.497-1.479 4.494-1.479h33.016c2.01 0 3.511.496 4.503 1.489.993.992 1.489 2.468 1.489 4.427v23.32c0 1.96-.496 3.433-1.489 4.419-.992.986-2.493 1.479-4.503 1.479H43.492Z" fill="#E5CC00"/>
    </g>
</svg>
