<svg width="80" height="80" xmlns="http://www.w3.org/2000/svg">
    <g fill="none" fill-rule="evenodd">
        <path fill="#F1EFEB" d="M0 0h80v80H0z"/>
        <path d="M22.92 55.05H57.1c.936 0 1.678-.27 2.226-.81.547-.541.821-1.287.821-2.237v-3.048l-9.104-8.43a4.625 4.625 0 0 0-1.514-.97 4.513 4.513 0 0 0-1.632-.317c-1.162 0-2.224.422-3.187 1.267l-9.46 8.391-3.78-3.404c-.87-.805-1.82-1.207-2.85-1.207-.435 0-.884.099-1.345.297a5.08 5.08 0 0 0-1.346.87l-6.076 5.304v1.208c0 .963.274 1.718.821 2.266.548.547 1.297.82 2.247.82Zm8.59-14.545c.884 0 1.695-.221 2.434-.663a5.06 5.06 0 0 0 1.771-1.772 4.69 4.69 0 0 0 .663-2.454 4.69 4.69 0 0 0-.663-2.454 5.06 5.06 0 0 0-1.771-1.771 4.654 4.654 0 0 0-2.434-.663 4.69 4.69 0 0 0-2.454.663 5.06 5.06 0 0 0-1.772 1.771 4.69 4.69 0 0 0-.663 2.454c0 .898.221 1.716.663 2.454a5.06 5.06 0 0 0 1.772 1.772 4.69 4.69 0 0 0 2.454.663ZM22.88 58.217c-2.071 0-3.625-.51-4.66-1.533-1.036-1.023-1.554-2.55-1.554-4.582V27.918c0-2.045.518-3.58 1.553-4.602 1.036-1.022 2.59-1.533 4.661-1.533h34.238c2.085 0 3.642.514 4.67 1.543 1.03 1.03 1.544 2.56 1.544 4.592v24.184c0 2.032-.514 3.56-1.543 4.582-1.03 1.022-2.586 1.533-4.671 1.533H22.881Z" fill="#E5CC00"/>
    </g>
</svg>
