<?xml version="1.0" encoding="UTF-8"?>
<svg width="316px" height="70px" viewBox="0 0 316 70" version="1.1" xmlns="http://www.w3.org/2000/svg" xmlns:xlink="http://www.w3.org/1999/xlink">
    <title>Plataformas digitales</title>
    <defs>
        <linearGradient x1="100%" y1="0%" x2="0%" y2="100%" id="linearGradient-1">
            <stop stop-color="#B900B4" offset="0%"></stop>
            <stop stop-color="#F50000" offset="100%"></stop>
        </linearGradient>
    </defs>
    <g id="Symbols" stroke="none" stroke-width="1" fill="none" fill-rule="evenodd">
        <g id="11-Campaña-publicitaria/2-Campaña" transform="translate(-132, -325)">
            <g id="Plataformas-digitales" transform="translate(132, 325)">
                <path d="M281,70 C300.329966,70 316,54.3299662 316,35 C316,15.6700338 300.329966,0 281,0 C261.670034,0 246,15.6700338 246,35 C246,54.3299662 261.670034,70 281,70 Z M199,70 C218.329966,70 234,54.3299662 234,35 C234,15.6700338 218.329966,0 199,0 C179.670034,0 164,15.6700338 164,35 C164,54.3299662 179.670034,70 199,70 Z M117,70 C136.329966,70 152,54.3299662 152,35 C152,15.6700338 136.329966,0 117,0 C97.6700338,0 82,15.6700338 82,35 C82,54.3299662 97.6700338,70 117,70 Z M35,70 C54.3299662,70 70,54.3299662 70,35 C70,15.6700338 54.3299662,0 35,0 C15.6700338,0 0,15.6700338 0,35 C0,54.3299662 15.6700338,70 35,70 Z" id="Círculos" fill="#FFFFFF"></path>
                <path d="M281,70 C300.329966,70 316,54.3299662 316,35 C316,15.6700338 300.329966,0 281,0 C261.670034,0 246,15.6700338 246,35 C246,54.3299662 261.670034,70 281,70 Z M301.122213,24.5284046 C300.639239,22.7458931 299.215903,21.3422547 297.408816,20.8658498 C294.133449,20 280.999827,20 280.999827,20 C280.999827,20 267.866206,20 264.590838,20.8658498 C262.783751,21.3422547 261.360415,22.7458931 260.877442,24.5284046 C260,27.7592281 260,34.5001705 260,34.5001705 C260,34.5001705 260,41.2407719 260.877442,44.4715954 C261.360415,46.2541069 262.783751,47.6580863 264.590838,48.1344912 C267.866206,49 280.999827,49 280.999827,49 C280.999827,49 294.133449,49 297.408816,48.1344912 C299.215903,47.6580863 300.639239,46.2541069 301.122213,44.4715954 C302,41.2407719 302,34.5001705 302,34.5001705 C302,34.5001705 302,27.7592281 301.122213,24.5284046 M277,42 L288,35.5001784 L277,29 L277,42 Z" id="Youtube" fill="#C7C7CB"></path>
                <path d="M199,70 C218.329966,70 234,54.3299662 234,35 C234,15.6700338 218.329966,0 199,0 C179.670034,0 164,15.6700338 164,35 C164,54.3299662 179.670034,70 199,70 Z M210.362538,23.3523201 C208.114774,21.8770762 206.491472,19.5172886 205.985313,16.7657099 C205.875995,16.1704889 205.816094,15.5586921 205.816094,14.9333333 L198.640021,14.9333333 L198.628041,43.8716227 C198.506743,47.1129401 195.857646,49.7138299 192.608047,49.7138299 C191.598725,49.7138299 190.647805,49.4591657 189.810697,49.0161405 C187.890887,47.9989906 186.576073,45.9737323 186.576073,43.6440825 C186.576073,40.2972828 189.282075,37.5743351 192.608047,37.5743351 C193.229514,37.5743351 193.824026,37.6768035 194.388588,37.8546163 L194.388588,30.4829171 C193.806056,30.403052 193.213042,30.3533247 192.608047,30.3533247 C185.325651,30.3533247 179.4,36.316083 179.4,43.6440825 C179.4,48.1406382 181.632789,52.120331 185.038129,54.5253253 C187.184062,56.0412553 189.792726,56.9333333 192.608047,56.9333333 C199.890443,56.9333333 205.816094,50.9720819 205.816094,43.6425756 L205.816094,28.9684941 C208.629917,31.0012868 212.078685,32.1992633 215.8,32.1992633 L215.8,24.978253 C213.79633,24.978253 211.928934,24.3785113 210.364035,23.3508132 L210.362538,23.3523201 Z" id="TikTok" fill="#C7C7CB"></path>
                <path d="M117,70 C136.329966,70 152,54.3299662 152,35 C152,15.6700338 136.329966,0 117,0 C97.6700338,0 82,15.6700338 82,35 C82,54.3299662 97.6700338,70 117,70 Z M117,13.5 C111.160914,13.5 110.428491,13.5249416 108.135413,13.6291803 C105.846634,13.7334189 104.284258,14.0972222 102.916771,14.6287362 C101.502668,15.1784834 100.304095,15.9136585 99.108791,17.108791 C97.9136585,18.3040955 97.1777954,19.5026682 96.6287362,20.9167707 C96.0970502,22.2844302 95.7334189,23.8474942 95.6291803,26.1354127 C95.5249416,28.4286634 95.5,29.1610863 95.5,35 C95.5,40.8389137 95.5249416,41.5715086 95.6291803,43.8645873 C95.7334189,46.1533658 96.0972222,47.7157418 96.6287362,49.0832293 C97.1784834,50.4973318 97.9136585,51.6959045 99.108791,52.891209 C100.304095,54.0865135 101.503528,54.8215166 102.916771,55.3712638 C104.28443,55.9029498 105.847494,56.2665811 108.135413,56.3708197 C110.428491,56.4750584 111.160914,56.5 117,56.5 C122.839086,56.5 123.571509,56.4750584 125.864587,56.3708197 C128.153366,56.2665811 129.715742,55.9027778 131.083229,55.3712638 C132.497332,54.8213446 133.695905,54.0863415 134.891209,52.891209 C136.086514,51.6959045 136.821517,50.4964718 137.371264,49.0832293 C137.90295,47.7157418 138.266581,46.1525058 138.37082,43.8645873 C138.475058,41.5715086 138.5,40.8390857 138.5,35 C138.5,29.1609143 138.475058,28.4284914 138.37082,26.1354127 C138.266581,23.8466342 137.902778,22.2842582 137.371264,20.9167707 C136.821345,19.5026682 136.086342,18.3040955 134.891209,17.108791 C133.695905,15.9136585 132.496472,15.1784834 131.083229,14.6287362 C129.715742,14.0970502 128.152506,13.7334189 125.864587,13.6291803 C123.571681,13.5249416 122.839086,13.5 117,13.5 Z M117,17.3733439 C122.740867,17.3733439 123.420827,17.3948453 125.688104,17.4983959 C127.784574,17.594034 128.922943,17.9439044 129.68048,18.2385593 C130.684508,18.6288522 131.400418,19.094142 132.152794,19.8465182 C132.904998,20.5988943 133.37132,21.3149762 133.760753,22.3188324 C134.055408,23.0763689 134.405278,24.2147377 134.500916,26.3112079 C134.604295,28.578485 134.625968,29.2582725 134.625968,34.999312 C134.625968,40.7403514 134.604467,41.4199669 134.500916,43.687244 C134.405278,45.7837142 134.055408,46.922083 133.760753,47.6796195 C133.37046,48.6836478 132.90517,49.3995576 132.152794,50.1519337 C131.400418,50.9041379 130.684336,51.3704597 129.68048,51.7598926 C128.922943,52.0545475 127.784574,52.4044179 125.688104,52.500056 C123.420999,52.6034346 122.741039,52.625108 117,52.625108 C111.258961,52.625108 110.579345,52.6036066 108.312068,52.500056 C106.215598,52.4044179 105.077229,52.0545475 104.319692,51.7598926 C103.315664,51.3694276 102.599754,50.9041379 101.847378,50.1519337 C101.095174,49.3995576 100.628852,48.6834757 100.239419,47.6796195 C99.9445925,46.922083 99.5948941,45.7837142 99.499256,43.687244 C99.3958773,41.4201389 99.3742039,40.7401794 99.3742039,34.999312 C99.3742039,29.2584445 99.3957053,28.578657 99.499256,26.3112079 C99.5948941,24.2147377 99.9447645,23.0763689 100.239419,22.3188324 C100.629712,21.3148041 101.095002,20.5988943 101.847378,19.8465182 C102.599754,19.094314 103.315836,18.6279922 104.319692,18.2385593 C105.077229,17.9439044 106.215598,17.594034 108.312068,17.4983959 C110.579173,17.3958773 111.259133,17.3733439 117,17.3733439 Z M117,23.9596454 C110.902382,23.9596454 105.959645,28.9023818 105.959645,35 C105.959645,41.0976182 110.902382,46.0405266 117,46.0405266 C123.097618,46.0405266 128.040527,41.0976182 128.040527,35 C128.040527,28.9023818 123.097618,23.9596454 117,23.9596454 Z M117,42.1671827 C113.042199,42.1671827 109.832989,38.9590054 109.832989,35.000172 C109.832989,31.0413386 113.042199,27.8331613 117,27.8331613 C120.957801,27.8331613 124.167011,31.0413386 124.167011,35.000172 C124.167011,38.9590054 120.957801,42.1671827 117,42.1671827 Z M128.476575,20.9436044 C127.051291,20.9436044 125.896581,22.0983143 125.896581,23.5235975 C125.896581,24.9488807 127.051291,26.1037626 128.476575,26.1037626 C129.901858,26.1037626 131.05674,24.9488807 131.05674,23.5235975 C131.05674,22.0983143 129.90203,20.9436044 128.476575,20.9436044 Z" id="Instagram" fill="url(#linearGradient-1)"></path>
                <path d="M35,0 C15.67006,0 0,15.7276547 0,35.1286411 C0,51.6032712 11.3001,65.4266725 26.54484,69.2228139 L26.54484,45.8633917 L19.32756,45.8633917 L19.32756,35.1286411 L26.54484,35.1286411 L26.54484,30.5030421 C26.54484,18.5463768 31.93596,13.0044824 43.63156,13.0044824 C45.84888,13.0044824 49.67494,13.4407801 51.24014,13.8772184 L51.24014,23.608414 C50.414,23.5211545 48.97928,23.4774544 47.19666,23.4774544 C41.45764,23.4774544 39.24018,25.6593646 39.24018,31.3322186 L39.24018,35.1286411 L50.67244,35.1286411 L48.70852,45.8633917 L39.24018,45.8633917 L39.24018,70 C56.57022,67.8991667 70,53.0889317 70,35.1286411 C70,15.7276547 54.32994,0 35,0 Z" id="Facebook" fill="#0866FF"></path>
            </g>
        </g>
    </g>
</svg>