<svg width="60" height="60" xmlns="http://www.w3.org/2000/svg">
    <path d="M12.894 48.203c-2.07 0-3.622-.51-4.657-1.532-1.035-1.022-1.552-2.548-1.552-4.578V17.927c0-2.043.517-3.576 1.552-4.598 1.035-1.021 2.587-1.532 4.657-1.532h34.212c2.083 0 3.638.514 4.667 1.542 1.028 1.029 1.542 2.558 1.542 4.588v24.166c0 2.03-.514 3.556-1.542 4.578-1.029 1.021-2.584 1.532-4.667 1.532H12.894ZM26.243 37.98l11.628-6.842c.276-.171.461-.399.553-.682a1.34 1.34 0 0 0 0-.85 1.16 1.16 0 0 0-.553-.663L26.243 22.06a1.506 1.506 0 0 0-.91-.217 1.38 1.38 0 0 0-.8.316c-.218.185-.327.442-.327.771v14.18c0 .329.105.593.316.79.211.198.472.31.781.336.31.027.623-.059.94-.257Z" fill="#8F8F94" fill-rule="evenodd"/>
</svg>
