<svg width="80" height="80" xmlns="http://www.w3.org/2000/svg">
    <path d="M16.572 37.424c-1.777 0-3.12-.448-4.029-1.344-.909-.896-1.363-2.282-1.363-4.157V16.897c0-1.875.454-3.257 1.363-4.146.91-.89 2.252-1.334 4.029-1.334h15.212c1.777 0 3.122.445 4.034 1.334.912.889 1.369 2.27 1.369 4.146v15.026c0 1.875-.457 3.26-1.369 4.157-.912.896-2.257 1.344-4.034 1.344H16.572Zm.073-3.495h15.054c.677 0 1.178-.165 1.503-.494.326-.33.489-.844.489-1.541V16.926c0-.697-.163-1.208-.489-1.53-.325-.322-.826-.483-1.503-.483H16.645c-.683 0-1.184.16-1.503.483-.318.322-.477.833-.477 1.53v14.968c0 .697.159 1.211.477 1.54.319.33.82.495 1.503.495Zm4.933-6.33c-.396 0-.594-.234-.594-.7v-5.01c0-.445.198-.667.594-.667h5.168c.403 0 .605.222.605.668v5.008c0 .467-.202.7-.605.7h-5.168Zm26.46 9.825c-1.792 0-3.142-.448-4.051-1.344-.91-.896-1.364-2.282-1.364-4.157V16.897c0-1.875.455-3.257 1.364-4.146.909-.89 2.259-1.334 4.05-1.334h15.19c1.778 0 3.122.445 4.034 1.334.913.889 1.369 2.27 1.369 4.146v15.026c0 1.875-.456 3.26-1.369 4.157-.912.896-2.256 1.344-4.033 1.344h-15.19Zm.073-3.495h15.053c.692 0 1.193-.165 1.504-.494.311-.33.467-.844.467-1.541V16.926c0-.697-.156-1.208-.467-1.53-.311-.322-.812-.483-1.504-.483H48.111c-.698 0-1.205.16-1.52.483-.315.322-.473.833-.473 1.53v14.968c0 .697.158 1.211.473 1.54.315.33.822.495 1.52.495Zm5.041-6.33c-.381 0-.572-.234-.572-.7v-5.01c0-.445.19-.667.572-.667h5.158c.424 0 .636.222.636.668v5.008c0 .467-.212.7-.636.7h-5.158Zm-36.58 41.269c-1.777 0-3.12-.445-4.029-1.334-.909-.889-1.363-2.27-1.363-4.145v-15.05c0-1.86.454-3.237 1.363-4.133.91-.897 2.252-1.345 4.029-1.345h15.212c1.777 0 3.122.448 4.034 1.345.912.896 1.369 2.274 1.369 4.134v15.049c0 1.874-.457 3.256-1.369 4.145-.912.89-2.257 1.334-4.034 1.334H16.572Zm.073-3.496h15.054c.677 0 1.178-.16 1.503-.483.326-.322.489-.833.489-1.53V48.392c0-.712-.163-1.23-.489-1.552-.325-.323-.826-.484-1.503-.484H16.645c-.683 0-1.184.161-1.503.484-.318.322-.477.84-.477 1.552v14.967c0 .697.159 1.208.477 1.53.319.322.82.483 1.503.483Zm4.933-6.308c-.396 0-.594-.241-.594-.722v-4.987c0-.445.198-.668.594-.668h5.168c.403 0 .605.223.605.668v4.987c0 .481-.202.722-.605.722h-5.168Zm23.033-8.443c-.396 0-.594-.233-.594-.7v-4.998c0-.446.198-.668.594-.668h5.158c.41 0 .614.222.614.668v4.998c0 .467-.204.7-.614.7H44.61Zm16.853 0c-.396 0-.594-.233-.594-.7v-4.998c0-.446.198-.668.594-.668h5.158c.41 0 .614.222.614.668v4.998c0 .467-.204.7-.614.7h-5.158Zm-8.347 8.443c-.396 0-.594-.241-.594-.722v-4.987c0-.445.198-.668.594-.668h5.168c.403 0 .604.223.604.668v4.987c0 .481-.201.722-.604.722h-5.168Zm-8.506 8.41c-.396 0-.594-.233-.594-.7v-4.998c0-.446.198-.668.594-.668h5.158c.41 0 .614.222.614.668v4.998c0 .467-.204.7-.614.7H44.61Zm16.853 0c-.396 0-.594-.233-.594-.7v-4.998c0-.446.198-.668.594-.668h5.158c.41 0 .614.222.614.668v4.998c0 .467-.204.7-.614.7h-5.158Z" fill="#1D1D1F" fill-rule="nonzero"/>
</svg>
