<?xml version="1.0" encoding="UTF-8"?>
<svg width="158px" height="35px" viewBox="0 0 158 35" version="1.1" xmlns="http://www.w3.org/2000/svg" xmlns:xlink="http://www.w3.org/1999/xlink">
    <title>Recuadro</title>
    <g id="Página-8" stroke="none" stroke-width="1" fill="none" fill-rule="evenodd">
        <g id="Servicios-WMedia-4" transform="translate(-214, -458)" fill="#FA243C">
            <g id="Grupo" transform="translate(214.0004, 458.5)">
                <path d="M134.089626,0 C136.296626,0 153.346626,0.178 155.847626,0.85 C156.990626,1.155 157.291626,2.039 157.419626,2.416 C158.516626,5.629 158.019626,31.217 156.252626,32.594 C154.589914,33.8934848 141.370405,33.9919307 135.401018,33.9993887 L133.042182,33.9993887 C132.917917,33.9993887 132.784675,33.9993887 132.642657,33.9989705 L131.686832,33.99801 C124.633928,33.9906147 104.180131,33.9636801 83.1578249,33.9353823 L78.4236262,33.929 C55.8105712,33.89847 33.65274,33.86794 27.8917631,33.85999 L27.1959254,33.8590295 C27.0982231,33.8588946 27.0097897,33.8587725 26.9308258,33.8586634 L26.4812402,33.8580423 C26.4608977,33.8580142 26.4506262,33.858 26.4506262,33.858 L25.7573614,33.8579179 C25.639607,33.8579645 25.5207793,33.8580377 25.400926,33.8581321 L24.6698806,33.8589112 C24.0510561,33.8597018 23.4089769,33.8607572 22.7496066,33.8614108 L21.9504443,33.8619594 C20.4714966,33.8624552 18.9204059,33.8597153 17.3606735,33.8466418 L16.509435,33.8384433 C16.3675463,33.8368919 16.2256816,33.8352444 16.0838886,33.8334955 L15.2343728,33.8217426 C8.73386798,33.7216538 2.58700457,33.3844324 1.4376262,32.291 C-0.480373805,30.467 -0.480373805,2.854 1.4446262,1.703 C3.74148036,0.3295 12.3406253,0.124090712 16.9181201,0.11457921 L17.55809,0.114472873 C18.0654769,0.115361545 18.5055637,0.118458333 18.8596262,0.122 L19.6561697,0.1211155 C24.4718039,0.1157841 50.3571695,0.08721902 76.3098832,0.059170244 L79.6936756,0.055516588 C103.358729,0.02998882 126.318683,0.0057523 132.587423,0.000884500001 L133.910499,0 C133.980605,0 134.040386,0 134.089626,0 Z" id="Recuadro"></path>
            </g>
        </g>
    </g>
</svg>