<svg width="80" height="80" xmlns="http://www.w3.org/2000/svg">
    <path d="M18.94 48.765c-2.361 0-4.142-.593-5.343-1.779-1.201-1.185-1.801-2.946-1.801-5.282v-29.27c0-2.33.602-4.096 1.806-5.3 1.204-1.204 2.984-1.806 5.339-1.806h41.8c2.368 0 4.153.599 5.357 1.797 1.204 1.197 1.806 2.967 1.806 5.31v29.27c0 2.33-.602 4.088-1.806 5.277-1.204 1.188-2.99 1.783-5.356 1.783H18.94Zm.064-3.21h41.701c1.291 0 2.282-.346 2.973-1.04.69-.694 1.036-1.693 1.036-2.996V12.593c0-1.316-.346-2.326-1.036-3.029-.69-.703-1.682-1.055-2.973-1.055H19.004c-1.32 0-2.32.35-3 1.05-.679.701-1.018 1.712-1.018 3.034v28.926c0 1.34.34 2.348 1.023 3.023.681.676 1.68 1.014 2.995 1.014Zm46.965-4.483c-.005 1.91-.488 3.41-1.45 4.5-.96 1.09-2.464 1.634-4.51 1.634H18.683c-1.717 0-2.977-.473-3.777-1.42-.801-.947-1.284-2.417-1.449-4.412l8.98-8.26c.498-.462.997-.808 1.495-1.04a3.7 3.7 0 0 1 1.574-.345 4.19 4.19 0 0 1 1.712.354 5.654 5.654 0 0 1 1.55 1.047l4.479 4.13 10.847-9.71c.583-.496 1.169-.87 1.758-1.122a4.749 4.749 0 0 1 1.883-.377c.69 0 1.342.136 1.956.408a7.713 7.713 0 0 1 1.783 1.119l14.495 13.494ZM29.424 27.378a5.369 5.369 0 0 1-2.82-.77 5.8 5.8 0 0 1-2.036-2.05 5.462 5.462 0 0 1-.757-2.83c0-1.027.252-1.967.757-2.82a5.724 5.724 0 0 1 2.036-2.04 5.42 5.42 0 0 1 2.82-.761c1.027 0 1.967.253 2.82.76a5.836 5.836 0 0 1 2.05 2.04c.513.854.77 1.794.77 2.82 0 1.55-.555 2.88-1.663 3.988-1.109 1.109-2.434 1.663-3.977 1.663ZM13.381 61.513c-.444 0-.82-.153-1.126-.46a1.554 1.554 0 0 1-.46-1.145c0-.438.154-.811.46-1.117.306-.307.682-.46 1.126-.46h52.918c.445 0 .823.153 1.136.46.312.306.469.679.469 1.117 0 .457-.157.839-.47 1.145-.312.307-.69.46-1.135.46H13.381Zm0 12.738a1.54 1.54 0 0 1-1.126-.455 1.526 1.526 0 0 1-.46-1.13c0-.458.154-.84.46-1.146.306-.306.682-.46 1.126-.46h34.86c.452 0 .83.154 1.137.46.306.306.46.688.46 1.145 0 .451-.154.828-.46 1.131a1.552 1.552 0 0 1-1.136.455H13.38Z" fill="#000" fill-rule="nonzero"/>
</svg>
