<?xml version="1.0" encoding="UTF-8"?>
<svg width="48px" height="60px" viewBox="0 0 48 60" version="1.1" xmlns="http://www.w3.org/2000/svg" xmlns:xlink="http://www.w3.org/1999/xlink">
    <title>Path</title>
    <g id="Symbols" stroke="none" stroke-width="1" fill="none" fill-rule="evenodd">
        <g id="8-Botones/WEditor" transform="translate(-781, -60)" fill="#FFFFFF">
            <path d="M804.478261,80.1725217 L804.478261,95.1657391 L804.480277,95.0426381 C804.548658,92.8429573 806.347933,91.0771003 808.570783,91.0356522 C810.911304,90.9907826 812.82713,92.9347826 812.82713,95.2528696 L812.82713,98.253913 L812.829144,98.1459714 C812.897449,95.9467635 814.694756,94.1804047 816.919652,94.1389565 C819.258087,94.0946087 821.173913,96.038087 821.173913,98.3577391 L821.173913,101.12087 C821.173913,99.3031304 822.433391,97.7791304 824.133217,97.356 C824.470261,97.2735652 824.82713,97.2328696 825.192348,97.2422609 C827.324174,97.298087 829,99.0777391 829,101.191826 L829,111.724174 C829,114.633913 828.473043,117.422087 827.50887,120 L788.826087,120 L781.98087,104.968696 L781.680348,104.309739 C781.674087,104.299826 781.66887,104.290435 781.661565,104.28 L781.576,104.130261 L781.565565,104.115652 C781.205565,103.455652 781,102.698087 781,101.897739 C781,100.215652 781.899478,98.7422609 783.246609,97.9252174 C783.250783,97.9210435 783.256,97.9168696 783.261217,97.9147826 L783.478261,97.7916522 C784.14087,97.44 784.894261,97.2401739 785.695652,97.2401739 C785.781217,97.2401739 785.865739,97.2422609 785.951304,97.2485217 C787.570783,97.3335652 788.973217,98.2346087 789.747478,99.542087 L789.795478,99.6250435 L794.113391,107.038957 C794.380522,107.498087 795.086957,107.311304 795.086957,106.780174 L795.086957,80.2486957 C795.086957,77.6968696 797.128,75.5608696 799.701217,75.518087 C802.331826,75.4747826 804.478261,77.5747826 804.478261,80.1725217 Z M799.782609,66.7241739 C802.297391,66.7241739 804.630609,67.4906087 806.557913,68.8001739 C806.99513,69.096 807.410435,69.4210435 807.801739,69.7706087 C808.794087,70.6528696 809.634087,71.697913 810.284174,72.8629565 C811.24,74.5695652 811.782609,76.5323478 811.782609,78.6208696 C811.782609,81.1126957 811.009391,83.426087 809.689391,85.3377391 C809.145739,86.121913 808.512348,86.8366957 807.801739,87.4706087 L807.801739,83.4673043 C808.674087,82.0549565 809.173913,80.3958261 809.173913,78.6208696 C809.173913,77.2528696 808.878609,75.9558261 808.345391,74.7892174 C808.184696,74.4370435 808.00313,74.097913 807.801739,73.7728696 C807.022261,72.5071304 805.947478,71.4412174 804.672348,70.6706087 C803.249043,69.806087 801.575304,69.3104348 799.782609,69.3104348 C797.990957,69.3104348 796.317217,69.806087 794.893913,70.6706087 C793.617739,71.4412174 792.542957,72.5071304 791.763478,73.7728696 C791.562087,74.097913 791.382609,74.4370435 791.22087,74.7881739 C790.687652,75.9558261 790.391304,77.2528696 790.391304,78.6208696 C790.391304,80.3968696 790.892174,82.056 791.763478,83.4673043 L791.763478,87.4706087 C791.05287,86.8366957 790.419478,86.121913 789.87687,85.3377391 C788.555826,83.426087 787.782609,81.1126957 787.782609,78.6208696 C787.782609,76.5323478 788.325217,74.5695652 789.281043,72.8629565 C789.93113,71.697913 790.773217,70.6528696 791.763478,69.7706087 C792.155826,69.4210435 792.57113,69.096 793.007304,68.8001739 C794.935652,67.4906087 797.267826,66.7241739 799.782609,66.7241739 Z M799.782609,60 C802.65113,60 805.369391,60.6370435 807.801739,61.7770435 C809.090435,62.3812174 810.299826,63.1262609 811.408,63.9928696 C812.861565,65.1307826 814.142957,66.4768696 815.20313,67.9883478 C817.323478,71.001913 818.565217,74.6671304 818.565217,78.6208696 C818.565217,82.9706087 817.059478,86.9728696 814.538435,90.144 L812.67687,88.3001739 C814.735652,85.6095652 815.956522,82.2568696 815.956522,78.6208696 C815.956522,75.3829565 814.989217,72.3704348 813.325913,69.8504348 C812.306435,68.306087 811.025043,66.9485217 809.545391,65.8377391 C808.993391,65.4198261 808.410087,65.0358261 807.801739,64.6935652 C805.438261,63.3526957 802.700174,62.5862609 799.782609,62.5862609 C796.865043,62.5862609 794.126957,63.3526957 791.763478,64.6935652 C791.156174,65.0358261 790.57287,65.4198261 790.019826,65.8377391 C788.540174,66.9485217 787.26087,68.306087 786.241391,69.8504348 C784.576,72.3704348 783.609739,75.3829565 783.609739,78.6208696 C783.609739,82.2568696 784.828522,85.6095652 786.888348,88.3001739 C788.008,89.7662609 789.380174,91.0356522 790.936,92.0462609 C791.206261,92.22 791.481739,92.3874783 791.763478,92.5476522 L791.763478,95.462087 C790.816,95.018087 789.911304,94.497913 789.057739,93.9083478 C787.534261,92.856 786.176696,91.586087 785.027826,90.144 C782.505739,86.9728696 781,82.9706087 781,78.6208696 C781,74.6671304 782.242783,71.001913 784.362087,67.9883478 C785.423304,66.4768696 786.702609,65.1307826 788.159304,63.9928696 C789.266435,63.1262609 790.475826,62.3812174 791.763478,61.7770435 C794.195826,60.6370435 796.914087,60 799.782609,60 Z" id="Path"></path>
        </g>
    </g>
</svg>