<svg width="140" height="30" xmlns="http://www.w3.org/2000/svg">
    <path d="M118.317 0c1.947 0 16.991.157 19.198.75 1.009.27 1.274 1.05 1.387 1.382.968 2.835.53 25.413-1.03 26.628-1.467 1.147-13.131 1.233-18.398 1.24H117.04l-.844-.001c-6.223-.007-24.27-.03-42.82-.055l-4.177-.006-44.588-.061h-.614l-.234-.001h-1.995l-1.694.002h-.706c-1.305.001-2.673-.001-4.05-.013l-.75-.007-.376-.004-.75-.01c-5.736-.09-11.16-.387-12.173-1.351-1.693-1.61-1.693-25.975.006-26.99C3.3.29 10.889.109 14.928.1h.565c.447 0 .836.004 1.148.007l.703-.001 49.99-.055L70.318.05C91.201.026 111.46.005 116.991.001L118.158 0h.159Z" fill="#FA243C" fill-rule="nonzero"/>
</svg>
