<svg width="80" height="80" xmlns="http://www.w3.org/2000/svg" xmlns:xlink="http://www.w3.org/1999/xlink">
    <defs>
        <path d="M54.34 46.255c-.779-.39-4.607-2.277-5.322-2.537-.714-.261-1.232-.391-1.75.39-.52.782-2.012 2.54-2.467 3.059-.454.521-.908.585-1.687.195-.778-.391-3.287-1.215-6.263-3.872-2.314-2.07-3.878-4.623-4.332-5.405-.454-.781-.048-1.204.34-1.591.35-.35.78-.912 1.17-1.367.39-.456.518-.782.778-1.301.26-.521.13-.976-.064-1.367-.195-.391-1.752-4.231-2.402-5.793-.632-1.521-1.274-1.314-1.751-1.34a31.384 31.384 0 0 0-1.493-.027c-.52 0-1.363.195-2.077.976-.714.782-2.726 2.67-2.726 6.509 0 3.838 2.79 7.55 3.18 8.071.39.521 5.492 8.4 13.303 11.781a44.613 44.613 0 0 0 4.44 1.644c1.865.595 3.562.51 4.904.31 1.496-.224 4.608-1.888 5.256-3.71.649-1.822.649-3.385.454-3.71-.194-.325-.714-.521-1.492-.912l.001-.003ZM40.131 66.762h-.01a26.9 26.9 0 0 1-13.729-3.766l-.985-.586-10.209 2.682 2.725-9.972-.641-1.023a26.99 26.99 0 0 1-4.124-14.38c.007-14.899 12.106-27.021 26.985-27.021 7.204.003 13.975 2.817 19.068 7.925 5.093 5.107 7.895 11.898 7.892 19.117-.006 14.9-12.106 27.023-26.972 27.023v.001ZM62.176 17.65c-5.883-5.902-13.707-9.154-22.045-9.157-17.179 0-31.16 14.006-31.166 31.223a31.201 31.201 0 0 0 4.16 15.61l-4.422 16.18 16.522-4.341a31.079 31.079 0 0 0 14.893 3.8h.013c17.177 0 31.16-14.008 31.166-31.224.003-8.344-3.236-16.187-9.12-22.09v-.001Z" id="a"/>
    </defs>
    <use fill="#000" xlink:href="#a" fill-rule="evenodd"/>
</svg>
